{
	"asset":{
		"generator":"Khronos glTF Blender I/O v4.5.48",
		"version":"2.0"
	},
	"extensionsUsed":[
		"KHR_materials_specular",
		"KHR_materials_ior"
	],
	"scene":0,
	"scenes":[
		{
			"name":"Scene",
			"nodes":[
				0,
				1,
				2,
				3,
				4,
				5,
				6,
				7,
				8,
				9,
				10,
				11,
				12,
				13,
				14,
				15,
				16,
				17,
				18,
				19,
				20,
				21,
				22,
				23,
				24
			]
		}
	],
	"nodes":[
		{
			"mesh":0,
			"name":"Plane"
		},
		{
			"mesh":1,
			"name":"Window"
		},
		{
			"mesh":2,
			"name":"Plane.001"
		},
		{
			"mesh":3,
			"name":"Plane.002"
		},
		{
			"mesh":4,
			"name":"Plane.003"
		},
		{
			"mesh":5,
			"name":"Plane.004"
		},
		{
			"mesh":6,
			"name":"Plane.005"
		},
		{
			"mesh":7,
			"name":"Plane.006"
		},
		{
			"mesh":8,
			"name":"Plane.007"
		},
		{
			"mesh":9,
			"name":"Plane.008"
		},
		{
			"mesh":10,
			"name":"Plane.009"
		},
		{
			"mesh":11,
			"name":"Plane.010"
		},
		{
			"mesh":12,
			"name":"Plane.011"
		},
		{
			"mesh":13,
			"name":"Plane.012"
		},
		{
			"name":"Plane.013"
		},
		{
			"mesh":14,
			"name":"Window.001"
		},
		{
			"mesh":15,
			"name":"Window.002"
		},
		{
			"mesh":16,
			"name":"Plane.014"
		},
		{
			"mesh":17,
			"name":"Plane.015"
		},
		{
			"mesh":18,
			"name":"Plane.016"
		},
		{
			"mesh":19,
			"name":"Plane.017"
		},
		{
			"mesh":20,
			"name":"Plane.018"
		},
		{
			"mesh":21,
			"name":"Circle",
			"translation":[
				-1.350000023841858,
				1.5,
				0.20000001788139343
			]
		},
		{
			"mesh":22,
			"name":"Plane.019"
		},
		{
			"mesh":23,
			"name":"Plane.020"
		}
	],
	"materials":[
		{
			"doubleSided":true,
			"name":"White",
			"pbrMetallicRoughness":{
				"baseColorFactor":[
					0.800000011920929,
					0.800000011920929,
					0.800000011920929,
					1
				],
				"metallicFactor":0,
				"roughnessFactor":0.5
			}
		},
		{
			"doubleSided":true,
			"name":"Concrete",
			"pbrMetallicRoughness":{
				"baseColorFactor":[
					0.800000011920929,
					0.800000011920929,
					0.800000011920929,
					1
				],
				"metallicFactor":0,
				"roughnessFactor":0.5
			}
		},
		{
			"doubleSided":true,
			"name":"Plastic",
			"pbrMetallicRoughness":{
				"metallicFactor":0,
				"roughnessFactor":0.5
			}
		},
		{
			"alphaMode":"BLEND",
			"doubleSided":true,
			"extensions":{
				"KHR_materials_specular":{
					"specularFactor":0
				},
				"KHR_materials_ior":{
					"ior":1.4500000476837158
				}
			},
			"name":"Glass",
			"pbrMetallicRoughness":{
				"baseColorFactor":[
					1,
					1,
					1,
					0.10000000149011612
				],
				"metallicFactor":0,
				"roughnessFactor":0
			}
		},
		{
			"doubleSided":true,
			"name":"H1386-ST40",
			"pbrMetallicRoughness":{
				"baseColorFactor":[
					0.800000011920929,
					0.800000011920929,
					0.800000011920929,
					1
				],
				"metallicFactor":0,
				"roughnessFactor":0.5
			}
		},
		{
			"doubleSided":true,
			"name":"U702-PM",
			"pbrMetallicRoughness":{
				"baseColorFactor":[
					0.800000011920929,
					0.800000011920929,
					0.800000011920929,
					1
				],
				"metallicFactor":0,
				"roughnessFactor":0.5
			}
		},
		{
			"doubleSided":true,
			"name":"U702-ST9",
			"pbrMetallicRoughness":{
				"baseColorFactor":[
					0.800000011920929,
					0.800000011920929,
					0.800000011920929,
					1
				],
				"metallicFactor":0,
				"roughnessFactor":0.5
			}
		},
		{
			"doubleSided":true,
			"name":"Gold",
			"pbrMetallicRoughness":{
				"baseColorFactor":[
					0.800000011920929,
					0.800000011920929,
					0.800000011920929,
					1
				],
				"metallicFactor":0,
				"roughnessFactor":0.5
			}
		},
		{
			"doubleSided":true,
			"name":"Light",
			"pbrMetallicRoughness":{
				"baseColorFactor":[
					0.800000011920929,
					0.800000011920929,
					0.800000011920929,
					1
				],
				"metallicFactor":0,
				"roughnessFactor":0.5
			}
		},
		{
			"doubleSided":true,
			"name":"Floor",
			"pbrMetallicRoughness":{
				"baseColorFactor":[
					0.800000011920929,
					0.800000011920929,
					0.800000011920929,
					1
				],
				"metallicFactor":0,
				"roughnessFactor":0.5
			}
		}
	],
	"meshes":[
		{
			"name":"Plane",
			"primitives":[
				{
					"attributes":{
						"POSITION":0,
						"NORMAL":1,
						"TEXCOORD_0":2,
						"TANGENT":3
					},
					"indices":4,
					"material":0
				},
				{
					"attributes":{
						"POSITION":5,
						"NORMAL":6,
						"TEXCOORD_0":7,
						"TANGENT":8
					},
					"indices":9,
					"material":1
				}
			]
		},
		{
			"name":"Plane.001",
			"primitives":[
				{
					"attributes":{
						"POSITION":10,
						"NORMAL":11,
						"TEXCOORD_0":12,
						"TANGENT":13
					},
					"indices":14,
					"material":2
				},
				{
					"attributes":{
						"POSITION":15,
						"NORMAL":16,
						"TEXCOORD_0":17,
						"TANGENT":18
					},
					"indices":19,
					"material":3
				}
			]
		},
		{
			"name":"Plane.002",
			"primitives":[
				{
					"attributes":{
						"POSITION":20,
						"NORMAL":21,
						"TEXCOORD_0":22,
						"TANGENT":23
					},
					"indices":24,
					"material":4
				},
				{
					"attributes":{
						"POSITION":25,
						"NORMAL":26,
						"TEXCOORD_0":27,
						"TANGENT":28
					},
					"indices":29,
					"material":5
				}
			]
		},
		{
			"name":"Plane.003",
			"primitives":[
				{
					"attributes":{
						"POSITION":30,
						"NORMAL":31,
						"TEXCOORD_0":32,
						"TANGENT":33
					},
					"indices":34,
					"material":6
				},
				{
					"attributes":{
						"POSITION":35,
						"NORMAL":36,
						"TEXCOORD_0":37,
						"TANGENT":38
					},
					"indices":39,
					"material":5
				}
			]
		},
		{
			"name":"Plane.004",
			"primitives":[
				{
					"attributes":{
						"POSITION":40,
						"NORMAL":41,
						"TEXCOORD_0":42,
						"TANGENT":43
					},
					"indices":44,
					"material":6
				},
				{
					"attributes":{
						"POSITION":45,
						"NORMAL":46,
						"TEXCOORD_0":47,
						"TANGENT":48
					},
					"indices":49,
					"material":5
				}
			]
		},
		{
			"name":"Plane.005",
			"primitives":[
				{
					"attributes":{
						"POSITION":50,
						"NORMAL":51,
						"TEXCOORD_0":52,
						"TANGENT":53
					},
					"indices":54,
					"material":6
				},
				{
					"attributes":{
						"POSITION":55,
						"NORMAL":56,
						"TEXCOORD_0":57,
						"TANGENT":58
					},
					"indices":59,
					"material":5
				}
			]
		},
		{
			"name":"Plane.006",
			"primitives":[
				{
					"attributes":{
						"POSITION":60,
						"NORMAL":61,
						"TEXCOORD_0":62,
						"TANGENT":63
					},
					"indices":64,
					"material":6
				},
				{
					"attributes":{
						"POSITION":65,
						"NORMAL":66,
						"TEXCOORD_0":67,
						"TANGENT":68
					},
					"indices":69,
					"material":4
				}
			]
		},
		{
			"name":"Plane.007",
			"primitives":[
				{
					"attributes":{
						"POSITION":70,
						"NORMAL":71,
						"TEXCOORD_0":72,
						"TANGENT":73
					},
					"indices":74,
					"material":6
				},
				{
					"attributes":{
						"POSITION":75,
						"NORMAL":76,
						"TEXCOORD_0":77,
						"TANGENT":78
					},
					"indices":79,
					"material":5
				}
			]
		},
		{
			"name":"Plane.008",
			"primitives":[
				{
					"attributes":{
						"POSITION":80,
						"NORMAL":81,
						"TEXCOORD_0":82,
						"TANGENT":83
					},
					"indices":84,
					"material":6
				},
				{
					"attributes":{
						"POSITION":85,
						"NORMAL":86,
						"TEXCOORD_0":87,
						"TANGENT":88
					},
					"indices":89,
					"material":5
				}
			]
		},
		{
			"name":"Plane.009",
			"primitives":[
				{
					"attributes":{
						"POSITION":90,
						"NORMAL":91,
						"TEXCOORD_0":92,
						"TANGENT":93
					},
					"indices":94,
					"material":6
				},
				{
					"attributes":{
						"POSITION":95,
						"NORMAL":96,
						"TEXCOORD_0":97,
						"TANGENT":98
					},
					"indices":99,
					"material":5
				}
			]
		},
		{
			"name":"Plane.010",
			"primitives":[
				{
					"attributes":{
						"POSITION":100,
						"NORMAL":101,
						"TEXCOORD_0":102,
						"TANGENT":103
					},
					"indices":104,
					"material":6
				},
				{
					"attributes":{
						"POSITION":105,
						"NORMAL":106,
						"TEXCOORD_0":107,
						"TANGENT":108
					},
					"indices":109,
					"material":5
				}
			]
		},
		{
			"name":"Plane.011",
			"primitives":[
				{
					"attributes":{
						"POSITION":110,
						"NORMAL":111,
						"TEXCOORD_0":112,
						"TANGENT":113
					},
					"indices":114,
					"material":6
				},
				{
					"attributes":{
						"POSITION":115,
						"NORMAL":116,
						"TEXCOORD_0":117,
						"TANGENT":118
					},
					"indices":119,
					"material":5
				}
			]
		},
		{
			"name":"Plane.012",
			"primitives":[
				{
					"attributes":{
						"POSITION":120,
						"NORMAL":121,
						"TEXCOORD_0":122,
						"TANGENT":123
					},
					"indices":124,
					"material":6
				},
				{
					"attributes":{
						"POSITION":125,
						"NORMAL":126,
						"TEXCOORD_0":127,
						"TANGENT":128
					},
					"indices":129,
					"material":5
				},
				{
					"attributes":{
						"POSITION":130,
						"NORMAL":131,
						"TEXCOORD_0":132,
						"TANGENT":133
					},
					"indices":134,
					"material":7
				}
			]
		},
		{
			"name":"Plane.013",
			"primitives":[
				{
					"attributes":{
						"POSITION":135,
						"NORMAL":136,
						"TEXCOORD_0":137,
						"TANGENT":138
					},
					"indices":139,
					"material":6
				},
				{
					"attributes":{
						"POSITION":140,
						"NORMAL":141,
						"TEXCOORD_0":142,
						"TANGENT":143
					},
					"indices":144,
					"material":5
				}
			]
		},
		{
			"name":"Plane.015",
			"primitives":[
				{
					"attributes":{
						"POSITION":145,
						"NORMAL":146,
						"TEXCOORD_0":147,
						"TANGENT":148
					},
					"indices":149,
					"material":2
				},
				{
					"attributes":{
						"POSITION":150,
						"NORMAL":151,
						"TEXCOORD_0":152,
						"TANGENT":153
					},
					"indices":19,
					"material":3
				}
			]
		},
		{
			"name":"Plane.016",
			"primitives":[
				{
					"attributes":{
						"POSITION":154,
						"NORMAL":155,
						"TEXCOORD_0":156,
						"TANGENT":157
					},
					"indices":158,
					"material":2
				},
				{
					"attributes":{
						"POSITION":159,
						"NORMAL":160,
						"TEXCOORD_0":161,
						"TANGENT":162
					},
					"indices":163,
					"material":3
				}
			]
		},
		{
			"name":"Plane.025",
			"primitives":[
				{
					"attributes":{
						"POSITION":164,
						"NORMAL":165,
						"TEXCOORD_0":166,
						"TANGENT":167
					},
					"indices":168,
					"material":4
				}
			]
		},
		{
			"name":"Plane.026",
			"primitives":[
				{
					"attributes":{
						"POSITION":169,
						"NORMAL":170,
						"TEXCOORD_0":171,
						"TANGENT":172
					},
					"indices":173,
					"material":6
				},
				{
					"attributes":{
						"POSITION":174,
						"NORMAL":175,
						"TEXCOORD_0":176,
						"TANGENT":177
					},
					"indices":178,
					"material":5
				}
			]
		},
		{
			"name":"Plane.027",
			"primitives":[
				{
					"attributes":{
						"POSITION":179,
						"NORMAL":180,
						"TEXCOORD_0":181,
						"TANGENT":182
					},
					"indices":183,
					"material":6
				},
				{
					"attributes":{
						"POSITION":184,
						"NORMAL":185,
						"TEXCOORD_0":186,
						"TANGENT":187
					},
					"indices":188,
					"material":5
				}
			]
		},
		{
			"name":"Plane.028",
			"primitives":[
				{
					"attributes":{
						"POSITION":189,
						"NORMAL":190,
						"TEXCOORD_0":191,
						"TANGENT":192
					},
					"indices":193,
					"material":6
				},
				{
					"attributes":{
						"POSITION":194,
						"NORMAL":195,
						"TEXCOORD_0":196,
						"TANGENT":197
					},
					"indices":198,
					"material":5
				}
			]
		},
		{
			"name":"Plane.029",
			"primitives":[
				{
					"attributes":{
						"POSITION":199,
						"NORMAL":200,
						"TEXCOORD_0":201,
						"TANGENT":202
					},
					"indices":203,
					"material":6
				},
				{
					"attributes":{
						"POSITION":204,
						"NORMAL":205,
						"TEXCOORD_0":206,
						"TANGENT":207
					},
					"indices":208,
					"material":5
				}
			]
		},
		{
			"name":"Circle",
			"primitives":[
				{
					"attributes":{
						"POSITION":209,
						"NORMAL":210,
						"TEXCOORD_0":211,
						"TANGENT":212
					},
					"indices":213,
					"material":7
				}
			]
		},
		{
			"name":"Plane.030",
			"primitives":[
				{
					"attributes":{
						"POSITION":214,
						"NORMAL":215,
						"TEXCOORD_0":216,
						"TANGENT":217
					},
					"indices":218,
					"material":4
				},
				{
					"attributes":{
						"POSITION":219,
						"NORMAL":220,
						"TEXCOORD_0":221,
						"TANGENT":222
					},
					"indices":223,
					"material":8
				}
			]
		},
		{
			"name":"Plane.017",
			"primitives":[
				{
					"attributes":{
						"POSITION":224,
						"NORMAL":225,
						"TEXCOORD_0":226,
						"TANGENT":227
					},
					"indices":228,
					"material":9
				}
			]
		}
	],
	"accessors":[
		{
			"bufferView":0,
			"componentType":5126,
			"count":3414,
			"max":[
				0.40000009536743164,
				3.000000238418579,
				8.344999313354492
			],
			"min":[
				-10,
				-1,
				-2.4000000953674316
			],
			"type":"VEC3"
		},
		{
			"bufferView":1,
			"componentType":5126,
			"count":3414,
			"type":"VEC3"
		},
		{
			"bufferView":2,
			"componentType":5126,
			"count":3414,
			"type":"VEC2"
		},
		{
			"bufferView":3,
			"componentType":5126,
			"count":3414,
			"type":"VEC4"
		},
		{
			"bufferView":4,
			"componentType":5123,
			"count":7080,
			"type":"SCALAR"
		},
		{
			"bufferView":5,
			"componentType":5126,
			"count":369,
			"max":[
				0.40000009536743164,
				0.0010000001639127731,
				8.344999313354492
			],
			"min":[
				-8.960000038146973,
				-0.0010000000474974513,
				-2.000000238418579
			],
			"type":"VEC3"
		},
		{
			"bufferView":6,
			"componentType":5126,
			"count":369,
			"type":"VEC3"
		},
		{
			"bufferView":7,
			"componentType":5126,
			"count":369,
			"type":"VEC2"
		},
		{
			"bufferView":8,
			"componentType":5126,
			"count":369,
			"type":"VEC4"
		},
		{
			"bufferView":9,
			"componentType":5123,
			"count":864,
			"type":"SCALAR"
		},
		{
			"bufferView":10,
			"componentType":5126,
			"count":342,
			"max":[
				0.25500062108039856,
				2.3329989910125732,
				3.2630035877227783
			],
			"min":[
				0.16500021517276764,
				0.8999998569488525,
				1.8180011510849
			],
			"type":"VEC3"
		},
		{
			"bufferView":11,
			"componentType":5126,
			"count":342,
			"type":"VEC3"
		},
		{
			"bufferView":12,
			"componentType":5126,
			"count":342,
			"type":"VEC2"
		},
		{
			"bufferView":13,
			"componentType":5126,
			"count":342,
			"type":"VEC4"
		},
		{
			"bufferView":14,
			"componentType":5123,
			"count":714,
			"type":"SCALAR"
		},
		{
			"bufferView":15,
			"componentType":5126,
			"count":16,
			"max":[
				0.21000052988529205,
				2.2429990768432617,
				3.1730034351348877
			],
			"min":[
				0.19000031054019928,
				0.9899997711181641,
				1.9080036878585815
			],
			"type":"VEC3"
		},
		{
			"bufferView":16,
			"componentType":5126,
			"count":16,
			"type":"VEC3"
		},
		{
			"bufferView":17,
			"componentType":5126,
			"count":16,
			"type":"VEC2"
		},
		{
			"bufferView":18,
			"componentType":5126,
			"count":16,
			"type":"VEC4"
		},
		{
			"bufferView":19,
			"componentType":5123,
			"count":24,
			"type":"SCALAR"
		},
		{
			"bufferView":20,
			"componentType":5126,
			"count":264,
			"max":[
				0.0014142135623842478,
				0.9100000262260437,
				3.319999933242798
			],
			"min":[
				-2.760000228881836,
				0.8880000710487366,
				0
			],
			"type":"VEC3"
		},
		{
			"bufferView":21,
			"componentType":5126,
			"count":264,
			"type":"VEC3"
		},
		{
			"bufferView":22,
			"componentType":5126,
			"count":264,
			"type":"VEC2"
		},
		{
			"bufferView":23,
			"componentType":5126,
			"count":264,
			"type":"VEC4"
		},
		{
			"bufferView":24,
			"componentType":5123,
			"count":408,
			"type":"SCALAR"
		},
		{
			"bufferView":25,
			"componentType":5126,
			"count":116,
			"max":[
				0,
				0.8920000195503235,
				3.319999933242798
			],
			"min":[
				-0.6000000238418579,
				0.010000000707805157,
				3.299999952316284
			],
			"type":"VEC3"
		},
		{
			"bufferView":26,
			"componentType":5126,
			"count":116,
			"type":"VEC3"
		},
		{
			"bufferView":27,
			"componentType":5126,
			"count":116,
			"type":"VEC2"
		},
		{
			"bufferView":28,
			"componentType":5126,
			"count":116,
			"type":"VEC4"
		},
		{
			"bufferView":29,
			"componentType":5123,
			"count":132,
			"type":"SCALAR"
		},
		{
			"bufferView":30,
			"componentType":5126,
			"count":2550,
			"max":[
				-2.180000066757202,
				2.7119979858398438,
				1.2000000476837158
			],
			"min":[
				-2.760002613067627,
				0.10000000149011612,
				0.6000000238418579
			],
			"type":"VEC3"
		},
		{
			"bufferView":31,
			"componentType":5126,
			"count":2550,
			"type":"VEC3"
		},
		{
			"bufferView":32,
			"componentType":5126,
			"count":2550,
			"type":"VEC2"
		},
		{
			"bufferView":33,
			"componentType":5126,
			"count":2550,
			"type":"VEC4"
		},
		{
			"bufferView":34,
			"componentType":5123,
			"count":3126,
			"type":"SCALAR"
		},
		{
			"bufferView":35,
			"componentType":5126,
			"count":414,
			"max":[
				-2.1600000858306885,
				2.7099978923797607,
				1.1980000734329224
			],
			"min":[
				-2.177999973297119,
				0.10199999809265137,
				0.6019999980926514
			],
			"type":"VEC3"
		},
		{
			"bufferView":36,
			"componentType":5126,
			"count":414,
			"type":"VEC3"
		},
		{
			"bufferView":37,
			"componentType":5126,
			"count":414,
			"type":"VEC2"
		},
		{
			"bufferView":38,
			"componentType":5126,
			"count":414,
			"type":"VEC4"
		},
		{
			"bufferView":39,
			"componentType":5123,
			"count":528,
			"type":"SCALAR"
		},
		{
			"bufferView":40,
			"componentType":5126,
			"count":2046,
			"max":[
				-2.180000066757202,
				2.5350000858306885,
				1.565999984741211
			],
			"min":[
				-2.559999942779541,
				0.10000000149011612,
				1.2000000476837158
			],
			"type":"VEC3"
		},
		{
			"bufferView":41,
			"componentType":5126,
			"count":2046,
			"type":"VEC3"
		},
		{
			"bufferView":42,
			"componentType":5126,
			"count":2046,
			"type":"VEC2"
		},
		{
			"bufferView":43,
			"componentType":5126,
			"count":2046,
			"type":"VEC4"
		},
		{
			"bufferView":44,
			"componentType":5123,
			"count":2568,
			"type":"SCALAR"
		},
		{
			"bufferView":45,
			"componentType":5126,
			"count":589,
			"max":[
				-2.1600000858306885,
				2.7100000381469727,
				1.5640000104904175
			],
			"min":[
				-2.177999973297119,
				0.10200000554323196,
				1.2020000219345093
			],
			"type":"VEC3"
		},
		{
			"bufferView":46,
			"componentType":5126,
			"count":589,
			"type":"VEC3"
		},
		{
			"bufferView":47,
			"componentType":5126,
			"count":589,
			"type":"VEC2"
		},
		{
			"bufferView":48,
			"componentType":5126,
			"count":589,
			"type":"VEC4"
		},
		{
			"bufferView":49,
			"componentType":5123,
			"count":768,
			"type":"SCALAR"
		},
		{
			"bufferView":50,
			"componentType":5126,
			"count":1460,
			"max":[
				-2.180000066757202,
				2.7120003700256348,
				2.2659997940063477
			],
			"min":[
				-2.760000705718994,
				0.10000000149011612,
				1.565999984741211
			],
			"type":"VEC3"
		},
		{
			"bufferView":51,
			"componentType":5126,
			"count":1460,
			"type":"VEC3"
		},
		{
			"bufferView":52,
			"componentType":5126,
			"count":1460,
			"type":"VEC2"
		},
		{
			"bufferView":53,
			"componentType":5126,
			"count":1460,
			"type":"VEC4"
		},
		{
			"bufferView":54,
			"componentType":5123,
			"count":1860,
			"type":"SCALAR"
		},
		{
			"bufferView":55,
			"componentType":5126,
			"count":450,
			"max":[
				-2.1600000858306885,
				2.7100002765655518,
				2.2639997005462646
			],
			"min":[
				-2.177999973297119,
				0.10199999809265137,
				1.5679999589920044
			],
			"type":"VEC3"
		},
		{
			"bufferView":56,
			"componentType":5126,
			"count":450,
			"type":"VEC3"
		},
		{
			"bufferView":57,
			"componentType":5126,
			"count":450,
			"type":"VEC2"
		},
		{
			"bufferView":58,
			"componentType":5126,
			"count":450,
			"type":"VEC4"
		},
		{
			"bufferView":59,
			"componentType":5123,
			"count":528,
			"type":"SCALAR"
		},
		{
			"bufferView":60,
			"componentType":5126,
			"count":324,
			"max":[
				-2.1600000858306885,
				2.7320001125335693,
				2.2679998874664307
			],
			"min":[
				-2.759999990463257,
				0.010000000707805157,
				0
			],
			"type":"VEC3"
		},
		{
			"bufferView":61,
			"componentType":5126,
			"count":324,
			"type":"VEC3"
		},
		{
			"bufferView":62,
			"componentType":5126,
			"count":324,
			"type":"VEC2"
		},
		{
			"bufferView":63,
			"componentType":5126,
			"count":324,
			"type":"VEC4"
		},
		{
			"bufferView":64,
			"componentType":5123,
			"count":396,
			"type":"SCALAR"
		},
		{
			"bufferView":65,
			"componentType":5126,
			"count":116,
			"max":[
				-2.1600000858306885,
				2.7320001125335693,
				2.2839996814727783
			],
			"min":[
				-2.759999990463257,
				0.010000000707805157,
				2.2639997005462646
			],
			"type":"VEC3"
		},
		{
			"bufferView":66,
			"componentType":5126,
			"count":116,
			"type":"VEC3"
		},
		{
			"bufferView":67,
			"componentType":5126,
			"count":116,
			"type":"VEC2"
		},
		{
			"bufferView":68,
			"componentType":5126,
			"count":116,
			"type":"VEC4"
		},
		{
			"bufferView":69,
			"componentType":5123,
			"count":132,
			"type":"SCALAR"
		},
		{
			"bufferView":70,
			"componentType":5126,
			"count":720,
			"max":[
				9.313225746154785e-09,
				0.8899999260902405,
				3.3000001907348633
			],
			"min":[
				-0.5800000429153442,
				0.010000000707805157,
				2.500000238418579
			],
			"type":"VEC3"
		},
		{
			"bufferView":71,
			"componentType":5126,
			"count":720,
			"type":"VEC3"
		},
		{
			"bufferView":72,
			"componentType":5126,
			"count":720,
			"type":"VEC2"
		},
		{
			"bufferView":73,
			"componentType":5126,
			"count":720,
			"type":"VEC4"
		},
		{
			"bufferView":74,
			"componentType":5123,
			"count":1068,
			"type":"SCALAR"
		},
		{
			"bufferView":75,
			"componentType":5126,
			"count":210,
			"max":[
				-0.5820000171661377,
				0.8489999175071716,
				3.2980000972747803
			],
			"min":[
				-0.6000000238418579,
				0.10199999809265137,
				2.502000331878662
			],
			"type":"VEC3"
		},
		{
			"bufferView":76,
			"componentType":5126,
			"count":210,
			"type":"VEC3"
		},
		{
			"bufferView":77,
			"componentType":5126,
			"count":210,
			"type":"VEC2"
		},
		{
			"bufferView":78,
			"componentType":5126,
			"count":210,
			"type":"VEC4"
		},
		{
			"bufferView":79,
			"componentType":5123,
			"count":264,
			"type":"SCALAR"
		},
		{
			"bufferView":80,
			"componentType":5126,
			"count":705,
			"max":[
				2.9802322387695312e-08,
				0.8899999856948853,
				2.500000238418579
			],
			"min":[
				-0.5800000429153442,
				0.010000000707805157,
				1.9000003337860107
			],
			"type":"VEC3"
		},
		{
			"bufferView":81,
			"componentType":5126,
			"count":705,
			"type":"VEC3"
		},
		{
			"bufferView":82,
			"componentType":5126,
			"count":705,
			"type":"VEC2"
		},
		{
			"bufferView":83,
			"componentType":5126,
			"count":705,
			"type":"VEC4"
		},
		{
			"bufferView":84,
			"componentType":5123,
			"count":1062,
			"type":"SCALAR"
		},
		{
			"bufferView":85,
			"componentType":5126,
			"count":192,
			"max":[
				-0.5820000171661377,
				0.8489999771118164,
				2.498000144958496
			],
			"min":[
				-0.6000000238418579,
				0.10199999809265137,
				1.9020003080368042
			],
			"type":"VEC3"
		},
		{
			"bufferView":86,
			"componentType":5126,
			"count":192,
			"type":"VEC3"
		},
		{
			"bufferView":87,
			"componentType":5126,
			"count":192,
			"type":"VEC2"
		},
		{
			"bufferView":88,
			"componentType":5126,
			"count":192,
			"type":"VEC4"
		},
		{
			"bufferView":89,
			"componentType":5123,
			"count":264,
			"type":"SCALAR"
		},
		{
			"bufferView":90,
			"componentType":5126,
			"count":688,
			"max":[
				2.9802322387695312e-08,
				0.8899999856948853,
				1.9000003337860107
			],
			"min":[
				-0.5800000429153442,
				0.009999997913837433,
				1.3000001907348633
			],
			"type":"VEC3"
		},
		{
			"bufferView":91,
			"componentType":5126,
			"count":688,
			"type":"VEC3"
		},
		{
			"bufferView":92,
			"componentType":5126,
			"count":688,
			"type":"VEC2"
		},
		{
			"bufferView":93,
			"componentType":5126,
			"count":688,
			"type":"VEC4"
		},
		{
			"bufferView":94,
			"componentType":5123,
			"count":1068,
			"type":"SCALAR"
		},
		{
			"bufferView":95,
			"componentType":5126,
			"count":200,
			"max":[
				-0.5820000171661377,
				0.8489999771118164,
				1.8980003595352173
			],
			"min":[
				-0.6000000238418579,
				0.10199999809265137,
				1.3020001649856567
			],
			"type":"VEC3"
		},
		{
			"bufferView":96,
			"componentType":5126,
			"count":200,
			"type":"VEC3"
		},
		{
			"bufferView":97,
			"componentType":5126,
			"count":200,
			"type":"VEC2"
		},
		{
			"bufferView":98,
			"componentType":5126,
			"count":200,
			"type":"VEC4"
		},
		{
			"bufferView":99,
			"componentType":5123,
			"count":264,
			"type":"SCALAR"
		},
		{
			"bufferView":100,
			"componentType":5126,
			"count":96,
			"max":[
				-0.5020000338554382,
				0.10000000149011612,
				1.3000001907348633
			],
			"min":[
				-0.5200000405311584,
				0.010000000707805157,
				0.7000002264976501
			],
			"type":"VEC3"
		},
		{
			"bufferView":101,
			"componentType":5126,
			"count":96,
			"type":"VEC3"
		},
		{
			"bufferView":102,
			"componentType":5126,
			"count":96,
			"type":"VEC2"
		},
		{
			"bufferView":103,
			"componentType":5126,
			"count":96,
			"type":"VEC4"
		},
		{
			"bufferView":104,
			"componentType":5123,
			"count":132,
			"type":"SCALAR"
		},
		{
			"bufferView":105,
			"componentType":5126,
			"count":98,
			"max":[
				-0.5820000171661377,
				0.8489999771118164,
				1.2980002164840698
			],
			"min":[
				-0.6000000238418579,
				0.10199999809265137,
				0.7020002007484436
			],
			"type":"VEC3"
		},
		{
			"bufferView":106,
			"componentType":5126,
			"count":98,
			"type":"VEC3"
		},
		{
			"bufferView":107,
			"componentType":5126,
			"count":98,
			"type":"VEC2"
		},
		{
			"bufferView":108,
			"componentType":5126,
			"count":98,
			"type":"VEC4"
		},
		{
			"bufferView":109,
			"componentType":5123,
			"count":132,
			"type":"SCALAR"
		},
		{
			"bufferView":110,
			"componentType":5126,
			"count":672,
			"max":[
				-1.6500000953674316,
				0.8899999856948853,
				0.6000000238418579
			],
			"min":[
				-2.759999990463257,
				0.010000000707805157,
				0
			],
			"type":"VEC3"
		},
		{
			"bufferView":111,
			"componentType":5126,
			"count":672,
			"type":"VEC3"
		},
		{
			"bufferView":112,
			"componentType":5126,
			"count":672,
			"type":"VEC2"
		},
		{
			"bufferView":113,
			"componentType":5126,
			"count":672,
			"type":"VEC4"
		},
		{
			"bufferView":114,
			"componentType":5123,
			"count":960,
			"type":"SCALAR"
		},
		{
			"bufferView":115,
			"componentType":5126,
			"count":100,
			"max":[
				-1.652000069618225,
				0.8490000367164612,
				0.6000000238418579
			],
			"min":[
				-2.1579997539520264,
				0.10199999809265137,
				0.5819999575614929
			],
			"type":"VEC3"
		},
		{
			"bufferView":116,
			"componentType":5126,
			"count":100,
			"type":"VEC3"
		},
		{
			"bufferView":117,
			"componentType":5126,
			"count":100,
			"type":"VEC2"
		},
		{
			"bufferView":118,
			"componentType":5126,
			"count":100,
			"type":"VEC4"
		},
		{
			"bufferView":119,
			"componentType":5123,
			"count":132,
			"type":"SCALAR"
		},
		{
			"bufferView":120,
			"componentType":5126,
			"count":710,
			"max":[
				-1.0500000715255737,
				0.8899999856948853,
				0.5800000429153442
			],
			"min":[
				-1.6500000953674316,
				0.010000000707805157,
				0
			],
			"type":"VEC3"
		},
		{
			"bufferView":121,
			"componentType":5126,
			"count":710,
			"type":"VEC3"
		},
		{
			"bufferView":122,
			"componentType":5126,
			"count":710,
			"type":"VEC2"
		},
		{
			"bufferView":123,
			"componentType":5126,
			"count":710,
			"type":"VEC4"
		},
		{
			"bufferView":124,
			"componentType":5123,
			"count":1116,
			"type":"SCALAR"
		},
		{
			"bufferView":125,
			"componentType":5126,
			"count":296,
			"max":[
				-1.0520000457763672,
				0.8489999771118164,
				0.6000000238418579
			],
			"min":[
				-1.6480001211166382,
				0.10199999809265137,
				0.5820000171661377
			],
			"type":"VEC3"
		},
		{
			"bufferView":126,
			"componentType":5126,
			"count":296,
			"type":"VEC3"
		},
		{
			"bufferView":127,
			"componentType":5126,
			"count":296,
			"type":"VEC2"
		},
		{
			"bufferView":128,
			"componentType":5126,
			"count":296,
			"type":"VEC4"
		},
		{
			"bufferView":129,
			"componentType":5123,
			"count":396,
			"type":"SCALAR"
		},
		{
			"bufferView":130,
			"componentType":5126,
			"count":303,
			"max":[
				-0.5560000538825989,
				0.9129999876022339,
				3.3000004291534424
			],
			"min":[
				-2.2599997520446777,
				0.46000000834465027,
				0.5560000538825989
			],
			"type":"VEC3"
		},
		{
			"bufferView":131,
			"componentType":5126,
			"count":303,
			"type":"VEC3"
		},
		{
			"bufferView":132,
			"componentType":5126,
			"count":303,
			"type":"VEC2"
		},
		{
			"bufferView":133,
			"componentType":5126,
			"count":303,
			"type":"VEC4"
		},
		{
			"bufferView":134,
			"componentType":5123,
			"count":465,
			"type":"SCALAR"
		},
		{
			"bufferView":135,
			"componentType":5126,
			"count":954,
			"max":[
				0,
				0.8899999856948853,
				0.7000002264976501
			],
			"min":[
				-1.0500000715255737,
				0.010000000707805157,
				0
			],
			"type":"VEC3"
		},
		{
			"bufferView":136,
			"componentType":5126,
			"count":954,
			"type":"VEC3"
		},
		{
			"bufferView":137,
			"componentType":5126,
			"count":954,
			"type":"VEC2"
		},
		{
			"bufferView":138,
			"componentType":5126,
			"count":954,
			"type":"VEC4"
		},
		{
			"bufferView":139,
			"componentType":5123,
			"count":1356,
			"type":"SCALAR"
		},
		{
			"bufferView":140,
			"componentType":5126,
			"count":214,
			"max":[
				-0.5820000171661377,
				0.8880000114440918,
				0.6980002522468567
			],
			"min":[
				-1.0480000972747803,
				0.10199999809265137,
				0.5520101189613342
			],
			"type":"VEC3"
		},
		{
			"bufferView":141,
			"componentType":5126,
			"count":214,
			"type":"VEC3"
		},
		{
			"bufferView":142,
			"componentType":5126,
			"count":214,
			"type":"VEC2"
		},
		{
			"bufferView":143,
			"componentType":5126,
			"count":214,
			"type":"VEC4"
		},
		{
			"bufferView":144,
			"componentType":5123,
			"count":264,
			"type":"SCALAR"
		},
		{
			"bufferView":145,
			"componentType":5126,
			"count":342,
			"max":[
				0.25500062108039856,
				2.3329989910125732,
				6.263003349304199
			],
			"min":[
				0.16500021517276764,
				0.8999998569488525,
				4.8180012702941895
			],
			"type":"VEC3"
		},
		{
			"bufferView":146,
			"componentType":5126,
			"count":342,
			"type":"VEC3"
		},
		{
			"bufferView":147,
			"componentType":5126,
			"count":342,
			"type":"VEC2"
		},
		{
			"bufferView":148,
			"componentType":5126,
			"count":342,
			"type":"VEC4"
		},
		{
			"bufferView":149,
			"componentType":5123,
			"count":714,
			"type":"SCALAR"
		},
		{
			"bufferView":150,
			"componentType":5126,
			"count":16,
			"max":[
				0.21000052988529205,
				2.2429990768432617,
				6.173003196716309
			],
			"min":[
				0.19000031054019928,
				0.9899997711181641,
				4.908003807067871
			],
			"type":"VEC3"
		},
		{
			"bufferView":151,
			"componentType":5126,
			"count":16,
			"type":"VEC3"
		},
		{
			"bufferView":152,
			"componentType":5126,
			"count":16,
			"type":"VEC2"
		},
		{
			"bufferView":153,
			"componentType":5126,
			"count":16,
			"type":"VEC4"
		},
		{
			"bufferView":154,
			"componentType":5126,
			"count":684,
			"max":[
				-2.2599992752075195,
				2.3329992294311523,
				8.186667442321777
			],
			"min":[
				-6.9600019454956055,
				0.0100003182888031,
				8.096667289733887
			],
			"type":"VEC3"
		},
		{
			"bufferView":155,
			"componentType":5126,
			"count":684,
			"type":"VEC3"
		},
		{
			"bufferView":156,
			"componentType":5126,
			"count":684,
			"type":"VEC2"
		},
		{
			"bufferView":157,
			"componentType":5126,
			"count":684,
			"type":"VEC4"
		},
		{
			"bufferView":158,
			"componentType":5123,
			"count":1392,
			"type":"SCALAR"
		},
		{
			"bufferView":159,
			"componentType":5126,
			"count":52,
			"max":[
				-2.34999942779541,
				2.242999315261841,
				8.161666870117188
			],
			"min":[
				-6.870002269744873,
				0.10000023245811462,
				8.141667366027832
			],
			"type":"VEC3"
		},
		{
			"bufferView":160,
			"componentType":5126,
			"count":52,
			"type":"VEC3"
		},
		{
			"bufferView":161,
			"componentType":5126,
			"count":52,
			"type":"VEC2"
		},
		{
			"bufferView":162,
			"componentType":5126,
			"count":52,
			"type":"VEC4"
		},
		{
			"bufferView":163,
			"componentType":5123,
			"count":78,
			"type":"SCALAR"
		},
		{
			"bufferView":164,
			"componentType":5126,
			"count":210,
			"max":[
				0,
				0.9099999666213989,
				3.818000078201294
			],
			"min":[
				-1.2400000095367432,
				0,
				3.317999839782715
			],
			"type":"VEC3"
		},
		{
			"bufferView":165,
			"componentType":5126,
			"count":210,
			"type":"VEC3"
		},
		{
			"bufferView":166,
			"componentType":5126,
			"count":210,
			"type":"VEC2"
		},
		{
			"bufferView":167,
			"componentType":5126,
			"count":210,
			"type":"VEC4"
		},
		{
			"bufferView":168,
			"componentType":5123,
			"count":264,
			"type":"SCALAR"
		},
		{
			"bufferView":169,
			"componentType":5126,
			"count":482,
			"max":[
				7.450580596923828e-08,
				0.8700000047683716,
				3.5980031490325928
			],
			"min":[
				-0.5999996066093445,
				0.10000002384185791,
				3.3180031776428223
			],
			"type":"VEC3"
		},
		{
			"bufferView":170,
			"componentType":5126,
			"count":482,
			"type":"VEC3"
		},
		{
			"bufferView":171,
			"componentType":5126,
			"count":482,
			"type":"VEC2"
		},
		{
			"bufferView":172,
			"componentType":5126,
			"count":482,
			"type":"VEC4"
		},
		{
			"bufferView":173,
			"componentType":5123,
			"count":630,
			"type":"SCALAR"
		},
		{
			"bufferView":174,
			"componentType":5126,
			"count":208,
			"max":[
				-0.001999780535697937,
				0.8680000305175781,
				3.6050031185150146
			],
			"min":[
				-0.5979995131492615,
				0.10200002789497375,
				3.6000030040740967
			],
			"type":"VEC3"
		},
		{
			"bufferView":175,
			"componentType":5126,
			"count":208,
			"type":"VEC3"
		},
		{
			"bufferView":176,
			"componentType":5126,
			"count":208,
			"type":"VEC2"
		},
		{
			"bufferView":177,
			"componentType":5126,
			"count":208,
			"type":"VEC4"
		},
		{
			"bufferView":178,
			"componentType":5123,
			"count":264,
			"type":"SCALAR"
		},
		{
			"bufferView":179,
			"componentType":5126,
			"count":1518,
			"max":[
				7.450580596923828e-08,
				0.8700000047683716,
				3.7980031967163086
			],
			"min":[
				-1.1999995708465576,
				2.2351741790771484e-08,
				3.3180031776428223
			],
			"type":"VEC3"
		},
		{
			"bufferView":180,
			"componentType":5126,
			"count":1518,
			"type":"VEC3"
		},
		{
			"bufferView":181,
			"componentType":5126,
			"count":1518,
			"type":"VEC2"
		},
		{
			"bufferView":182,
			"componentType":5126,
			"count":1518,
			"type":"VEC4"
		},
		{
			"bufferView":183,
			"componentType":5123,
			"count":1950,
			"type":"SCALAR"
		},
		{
			"bufferView":184,
			"componentType":5126,
			"count":608,
			"max":[
				-0.001999780535697937,
				0.8680000305175781,
				3.8180031776428223
			],
			"min":[
				-1.1979997158050537,
				0.10200002789497375,
				3.3180031776428223
			],
			"type":"VEC3"
		},
		{
			"bufferView":185,
			"componentType":5126,
			"count":608,
			"type":"VEC3"
		},
		{
			"bufferView":186,
			"componentType":5126,
			"count":608,
			"type":"VEC2"
		},
		{
			"bufferView":187,
			"componentType":5126,
			"count":608,
			"type":"VEC4"
		},
		{
			"bufferView":188,
			"componentType":5123,
			"count":792,
			"type":"SCALAR"
		},
		{
			"bufferView":189,
			"componentType":5126,
			"count":828,
			"max":[
				-2.180000066757202,
				2.7119979858398438,
				0.6000000238418579
			],
			"min":[
				-2.760002613067627,
				2.120000123977661,
				5.587935447692871e-09
			],
			"type":"VEC3"
		},
		{
			"bufferView":190,
			"componentType":5126,
			"count":828,
			"type":"VEC3"
		},
		{
			"bufferView":191,
			"componentType":5126,
			"count":828,
			"type":"VEC2"
		},
		{
			"bufferView":192,
			"componentType":5126,
			"count":828,
			"type":"VEC4"
		},
		{
			"bufferView":193,
			"componentType":5123,
			"count":1014,
			"type":"SCALAR"
		},
		{
			"bufferView":194,
			"componentType":5126,
			"count":208,
			"max":[
				-2.1600000858306885,
				2.7099978923797607,
				0.5980000495910645
			],
			"min":[
				-2.177999973297119,
				2.122000217437744,
				0.0019999798387289047
			],
			"type":"VEC3"
		},
		{
			"bufferView":195,
			"componentType":5126,
			"count":208,
			"type":"VEC3"
		},
		{
			"bufferView":196,
			"componentType":5126,
			"count":208,
			"type":"VEC2"
		},
		{
			"bufferView":197,
			"componentType":5126,
			"count":208,
			"type":"VEC4"
		},
		{
			"bufferView":198,
			"componentType":5123,
			"count":264,
			"type":"SCALAR"
		},
		{
			"bufferView":199,
			"componentType":5126,
			"count":420,
			"max":[
				-2.180000066757202,
				2.1200003623962402,
				0.6000000238418579
			],
			"min":[
				-2.760002613067627,
				1.8100028038024902,
				0
			],
			"type":"VEC3"
		},
		{
			"bufferView":200,
			"componentType":5126,
			"count":420,
			"type":"VEC3"
		},
		{
			"bufferView":201,
			"componentType":5126,
			"count":420,
			"type":"VEC2"
		},
		{
			"bufferView":202,
			"componentType":5126,
			"count":420,
			"type":"VEC4"
		},
		{
			"bufferView":203,
			"componentType":5123,
			"count":528,
			"type":"SCALAR"
		},
		{
			"bufferView":204,
			"componentType":5126,
			"count":106,
			"max":[
				-2.1600000858306885,
				2.1180002689361572,
				0.5980000495910645
			],
			"min":[
				-2.177999973297119,
				1.8120027780532837,
				0.0020000000949949026
			],
			"type":"VEC3"
		},
		{
			"bufferView":205,
			"componentType":5126,
			"count":106,
			"type":"VEC3"
		},
		{
			"bufferView":206,
			"componentType":5126,
			"count":106,
			"type":"VEC2"
		},
		{
			"bufferView":207,
			"componentType":5126,
			"count":106,
			"type":"VEC4"
		},
		{
			"bufferView":208,
			"componentType":5123,
			"count":132,
			"type":"SCALAR"
		},
		{
			"bufferView":209,
			"componentType":5126,
			"count":272,
			"max":[
				0.1900000423192978,
				0.800000011920929,
				0.1900000423192978
			],
			"min":[
				-0.18999992311000824,
				0,
				-0.1900000423192978
			],
			"type":"VEC3"
		},
		{
			"bufferView":210,
			"componentType":5126,
			"count":272,
			"type":"VEC3"
		},
		{
			"bufferView":211,
			"componentType":5126,
			"count":272,
			"type":"VEC2"
		},
		{
			"bufferView":212,
			"componentType":5126,
			"count":272,
			"type":"VEC4"
		},
		{
			"bufferView":213,
			"componentType":5123,
			"count":1140,
			"type":"SCALAR"
		},
		{
			"bufferView":214,
			"componentType":5126,
			"count":1179,
			"max":[
				0,
				1.534000039100647,
				0.5180000066757202
			],
			"min":[
				-2.760003089904785,
				1.4839999675750732,
				-2.7939677238464355e-09
			],
			"type":"VEC3"
		},
		{
			"bufferView":215,
			"componentType":5126,
			"count":1179,
			"type":"VEC3"
		},
		{
			"bufferView":216,
			"componentType":5126,
			"count":1179,
			"type":"VEC2"
		},
		{
			"bufferView":217,
			"componentType":5126,
			"count":1179,
			"type":"VEC4"
		},
		{
			"bufferView":218,
			"componentType":5123,
			"count":1515,
			"type":"SCALAR"
		},
		{
			"bufferView":219,
			"componentType":5126,
			"count":61,
			"max":[
				0,
				1.502000093460083,
				0.5
			],
			"min":[
				-2.760003089904785,
				1.5000001192092896,
				0.0014142136787995696
			],
			"type":"VEC3"
		},
		{
			"bufferView":220,
			"componentType":5126,
			"count":61,
			"type":"VEC3"
		},
		{
			"bufferView":221,
			"componentType":5126,
			"count":61,
			"type":"VEC2"
		},
		{
			"bufferView":222,
			"componentType":5126,
			"count":61,
			"type":"VEC4"
		},
		{
			"bufferView":223,
			"componentType":5123,
			"count":69,
			"type":"SCALAR"
		},
		{
			"bufferView":224,
			"componentType":5126,
			"count":1440,
			"max":[
				0.40000009536743164,
				0.010000000707805157,
				8.344999313354492
			],
			"min":[
				-8.960000038146973,
				0,
				-2.000000238418579
			],
			"type":"VEC3"
		},
		{
			"bufferView":225,
			"componentType":5126,
			"count":1440,
			"type":"VEC3"
		},
		{
			"bufferView":226,
			"componentType":5126,
			"count":1440,
			"type":"VEC2"
		},
		{
			"bufferView":227,
			"componentType":5126,
			"count":1440,
			"type":"VEC4"
		},
		{
			"bufferView":228,
			"componentType":5123,
			"count":2616,
			"type":"SCALAR"
		}
	],
	"bufferViews":[
		{
			"buffer":0,
			"byteLength":40968,
			"byteOffset":0,
			"target":34962
		},
		{
			"buffer":0,
			"byteLength":40968,
			"byteOffset":40968,
			"target":34962
		},
		{
			"buffer":0,
			"byteLength":27312,
			"byteOffset":81936,
			"target":34962
		},
		{
			"buffer":0,
			"byteLength":54624,
			"byteOffset":109248,
			"target":34962
		},
		{
			"buffer":0,
			"byteLength":14160,
			"byteOffset":163872,
			"target":34963
		},
		{
			"buffer":0,
			"byteLength":4428,
			"byteOffset":178032,
			"target":34962
		},
		{
			"buffer":0,
			"byteLength":4428,
			"byteOffset":182460,
			"target":34962
		},
		{
			"buffer":0,
			"byteLength":2952,
			"byteOffset":186888,
			"target":34962
		},
		{
			"buffer":0,
			"byteLength":5904,
			"byteOffset":189840,
			"target":34962
		},
		{
			"buffer":0,
			"byteLength":1728,
			"byteOffset":195744,
			"target":34963
		},
		{
			"buffer":0,
			"byteLength":4104,
			"byteOffset":197472,
			"target":34962
		},
		{
			"buffer":0,
			"byteLength":4104,
			"byteOffset":201576,
			"target":34962
		},
		{
			"buffer":0,
			"byteLength":2736,
			"byteOffset":205680,
			"target":34962
		},
		{
			"buffer":0,
			"byteLength":5472,
			"byteOffset":208416,
			"target":34962
		},
		{
			"buffer":0,
			"byteLength":1428,
			"byteOffset":213888,
			"target":34963
		},
		{
			"buffer":0,
			"byteLength":192,
			"byteOffset":215316,
			"target":34962
		},
		{
			"buffer":0,
			"byteLength":192,
			"byteOffset":215508,
			"target":34962
		},
		{
			"buffer":0,
			"byteLength":128,
			"byteOffset":215700,
			"target":34962
		},
		{
			"buffer":0,
			"byteLength":256,
			"byteOffset":215828,
			"target":34962
		},
		{
			"buffer":0,
			"byteLength":48,
			"byteOffset":216084,
			"target":34963
		},
		{
			"buffer":0,
			"byteLength":3168,
			"byteOffset":216132,
			"target":34962
		},
		{
			"buffer":0,
			"byteLength":3168,
			"byteOffset":219300,
			"target":34962
		},
		{
			"buffer":0,
			"byteLength":2112,
			"byteOffset":222468,
			"target":34962
		},
		{
			"buffer":0,
			"byteLength":4224,
			"byteOffset":224580,
			"target":34962
		},
		{
			"buffer":0,
			"byteLength":816,
			"byteOffset":228804,
			"target":34963
		},
		{
			"buffer":0,
			"byteLength":1392,
			"byteOffset":229620,
			"target":34962
		},
		{
			"buffer":0,
			"byteLength":1392,
			"byteOffset":231012,
			"target":34962
		},
		{
			"buffer":0,
			"byteLength":928,
			"byteOffset":232404,
			"target":34962
		},
		{
			"buffer":0,
			"byteLength":1856,
			"byteOffset":233332,
			"target":34962
		},
		{
			"buffer":0,
			"byteLength":264,
			"byteOffset":235188,
			"target":34963
		},
		{
			"buffer":0,
			"byteLength":30600,
			"byteOffset":235452,
			"target":34962
		},
		{
			"buffer":0,
			"byteLength":30600,
			"byteOffset":266052,
			"target":34962
		},
		{
			"buffer":0,
			"byteLength":20400,
			"byteOffset":296652,
			"target":34962
		},
		{
			"buffer":0,
			"byteLength":40800,
			"byteOffset":317052,
			"target":34962
		},
		{
			"buffer":0,
			"byteLength":6252,
			"byteOffset":357852,
			"target":34963
		},
		{
			"buffer":0,
			"byteLength":4968,
			"byteOffset":364104,
			"target":34962
		},
		{
			"buffer":0,
			"byteLength":4968,
			"byteOffset":369072,
			"target":34962
		},
		{
			"buffer":0,
			"byteLength":3312,
			"byteOffset":374040,
			"target":34962
		},
		{
			"buffer":0,
			"byteLength":6624,
			"byteOffset":377352,
			"target":34962
		},
		{
			"buffer":0,
			"byteLength":1056,
			"byteOffset":383976,
			"target":34963
		},
		{
			"buffer":0,
			"byteLength":24552,
			"byteOffset":385032,
			"target":34962
		},
		{
			"buffer":0,
			"byteLength":24552,
			"byteOffset":409584,
			"target":34962
		},
		{
			"buffer":0,
			"byteLength":16368,
			"byteOffset":434136,
			"target":34962
		},
		{
			"buffer":0,
			"byteLength":32736,
			"byteOffset":450504,
			"target":34962
		},
		{
			"buffer":0,
			"byteLength":5136,
			"byteOffset":483240,
			"target":34963
		},
		{
			"buffer":0,
			"byteLength":7068,
			"byteOffset":488376,
			"target":34962
		},
		{
			"buffer":0,
			"byteLength":7068,
			"byteOffset":495444,
			"target":34962
		},
		{
			"buffer":0,
			"byteLength":4712,
			"byteOffset":502512,
			"target":34962
		},
		{
			"buffer":0,
			"byteLength":9424,
			"byteOffset":507224,
			"target":34962
		},
		{
			"buffer":0,
			"byteLength":1536,
			"byteOffset":516648,
			"target":34963
		},
		{
			"buffer":0,
			"byteLength":17520,
			"byteOffset":518184,
			"target":34962
		},
		{
			"buffer":0,
			"byteLength":17520,
			"byteOffset":535704,
			"target":34962
		},
		{
			"buffer":0,
			"byteLength":11680,
			"byteOffset":553224,
			"target":34962
		},
		{
			"buffer":0,
			"byteLength":23360,
			"byteOffset":564904,
			"target":34962
		},
		{
			"buffer":0,
			"byteLength":3720,
			"byteOffset":588264,
			"target":34963
		},
		{
			"buffer":0,
			"byteLength":5400,
			"byteOffset":591984,
			"target":34962
		},
		{
			"buffer":0,
			"byteLength":5400,
			"byteOffset":597384,
			"target":34962
		},
		{
			"buffer":0,
			"byteLength":3600,
			"byteOffset":602784,
			"target":34962
		},
		{
			"buffer":0,
			"byteLength":7200,
			"byteOffset":606384,
			"target":34962
		},
		{
			"buffer":0,
			"byteLength":1056,
			"byteOffset":613584,
			"target":34963
		},
		{
			"buffer":0,
			"byteLength":3888,
			"byteOffset":614640,
			"target":34962
		},
		{
			"buffer":0,
			"byteLength":3888,
			"byteOffset":618528,
			"target":34962
		},
		{
			"buffer":0,
			"byteLength":2592,
			"byteOffset":622416,
			"target":34962
		},
		{
			"buffer":0,
			"byteLength":5184,
			"byteOffset":625008,
			"target":34962
		},
		{
			"buffer":0,
			"byteLength":792,
			"byteOffset":630192,
			"target":34963
		},
		{
			"buffer":0,
			"byteLength":1392,
			"byteOffset":630984,
			"target":34962
		},
		{
			"buffer":0,
			"byteLength":1392,
			"byteOffset":632376,
			"target":34962
		},
		{
			"buffer":0,
			"byteLength":928,
			"byteOffset":633768,
			"target":34962
		},
		{
			"buffer":0,
			"byteLength":1856,
			"byteOffset":634696,
			"target":34962
		},
		{
			"buffer":0,
			"byteLength":264,
			"byteOffset":636552,
			"target":34963
		},
		{
			"buffer":0,
			"byteLength":8640,
			"byteOffset":636816,
			"target":34962
		},
		{
			"buffer":0,
			"byteLength":8640,
			"byteOffset":645456,
			"target":34962
		},
		{
			"buffer":0,
			"byteLength":5760,
			"byteOffset":654096,
			"target":34962
		},
		{
			"buffer":0,
			"byteLength":11520,
			"byteOffset":659856,
			"target":34962
		},
		{
			"buffer":0,
			"byteLength":2136,
			"byteOffset":671376,
			"target":34963
		},
		{
			"buffer":0,
			"byteLength":2520,
			"byteOffset":673512,
			"target":34962
		},
		{
			"buffer":0,
			"byteLength":2520,
			"byteOffset":676032,
			"target":34962
		},
		{
			"buffer":0,
			"byteLength":1680,
			"byteOffset":678552,
			"target":34962
		},
		{
			"buffer":0,
			"byteLength":3360,
			"byteOffset":680232,
			"target":34962
		},
		{
			"buffer":0,
			"byteLength":528,
			"byteOffset":683592,
			"target":34963
		},
		{
			"buffer":0,
			"byteLength":8460,
			"byteOffset":684120,
			"target":34962
		},
		{
			"buffer":0,
			"byteLength":8460,
			"byteOffset":692580,
			"target":34962
		},
		{
			"buffer":0,
			"byteLength":5640,
			"byteOffset":701040,
			"target":34962
		},
		{
			"buffer":0,
			"byteLength":11280,
			"byteOffset":706680,
			"target":34962
		},
		{
			"buffer":0,
			"byteLength":2124,
			"byteOffset":717960,
			"target":34963
		},
		{
			"buffer":0,
			"byteLength":2304,
			"byteOffset":720084,
			"target":34962
		},
		{
			"buffer":0,
			"byteLength":2304,
			"byteOffset":722388,
			"target":34962
		},
		{
			"buffer":0,
			"byteLength":1536,
			"byteOffset":724692,
			"target":34962
		},
		{
			"buffer":0,
			"byteLength":3072,
			"byteOffset":726228,
			"target":34962
		},
		{
			"buffer":0,
			"byteLength":528,
			"byteOffset":729300,
			"target":34963
		},
		{
			"buffer":0,
			"byteLength":8256,
			"byteOffset":729828,
			"target":34962
		},
		{
			"buffer":0,
			"byteLength":8256,
			"byteOffset":738084,
			"target":34962
		},
		{
			"buffer":0,
			"byteLength":5504,
			"byteOffset":746340,
			"target":34962
		},
		{
			"buffer":0,
			"byteLength":11008,
			"byteOffset":751844,
			"target":34962
		},
		{
			"buffer":0,
			"byteLength":2136,
			"byteOffset":762852,
			"target":34963
		},
		{
			"buffer":0,
			"byteLength":2400,
			"byteOffset":764988,
			"target":34962
		},
		{
			"buffer":0,
			"byteLength":2400,
			"byteOffset":767388,
			"target":34962
		},
		{
			"buffer":0,
			"byteLength":1600,
			"byteOffset":769788,
			"target":34962
		},
		{
			"buffer":0,
			"byteLength":3200,
			"byteOffset":771388,
			"target":34962
		},
		{
			"buffer":0,
			"byteLength":528,
			"byteOffset":774588,
			"target":34963
		},
		{
			"buffer":0,
			"byteLength":1152,
			"byteOffset":775116,
			"target":34962
		},
		{
			"buffer":0,
			"byteLength":1152,
			"byteOffset":776268,
			"target":34962
		},
		{
			"buffer":0,
			"byteLength":768,
			"byteOffset":777420,
			"target":34962
		},
		{
			"buffer":0,
			"byteLength":1536,
			"byteOffset":778188,
			"target":34962
		},
		{
			"buffer":0,
			"byteLength":264,
			"byteOffset":779724,
			"target":34963
		},
		{
			"buffer":0,
			"byteLength":1176,
			"byteOffset":779988,
			"target":34962
		},
		{
			"buffer":0,
			"byteLength":1176,
			"byteOffset":781164,
			"target":34962
		},
		{
			"buffer":0,
			"byteLength":784,
			"byteOffset":782340,
			"target":34962
		},
		{
			"buffer":0,
			"byteLength":1568,
			"byteOffset":783124,
			"target":34962
		},
		{
			"buffer":0,
			"byteLength":264,
			"byteOffset":784692,
			"target":34963
		},
		{
			"buffer":0,
			"byteLength":8064,
			"byteOffset":784956,
			"target":34962
		},
		{
			"buffer":0,
			"byteLength":8064,
			"byteOffset":793020,
			"target":34962
		},
		{
			"buffer":0,
			"byteLength":5376,
			"byteOffset":801084,
			"target":34962
		},
		{
			"buffer":0,
			"byteLength":10752,
			"byteOffset":806460,
			"target":34962
		},
		{
			"buffer":0,
			"byteLength":1920,
			"byteOffset":817212,
			"target":34963
		},
		{
			"buffer":0,
			"byteLength":1200,
			"byteOffset":819132,
			"target":34962
		},
		{
			"buffer":0,
			"byteLength":1200,
			"byteOffset":820332,
			"target":34962
		},
		{
			"buffer":0,
			"byteLength":800,
			"byteOffset":821532,
			"target":34962
		},
		{
			"buffer":0,
			"byteLength":1600,
			"byteOffset":822332,
			"target":34962
		},
		{
			"buffer":0,
			"byteLength":264,
			"byteOffset":823932,
			"target":34963
		},
		{
			"buffer":0,
			"byteLength":8520,
			"byteOffset":824196,
			"target":34962
		},
		{
			"buffer":0,
			"byteLength":8520,
			"byteOffset":832716,
			"target":34962
		},
		{
			"buffer":0,
			"byteLength":5680,
			"byteOffset":841236,
			"target":34962
		},
		{
			"buffer":0,
			"byteLength":11360,
			"byteOffset":846916,
			"target":34962
		},
		{
			"buffer":0,
			"byteLength":2232,
			"byteOffset":858276,
			"target":34963
		},
		{
			"buffer":0,
			"byteLength":3552,
			"byteOffset":860508,
			"target":34962
		},
		{
			"buffer":0,
			"byteLength":3552,
			"byteOffset":864060,
			"target":34962
		},
		{
			"buffer":0,
			"byteLength":2368,
			"byteOffset":867612,
			"target":34962
		},
		{
			"buffer":0,
			"byteLength":4736,
			"byteOffset":869980,
			"target":34962
		},
		{
			"buffer":0,
			"byteLength":792,
			"byteOffset":874716,
			"target":34963
		},
		{
			"buffer":0,
			"byteLength":3636,
			"byteOffset":875508,
			"target":34962
		},
		{
			"buffer":0,
			"byteLength":3636,
			"byteOffset":879144,
			"target":34962
		},
		{
			"buffer":0,
			"byteLength":2424,
			"byteOffset":882780,
			"target":34962
		},
		{
			"buffer":0,
			"byteLength":4848,
			"byteOffset":885204,
			"target":34962
		},
		{
			"buffer":0,
			"byteLength":930,
			"byteOffset":890052,
			"target":34963
		},
		{
			"buffer":0,
			"byteLength":11448,
			"byteOffset":890984,
			"target":34962
		},
		{
			"buffer":0,
			"byteLength":11448,
			"byteOffset":902432,
			"target":34962
		},
		{
			"buffer":0,
			"byteLength":7632,
			"byteOffset":913880,
			"target":34962
		},
		{
			"buffer":0,
			"byteLength":15264,
			"byteOffset":921512,
			"target":34962
		},
		{
			"buffer":0,
			"byteLength":2712,
			"byteOffset":936776,
			"target":34963
		},
		{
			"buffer":0,
			"byteLength":2568,
			"byteOffset":939488,
			"target":34962
		},
		{
			"buffer":0,
			"byteLength":2568,
			"byteOffset":942056,
			"target":34962
		},
		{
			"buffer":0,
			"byteLength":1712,
			"byteOffset":944624,
			"target":34962
		},
		{
			"buffer":0,
			"byteLength":3424,
			"byteOffset":946336,
			"target":34962
		},
		{
			"buffer":0,
			"byteLength":528,
			"byteOffset":949760,
			"target":34963
		},
		{
			"buffer":0,
			"byteLength":4104,
			"byteOffset":950288,
			"target":34962
		},
		{
			"buffer":0,
			"byteLength":4104,
			"byteOffset":954392,
			"target":34962
		},
		{
			"buffer":0,
			"byteLength":2736,
			"byteOffset":958496,
			"target":34962
		},
		{
			"buffer":0,
			"byteLength":5472,
			"byteOffset":961232,
			"target":34962
		},
		{
			"buffer":0,
			"byteLength":1428,
			"byteOffset":966704,
			"target":34963
		},
		{
			"buffer":0,
			"byteLength":192,
			"byteOffset":968132,
			"target":34962
		},
		{
			"buffer":0,
			"byteLength":192,
			"byteOffset":968324,
			"target":34962
		},
		{
			"buffer":0,
			"byteLength":128,
			"byteOffset":968516,
			"target":34962
		},
		{
			"buffer":0,
			"byteLength":256,
			"byteOffset":968644,
			"target":34962
		},
		{
			"buffer":0,
			"byteLength":8208,
			"byteOffset":968900,
			"target":34962
		},
		{
			"buffer":0,
			"byteLength":8208,
			"byteOffset":977108,
			"target":34962
		},
		{
			"buffer":0,
			"byteLength":5472,
			"byteOffset":985316,
			"target":34962
		},
		{
			"buffer":0,
			"byteLength":10944,
			"byteOffset":990788,
			"target":34962
		},
		{
			"buffer":0,
			"byteLength":2784,
			"byteOffset":1001732,
			"target":34963
		},
		{
			"buffer":0,
			"byteLength":624,
			"byteOffset":1004516,
			"target":34962
		},
		{
			"buffer":0,
			"byteLength":624,
			"byteOffset":1005140,
			"target":34962
		},
		{
			"buffer":0,
			"byteLength":416,
			"byteOffset":1005764,
			"target":34962
		},
		{
			"buffer":0,
			"byteLength":832,
			"byteOffset":1006180,
			"target":34962
		},
		{
			"buffer":0,
			"byteLength":156,
			"byteOffset":1007012,
			"target":34963
		},
		{
			"buffer":0,
			"byteLength":2520,
			"byteOffset":1007168,
			"target":34962
		},
		{
			"buffer":0,
			"byteLength":2520,
			"byteOffset":1009688,
			"target":34962
		},
		{
			"buffer":0,
			"byteLength":1680,
			"byteOffset":1012208,
			"target":34962
		},
		{
			"buffer":0,
			"byteLength":3360,
			"byteOffset":1013888,
			"target":34962
		},
		{
			"buffer":0,
			"byteLength":528,
			"byteOffset":1017248,
			"target":34963
		},
		{
			"buffer":0,
			"byteLength":5784,
			"byteOffset":1017776,
			"target":34962
		},
		{
			"buffer":0,
			"byteLength":5784,
			"byteOffset":1023560,
			"target":34962
		},
		{
			"buffer":0,
			"byteLength":3856,
			"byteOffset":1029344,
			"target":34962
		},
		{
			"buffer":0,
			"byteLength":7712,
			"byteOffset":1033200,
			"target":34962
		},
		{
			"buffer":0,
			"byteLength":1260,
			"byteOffset":1040912,
			"target":34963
		},
		{
			"buffer":0,
			"byteLength":2496,
			"byteOffset":1042172,
			"target":34962
		},
		{
			"buffer":0,
			"byteLength":2496,
			"byteOffset":1044668,
			"target":34962
		},
		{
			"buffer":0,
			"byteLength":1664,
			"byteOffset":1047164,
			"target":34962
		},
		{
			"buffer":0,
			"byteLength":3328,
			"byteOffset":1048828,
			"target":34962
		},
		{
			"buffer":0,
			"byteLength":528,
			"byteOffset":1052156,
			"target":34963
		},
		{
			"buffer":0,
			"byteLength":18216,
			"byteOffset":1052684,
			"target":34962
		},
		{
			"buffer":0,
			"byteLength":18216,
			"byteOffset":1070900,
			"target":34962
		},
		{
			"buffer":0,
			"byteLength":12144,
			"byteOffset":1089116,
			"target":34962
		},
		{
			"buffer":0,
			"byteLength":24288,
			"byteOffset":1101260,
			"target":34962
		},
		{
			"buffer":0,
			"byteLength":3900,
			"byteOffset":1125548,
			"target":34963
		},
		{
			"buffer":0,
			"byteLength":7296,
			"byteOffset":1129448,
			"target":34962
		},
		{
			"buffer":0,
			"byteLength":7296,
			"byteOffset":1136744,
			"target":34962
		},
		{
			"buffer":0,
			"byteLength":4864,
			"byteOffset":1144040,
			"target":34962
		},
		{
			"buffer":0,
			"byteLength":9728,
			"byteOffset":1148904,
			"target":34962
		},
		{
			"buffer":0,
			"byteLength":1584,
			"byteOffset":1158632,
			"target":34963
		},
		{
			"buffer":0,
			"byteLength":9936,
			"byteOffset":1160216,
			"target":34962
		},
		{
			"buffer":0,
			"byteLength":9936,
			"byteOffset":1170152,
			"target":34962
		},
		{
			"buffer":0,
			"byteLength":6624,
			"byteOffset":1180088,
			"target":34962
		},
		{
			"buffer":0,
			"byteLength":13248,
			"byteOffset":1186712,
			"target":34962
		},
		{
			"buffer":0,
			"byteLength":2028,
			"byteOffset":1199960,
			"target":34963
		},
		{
			"buffer":0,
			"byteLength":2496,
			"byteOffset":1201988,
			"target":34962
		},
		{
			"buffer":0,
			"byteLength":2496,
			"byteOffset":1204484,
			"target":34962
		},
		{
			"buffer":0,
			"byteLength":1664,
			"byteOffset":1206980,
			"target":34962
		},
		{
			"buffer":0,
			"byteLength":3328,
			"byteOffset":1208644,
			"target":34962
		},
		{
			"buffer":0,
			"byteLength":528,
			"byteOffset":1211972,
			"target":34963
		},
		{
			"buffer":0,
			"byteLength":5040,
			"byteOffset":1212500,
			"target":34962
		},
		{
			"buffer":0,
			"byteLength":5040,
			"byteOffset":1217540,
			"target":34962
		},
		{
			"buffer":0,
			"byteLength":3360,
			"byteOffset":1222580,
			"target":34962
		},
		{
			"buffer":0,
			"byteLength":6720,
			"byteOffset":1225940,
			"target":34962
		},
		{
			"buffer":0,
			"byteLength":1056,
			"byteOffset":1232660,
			"target":34963
		},
		{
			"buffer":0,
			"byteLength":1272,
			"byteOffset":1233716,
			"target":34962
		},
		{
			"buffer":0,
			"byteLength":1272,
			"byteOffset":1234988,
			"target":34962
		},
		{
			"buffer":0,
			"byteLength":848,
			"byteOffset":1236260,
			"target":34962
		},
		{
			"buffer":0,
			"byteLength":1696,
			"byteOffset":1237108,
			"target":34962
		},
		{
			"buffer":0,
			"byteLength":264,
			"byteOffset":1238804,
			"target":34963
		},
		{
			"buffer":0,
			"byteLength":3264,
			"byteOffset":1239068,
			"target":34962
		},
		{
			"buffer":0,
			"byteLength":3264,
			"byteOffset":1242332,
			"target":34962
		},
		{
			"buffer":0,
			"byteLength":2176,
			"byteOffset":1245596,
			"target":34962
		},
		{
			"buffer":0,
			"byteLength":4352,
			"byteOffset":1247772,
			"target":34962
		},
		{
			"buffer":0,
			"byteLength":2280,
			"byteOffset":1252124,
			"target":34963
		},
		{
			"buffer":0,
			"byteLength":14148,
			"byteOffset":1254404,
			"target":34962
		},
		{
			"buffer":0,
			"byteLength":14148,
			"byteOffset":1268552,
			"target":34962
		},
		{
			"buffer":0,
			"byteLength":9432,
			"byteOffset":1282700,
			"target":34962
		},
		{
			"buffer":0,
			"byteLength":18864,
			"byteOffset":1292132,
			"target":34962
		},
		{
			"buffer":0,
			"byteLength":3030,
			"byteOffset":1310996,
			"target":34963
		},
		{
			"buffer":0,
			"byteLength":732,
			"byteOffset":1314028,
			"target":34962
		},
		{
			"buffer":0,
			"byteLength":732,
			"byteOffset":1314760,
			"target":34962
		},
		{
			"buffer":0,
			"byteLength":488,
			"byteOffset":1315492,
			"target":34962
		},
		{
			"buffer":0,
			"byteLength":976,
			"byteOffset":1315980,
			"target":34962
		},
		{
			"buffer":0,
			"byteLength":138,
			"byteOffset":1316956,
			"target":34963
		},
		{
			"buffer":0,
			"byteLength":17280,
			"byteOffset":1317096,
			"target":34962
		},
		{
			"buffer":0,
			"byteLength":17280,
			"byteOffset":1334376,
			"target":34962
		},
		{
			"buffer":0,
			"byteLength":11520,
			"byteOffset":1351656,
			"target":34962
		},
		{
			"buffer":0,
			"byteLength":23040,
			"byteOffset":1363176,
			"target":34962
		},
		{
			"buffer":0,
			"byteLength":5232,
			"byteOffset":1386216,
			"target":34963
		}
	],
	"buffers":[
		{
			"byteLength":1391448,
			"uri":"Krakow.bin"
		}
	]
}
