{
	"asset":{
		"generator":"Khronos glTF Blender I/O v5.0.21",
		"version":"2.0"
	},
	"scene":0,
	"scenes":[
		{
			"name":"Scene",
			"nodes":[
				0
			]
		}
	],
	"nodes":[
		{
			"mesh":0,
			"name":"Capsule"
		}
	],
	"materials":[
		{
			"doubleSided":true,
			"name":"Capsule",
			"pbrMetallicRoughness":{
				"baseColorFactor":[
					0.800000011920929,
					0.800000011920929,
					0.800000011920929,
					1
				],
				"metallicFactor":0,
				"roughnessFactor":0.5
			}
		}
	],
	"meshes":[
		{
			"name":"Capsule",
			"primitives":[
				{
					"attributes":{
						"POSITION":0,
						"NORMAL":1,
						"TEXCOORD_0":2,
						"TANGENT":3
					},
					"indices":4,
					"material":0
				}
			]
		}
	],
	"accessors":[
		{
			"bufferView":0,
			"componentType":5126,
			"count":1056,
			"max":[
				0.5,
				1,
				0.5
			],
			"min":[
				-0.4999999701976776,
				-1,
				-0.4999999701976776
			],
			"type":"VEC3"
		},
		{
			"bufferView":1,
			"componentType":5126,
			"count":1056,
			"type":"VEC3"
		},
		{
			"bufferView":2,
			"componentType":5126,
			"count":1056,
			"type":"VEC2"
		},
		{
			"bufferView":3,
			"componentType":5126,
			"count":1056,
			"type":"VEC4"
		},
		{
			"bufferView":4,
			"componentType":5123,
			"count":1536,
			"type":"SCALAR"
		}
	],
	"bufferViews":[
		{
			"buffer":0,
			"byteLength":12672,
			"byteOffset":0,
			"target":34962
		},
		{
			"buffer":0,
			"byteLength":12672,
			"byteOffset":12672,
			"target":34962
		},
		{
			"buffer":0,
			"byteLength":8448,
			"byteOffset":25344,
			"target":34962
		},
		{
			"buffer":0,
			"byteLength":16896,
			"byteOffset":33792,
			"target":34962
		},
		{
			"buffer":0,
			"byteLength":3072,
			"byteOffset":50688,
			"target":34963
		}
	],
	"buffers":[
		{
			"byteLength":53760,
			"uri":"Capsule.bin"
		}
	]
}
