{
	"asset":{
		"generator":"Khronos glTF Blender I/O v4.5.48",
		"version":"2.0"
	},
	"extensionsUsed":[
		"KHR_materials_specular",
		"KHR_materials_ior"
	],
	"scene":0,
	"scenes":[
		{
			"name":"Scene",
			"nodes":[
				0,
				1,
				2,
				3,
				4,
				5,
				6
			]
		}
	],
	"nodes":[
		{
			"mesh":0,
			"name":"Plane"
		},
		{
			"mesh":1,
			"name":"Plane.001"
		},
		{
			"mesh":2,
			"name":"Plane.003"
		},
		{
			"mesh":3,
			"name":"Plane.019"
		},
		{
			"mesh":4,
			"name":"Plane.030"
		},
		{
			"mesh":5,
			"name":"Plane.031"
		},
		{
			"mesh":6,
			"name":"Plane.002"
		}
	],
	"materials":[
		{
			"doubleSided":true,
			"name":"White",
			"pbrMetallicRoughness":{
				"metallicFactor":0,
				"roughnessFactor":0.5
			}
		},
		{
			"doubleSided":true,
			"name":"Beige",
			"pbrMetallicRoughness":{
				"baseColorFactor":[
					1,
					0.7104436159133911,
					0.031236063688993454,
					1
				],
				"metallicFactor":0
			}
		},
		{
			"doubleSided":true,
			"name":"Floor",
			"pbrMetallicRoughness":{
				"metallicFactor":0,
				"roughnessFactor":0.5
			}
		},
		{
			"doubleSided":true,
			"name":"Tiles",
			"pbrMetallicRoughness":{
				"metallicFactor":0,
				"roughnessFactor":0.5
			}
		},
		{
			"doubleSided":true,
			"name":"Wall S",
			"pbrMetallicRoughness":{
				"baseColorFactor":[
					0.8001194596290588,
					0.0014881114475429058,
					0,
					1
				],
				"metallicFactor":0,
				"roughnessFactor":0.5
			}
		},
		{
			"doubleSided":true,
			"name":"Wall E",
			"pbrMetallicRoughness":{
				"baseColorFactor":[
					0.004477191716432571,
					0,
					0.8001810312271118,
					1
				],
				"metallicFactor":0,
				"roughnessFactor":0.5
			}
		},
		{
			"doubleSided":true,
			"name":"Wall N",
			"pbrMetallicRoughness":{
				"baseColorFactor":[
					0.1122923269867897,
					0.8000229597091675,
					0.7236266732215881,
					1
				],
				"metallicFactor":0,
				"roughnessFactor":0.5
			}
		},
		{
			"doubleSided":true,
			"name":"Wall W",
			"pbrMetallicRoughness":{
				"baseColorFactor":[
					0.8000156879425049,
					0.028105314821004868,
					0.6690178513526917,
					1
				],
				"metallicFactor":0,
				"roughnessFactor":0.5
			}
		},
		{
			"doubleSided":true,
			"name":"Wall K",
			"pbrMetallicRoughness":{
				"baseColorFactor":[
					0.800054669380188,
					0.477996826171875,
					0.571857213973999,
					1
				],
				"metallicFactor":0,
				"roughnessFactor":0.5
			}
		},
		{
			"doubleSided":true,
			"name":"Wall K S",
			"pbrMetallicRoughness":{
				"baseColorFactor":[
					0.05115564167499542,
					0.800039529800415,
					0.03507455438375473,
					1
				],
				"metallicFactor":0,
				"roughnessFactor":0.5
			}
		},
		{
			"doubleSided":true,
			"name":"Wall K S 2",
			"pbrMetallicRoughness":{
				"baseColorFactor":[
					0.06256221979856491,
					0.800782322883606,
					0.7430431842803955,
					1
				],
				"metallicFactor":0,
				"roughnessFactor":0.5
			}
		},
		{
			"doubleSided":true,
			"name":"Wall K S 3",
			"pbrMetallicRoughness":{
				"baseColorFactor":[
					0.8007433414459229,
					0.08710018545389175,
					0.7364822626113892,
					1
				],
				"metallicFactor":0,
				"roughnessFactor":0.5
			}
		},
		{
			"doubleSided":true,
			"name":"Wall K S 4",
			"pbrMetallicRoughness":{
				"baseColorFactor":[
					0.13259248435497284,
					0.3059481084346771,
					0.8001416921615601,
					1
				],
				"metallicFactor":0,
				"roughnessFactor":0.5
			}
		},
		{
			"doubleSided":true,
			"name":"Wall K W",
			"pbrMetallicRoughness":{
				"baseColorFactor":[
					0.20862288773059845,
					0.8000074625015259,
					0.6331486701965332,
					1
				],
				"metallicFactor":0,
				"roughnessFactor":0.5
			}
		},
		{
			"doubleSided":true,
			"name":"Wall K 2",
			"pbrMetallicRoughness":{
				"baseColorFactor":[
					0.800000011920929,
					0.800000011920929,
					0.800000011920929,
					1
				],
				"metallicFactor":0,
				"roughnessFactor":0.5
			}
		},
		{
			"doubleSided":true,
			"name":"Gold",
			"pbrMetallicRoughness":{
				"baseColorFactor":[
					0.800000011920929,
					0.800000011920929,
					0.800000011920929,
					1
				],
				"metallicFactor":0,
				"roughnessFactor":0.5
			}
		},
		{
			"doubleSided":true,
			"name":"Bedroom S",
			"pbrMetallicRoughness":{
				"baseColorFactor":[
					0.8000785112380981,
					0,
					0.004711357410997152,
					1
				],
				"metallicFactor":0,
				"roughnessFactor":0.5
			}
		},
		{
			"doubleSided":true,
			"name":"Bedroom E",
			"pbrMetallicRoughness":{
				"baseColorFactor":[
					0.02199424058198929,
					0.8002911806106567,
					0,
					1
				],
				"metallicFactor":0,
				"roughnessFactor":0.5
			}
		},
		{
			"doubleSided":true,
			"name":"Bedroom N",
			"pbrMetallicRoughness":{
				"baseColorFactor":[
					0.0018456352408975363,
					0,
					0.8002276420593262,
					1
				],
				"metallicFactor":0,
				"roughnessFactor":0.5
			}
		},
		{
			"doubleSided":true,
			"name":"Bedroom W",
			"pbrMetallicRoughness":{
				"baseColorFactor":[
					0.8004492521286011,
					0.4778129458427429,
					0,
					1
				],
				"metallicFactor":0,
				"roughnessFactor":0.5
			}
		},
		{
			"doubleSided":true,
			"name":"Walnut",
			"pbrMetallicRoughness":{
				"metallicFactor":0,
				"roughnessFactor":0.5
			}
		},
		{
			"doubleSided":true,
			"name":"Plastic",
			"pbrMetallicRoughness":{
				"metallicFactor":0,
				"roughnessFactor":0.5
			}
		},
		{
			"alphaMode":"BLEND",
			"doubleSided":true,
			"extensions":{
				"KHR_materials_specular":{
					"specularFactor":0
				},
				"KHR_materials_ior":{
					"ior":1.4500000476837158
				}
			},
			"name":"Glass",
			"pbrMetallicRoughness":{
				"baseColorFactor":[
					1,
					1,
					1,
					0.10000000149011612
				],
				"metallicFactor":0,
				"roughnessFactor":0
			}
		},
		{
			"doubleSided":true,
			"name":"Black",
			"pbrMetallicRoughness":{
				"baseColorFactor":[
					0,
					0,
					0,
					1
				],
				"metallicFactor":0,
				"roughnessFactor":0.5
			}
		},
		{
			"doubleSided":true,
			"name":"White Glossy",
			"pbrMetallicRoughness":{
				"baseColorFactor":[
					0.800000011920929,
					0.800000011920929,
					0.800000011920929,
					1
				],
				"metallicFactor":0.5,
				"roughnessFactor":0.25
			}
		}
	],
	"meshes":[
		{
			"name":"Plane",
			"primitives":[
				{
					"attributes":{
						"POSITION":0,
						"NORMAL":1,
						"TEXCOORD_0":2,
						"TANGENT":3
					},
					"indices":4,
					"material":0
				},
				{
					"attributes":{
						"POSITION":0,
						"NORMAL":1,
						"TEXCOORD_0":2,
						"TANGENT":3
					},
					"indices":5,
					"material":1
				},
				{
					"attributes":{
						"POSITION":0,
						"NORMAL":1,
						"TEXCOORD_0":2,
						"TANGENT":3
					},
					"indices":6,
					"material":2
				},
				{
					"attributes":{
						"POSITION":0,
						"NORMAL":1,
						"TEXCOORD_0":2,
						"TANGENT":3
					},
					"indices":7,
					"material":3
				},
				{
					"attributes":{
						"POSITION":0,
						"NORMAL":1,
						"TEXCOORD_0":2,
						"TANGENT":3
					},
					"indices":8,
					"material":4
				},
				{
					"attributes":{
						"POSITION":0,
						"NORMAL":1,
						"TEXCOORD_0":2,
						"TANGENT":3
					},
					"indices":9,
					"material":5
				},
				{
					"attributes":{
						"POSITION":0,
						"NORMAL":1,
						"TEXCOORD_0":2,
						"TANGENT":3
					},
					"indices":10,
					"material":6
				},
				{
					"attributes":{
						"POSITION":0,
						"NORMAL":1,
						"TEXCOORD_0":2,
						"TANGENT":3
					},
					"indices":11,
					"material":7
				},
				{
					"attributes":{
						"POSITION":0,
						"NORMAL":1,
						"TEXCOORD_0":2,
						"TANGENT":3
					},
					"indices":12,
					"material":8
				},
				{
					"attributes":{
						"POSITION":0,
						"NORMAL":1,
						"TEXCOORD_0":2,
						"TANGENT":3
					},
					"indices":13,
					"material":9
				},
				{
					"attributes":{
						"POSITION":0,
						"NORMAL":1,
						"TEXCOORD_0":2,
						"TANGENT":3
					},
					"indices":14,
					"material":10
				},
				{
					"attributes":{
						"POSITION":0,
						"NORMAL":1,
						"TEXCOORD_0":2,
						"TANGENT":3
					},
					"indices":15,
					"material":11
				},
				{
					"attributes":{
						"POSITION":0,
						"NORMAL":1,
						"TEXCOORD_0":2,
						"TANGENT":3
					},
					"indices":16,
					"material":12
				},
				{
					"attributes":{
						"POSITION":0,
						"NORMAL":1,
						"TEXCOORD_0":2,
						"TANGENT":3
					},
					"indices":17,
					"material":13
				},
				{
					"attributes":{
						"POSITION":0,
						"NORMAL":1,
						"TEXCOORD_0":2,
						"TANGENT":3
					},
					"indices":18,
					"material":14
				},
				{
					"attributes":{
						"POSITION":0,
						"NORMAL":1,
						"TEXCOORD_0":2,
						"TANGENT":3
					},
					"indices":19,
					"material":15
				},
				{
					"attributes":{
						"POSITION":0,
						"NORMAL":1,
						"TEXCOORD_0":2,
						"TANGENT":3
					},
					"indices":20,
					"material":16
				},
				{
					"attributes":{
						"POSITION":0,
						"NORMAL":1,
						"TEXCOORD_0":2,
						"TANGENT":3
					},
					"indices":21,
					"material":17
				},
				{
					"attributes":{
						"POSITION":0,
						"NORMAL":1,
						"TEXCOORD_0":2,
						"TANGENT":3
					},
					"indices":22,
					"material":18
				},
				{
					"attributes":{
						"POSITION":0,
						"NORMAL":1,
						"TEXCOORD_0":2,
						"TANGENT":3
					},
					"indices":23,
					"material":19
				}
			]
		},
		{
			"name":"Plane.001",
			"primitives":[
				{
					"attributes":{
						"POSITION":24,
						"NORMAL":25,
						"TEXCOORD_0":26,
						"TANGENT":27
					},
					"indices":28,
					"material":20
				}
			]
		},
		{
			"name":"Plane.003",
			"primitives":[
				{
					"attributes":{
						"POSITION":29,
						"NORMAL":30,
						"TEXCOORD_0":31,
						"TANGENT":32
					},
					"indices":33,
					"material":21
				},
				{
					"attributes":{
						"POSITION":29,
						"NORMAL":30,
						"TEXCOORD_0":31,
						"TANGENT":32
					},
					"indices":34,
					"material":22
				}
			]
		},
		{
			"name":"Plane.022",
			"primitives":[
				{
					"attributes":{
						"POSITION":35,
						"NORMAL":36,
						"TEXCOORD_0":37,
						"TANGENT":38
					},
					"indices":39,
					"material":23
				},
				{
					"attributes":{
						"POSITION":35,
						"NORMAL":36,
						"TEXCOORD_0":37,
						"TANGENT":38
					},
					"indices":40,
					"material":21
				}
			]
		},
		{
			"name":"Plane.032",
			"primitives":[
				{
					"attributes":{
						"POSITION":41,
						"NORMAL":42,
						"TEXCOORD_0":43,
						"TANGENT":44
					},
					"indices":45,
					"material":24
				}
			]
		},
		{
			"name":"Plane.034",
			"primitives":[
				{
					"attributes":{
						"POSITION":46,
						"NORMAL":47,
						"TEXCOORD_0":48,
						"TANGENT":49
					},
					"indices":50,
					"material":21
				}
			]
		},
		{
			"name":"Plane.005",
			"primitives":[
				{
					"attributes":{
						"POSITION":51,
						"NORMAL":52,
						"TEXCOORD_0":53,
						"TANGENT":54
					},
					"indices":55,
					"material":21
				},
				{
					"attributes":{
						"POSITION":51,
						"NORMAL":52,
						"TEXCOORD_0":53,
						"TANGENT":54
					},
					"indices":56,
					"material":22
				}
			]
		}
	],
	"accessors":[
		{
			"bufferView":0,
			"componentType":5126,
			"count":1817,
			"max":[
				5.837500095367432,
				2.750000238418579,
				2.200000524520874
			],
			"min":[
				-4.887501239776611,
				-0.30000001192092896,
				-5.78000020980835
			],
			"type":"VEC3"
		},
		{
			"bufferView":1,
			"componentType":5126,
			"count":1817,
			"type":"VEC3"
		},
		{
			"bufferView":2,
			"componentType":5126,
			"count":1817,
			"type":"VEC2"
		},
		{
			"bufferView":3,
			"componentType":5126,
			"count":1817,
			"type":"VEC4"
		},
		{
			"bufferView":4,
			"componentType":5123,
			"count":2202,
			"type":"SCALAR"
		},
		{
			"bufferView":5,
			"componentType":5123,
			"count":810,
			"type":"SCALAR"
		},
		{
			"bufferView":6,
			"componentType":5123,
			"count":243,
			"type":"SCALAR"
		},
		{
			"bufferView":7,
			"componentType":5123,
			"count":1233,
			"type":"SCALAR"
		},
		{
			"bufferView":8,
			"componentType":5123,
			"count":72,
			"type":"SCALAR"
		},
		{
			"bufferView":9,
			"componentType":5123,
			"count":402,
			"type":"SCALAR"
		},
		{
			"bufferView":10,
			"componentType":5123,
			"count":96,
			"type":"SCALAR"
		},
		{
			"bufferView":11,
			"componentType":5123,
			"count":120,
			"type":"SCALAR"
		},
		{
			"bufferView":12,
			"componentType":5123,
			"count":60,
			"type":"SCALAR"
		},
		{
			"bufferView":13,
			"componentType":5123,
			"count":48,
			"type":"SCALAR"
		},
		{
			"bufferView":14,
			"componentType":5123,
			"count":60,
			"type":"SCALAR"
		},
		{
			"bufferView":15,
			"componentType":5123,
			"count":48,
			"type":"SCALAR"
		},
		{
			"bufferView":16,
			"componentType":5123,
			"count":30,
			"type":"SCALAR"
		},
		{
			"bufferView":17,
			"componentType":5123,
			"count":42,
			"type":"SCALAR"
		},
		{
			"bufferView":18,
			"componentType":5123,
			"count":60,
			"type":"SCALAR"
		},
		{
			"bufferView":19,
			"componentType":5123,
			"count":114,
			"type":"SCALAR"
		},
		{
			"bufferView":20,
			"componentType":5123,
			"count":24,
			"type":"SCALAR"
		},
		{
			"bufferView":21,
			"componentType":5123,
			"count":192,
			"type":"SCALAR"
		},
		{
			"bufferView":22,
			"componentType":5123,
			"count":60,
			"type":"SCALAR"
		},
		{
			"bufferView":23,
			"componentType":5123,
			"count":210,
			"type":"SCALAR"
		},
		{
			"bufferView":24,
			"componentType":5126,
			"count":24,
			"max":[
				1.2124994993209839,
				2,
				-5.680000305175781
			],
			"min":[
				0.2124994993209839,
				0,
				-5.78000020980835
			],
			"type":"VEC3"
		},
		{
			"bufferView":25,
			"componentType":5126,
			"count":24,
			"type":"VEC3"
		},
		{
			"bufferView":26,
			"componentType":5126,
			"count":24,
			"type":"VEC2"
		},
		{
			"bufferView":27,
			"componentType":5126,
			"count":24,
			"type":"VEC4"
		},
		{
			"bufferView":28,
			"componentType":5123,
			"count":36,
			"type":"SCALAR"
		},
		{
			"bufferView":29,
			"componentType":5126,
			"count":864,
			"max":[
				4.472500324249268,
				2.200000047683716,
				0.3000003397464752
			],
			"min":[
				-3.7125000953674316,
				-1.1920928955078125e-07,
				0.20999962091445923
			],
			"type":"VEC3"
		},
		{
			"bufferView":30,
			"componentType":5126,
			"count":864,
			"type":"VEC3"
		},
		{
			"bufferView":31,
			"componentType":5126,
			"count":864,
			"type":"VEC2"
		},
		{
			"bufferView":32,
			"componentType":5126,
			"count":864,
			"type":"VEC4"
		},
		{
			"bufferView":33,
			"componentType":5123,
			"count":1536,
			"type":"SCALAR"
		},
		{
			"bufferView":34,
			"componentType":5123,
			"count":144,
			"type":"SCALAR"
		},
		{
			"bufferView":35,
			"componentType":5126,
			"count":219,
			"max":[
				1.377500057220459,
				0.25999999046325684,
				-1.1343105654759711e-07
			],
			"min":[
				1.2974997758865356,
				0.10000000149011612,
				-3.015000581741333
			],
			"type":"VEC3"
		},
		{
			"bufferView":36,
			"componentType":5126,
			"count":219,
			"type":"VEC3"
		},
		{
			"bufferView":37,
			"componentType":5126,
			"count":219,
			"type":"VEC2"
		},
		{
			"bufferView":38,
			"componentType":5126,
			"count":219,
			"type":"VEC4"
		},
		{
			"bufferView":39,
			"componentType":5123,
			"count":162,
			"type":"SCALAR"
		},
		{
			"bufferView":40,
			"componentType":5123,
			"count":360,
			"type":"SCALAR"
		},
		{
			"bufferView":41,
			"componentType":5126,
			"count":248,
			"max":[
				4.492499828338623,
				0.8199999928474426,
				0.4000003933906555
			],
			"min":[
				-3.7325000762939453,
				0.7999998927116394,
				-0.04000038653612137
			],
			"type":"VEC3"
		},
		{
			"bufferView":42,
			"componentType":5126,
			"count":248,
			"type":"VEC3"
		},
		{
			"bufferView":43,
			"componentType":5126,
			"count":248,
			"type":"VEC2"
		},
		{
			"bufferView":44,
			"componentType":5126,
			"count":248,
			"type":"VEC4"
		},
		{
			"bufferView":45,
			"componentType":5123,
			"count":480,
			"type":"SCALAR"
		},
		{
			"bufferView":46,
			"componentType":5126,
			"count":440,
			"max":[
				2.442499876022339,
				0.6100000143051147,
				-0.029999706894159317
			],
			"min":[
				-3.3041701316833496,
				0.14000000059604645,
				-0.1800002008676529
			],
			"type":"VEC3"
		},
		{
			"bufferView":47,
			"componentType":5126,
			"count":440,
			"type":"VEC3"
		},
		{
			"bufferView":48,
			"componentType":5126,
			"count":440,
			"type":"VEC2"
		},
		{
			"bufferView":49,
			"componentType":5126,
			"count":440,
			"type":"VEC4"
		},
		{
			"bufferView":50,
			"componentType":5123,
			"count":1692,
			"type":"SCALAR"
		},
		{
			"bufferView":51,
			"componentType":5126,
			"count":216,
			"max":[
				0.6574999094009399,
				2.200000047683716,
				0.3000001013278961
			],
			"min":[
				-0.5425000786781311,
				0.7999998927116394,
				0.2099999487400055
			],
			"type":"VEC3"
		},
		{
			"bufferView":52,
			"componentType":5126,
			"count":216,
			"type":"VEC3"
		},
		{
			"bufferView":53,
			"componentType":5126,
			"count":216,
			"type":"VEC2"
		},
		{
			"bufferView":54,
			"componentType":5126,
			"count":216,
			"type":"VEC4"
		},
		{
			"bufferView":55,
			"componentType":5123,
			"count":384,
			"type":"SCALAR"
		},
		{
			"bufferView":56,
			"componentType":5123,
			"count":36,
			"type":"SCALAR"
		}
	],
	"bufferViews":[
		{
			"buffer":0,
			"byteLength":21804,
			"byteOffset":0,
			"target":34962
		},
		{
			"buffer":0,
			"byteLength":21804,
			"byteOffset":21804,
			"target":34962
		},
		{
			"buffer":0,
			"byteLength":14536,
			"byteOffset":43608,
			"target":34962
		},
		{
			"buffer":0,
			"byteLength":29072,
			"byteOffset":58144,
			"target":34962
		},
		{
			"buffer":0,
			"byteLength":4404,
			"byteOffset":87216,
			"target":34963
		},
		{
			"buffer":0,
			"byteLength":1620,
			"byteOffset":91620,
			"target":34963
		},
		{
			"buffer":0,
			"byteLength":486,
			"byteOffset":93240,
			"target":34963
		},
		{
			"buffer":0,
			"byteLength":2466,
			"byteOffset":93728,
			"target":34963
		},
		{
			"buffer":0,
			"byteLength":144,
			"byteOffset":96196,
			"target":34963
		},
		{
			"buffer":0,
			"byteLength":804,
			"byteOffset":96340,
			"target":34963
		},
		{
			"buffer":0,
			"byteLength":192,
			"byteOffset":97144,
			"target":34963
		},
		{
			"buffer":0,
			"byteLength":240,
			"byteOffset":97336,
			"target":34963
		},
		{
			"buffer":0,
			"byteLength":120,
			"byteOffset":97576,
			"target":34963
		},
		{
			"buffer":0,
			"byteLength":96,
			"byteOffset":97696,
			"target":34963
		},
		{
			"buffer":0,
			"byteLength":120,
			"byteOffset":97792,
			"target":34963
		},
		{
			"buffer":0,
			"byteLength":96,
			"byteOffset":97912,
			"target":34963
		},
		{
			"buffer":0,
			"byteLength":60,
			"byteOffset":98008,
			"target":34963
		},
		{
			"buffer":0,
			"byteLength":84,
			"byteOffset":98068,
			"target":34963
		},
		{
			"buffer":0,
			"byteLength":120,
			"byteOffset":98152,
			"target":34963
		},
		{
			"buffer":0,
			"byteLength":228,
			"byteOffset":98272,
			"target":34963
		},
		{
			"buffer":0,
			"byteLength":48,
			"byteOffset":98500,
			"target":34963
		},
		{
			"buffer":0,
			"byteLength":384,
			"byteOffset":98548,
			"target":34963
		},
		{
			"buffer":0,
			"byteLength":120,
			"byteOffset":98932,
			"target":34963
		},
		{
			"buffer":0,
			"byteLength":420,
			"byteOffset":99052,
			"target":34963
		},
		{
			"buffer":0,
			"byteLength":288,
			"byteOffset":99472,
			"target":34962
		},
		{
			"buffer":0,
			"byteLength":288,
			"byteOffset":99760,
			"target":34962
		},
		{
			"buffer":0,
			"byteLength":192,
			"byteOffset":100048,
			"target":34962
		},
		{
			"buffer":0,
			"byteLength":384,
			"byteOffset":100240,
			"target":34962
		},
		{
			"buffer":0,
			"byteLength":72,
			"byteOffset":100624,
			"target":34963
		},
		{
			"buffer":0,
			"byteLength":10368,
			"byteOffset":100696,
			"target":34962
		},
		{
			"buffer":0,
			"byteLength":10368,
			"byteOffset":111064,
			"target":34962
		},
		{
			"buffer":0,
			"byteLength":6912,
			"byteOffset":121432,
			"target":34962
		},
		{
			"buffer":0,
			"byteLength":13824,
			"byteOffset":128344,
			"target":34962
		},
		{
			"buffer":0,
			"byteLength":3072,
			"byteOffset":142168,
			"target":34963
		},
		{
			"buffer":0,
			"byteLength":288,
			"byteOffset":145240,
			"target":34963
		},
		{
			"buffer":0,
			"byteLength":2628,
			"byteOffset":145528,
			"target":34962
		},
		{
			"buffer":0,
			"byteLength":2628,
			"byteOffset":148156,
			"target":34962
		},
		{
			"buffer":0,
			"byteLength":1752,
			"byteOffset":150784,
			"target":34962
		},
		{
			"buffer":0,
			"byteLength":3504,
			"byteOffset":152536,
			"target":34962
		},
		{
			"buffer":0,
			"byteLength":324,
			"byteOffset":156040,
			"target":34963
		},
		{
			"buffer":0,
			"byteLength":720,
			"byteOffset":156364,
			"target":34963
		},
		{
			"buffer":0,
			"byteLength":2976,
			"byteOffset":157084,
			"target":34962
		},
		{
			"buffer":0,
			"byteLength":2976,
			"byteOffset":160060,
			"target":34962
		},
		{
			"buffer":0,
			"byteLength":1984,
			"byteOffset":163036,
			"target":34962
		},
		{
			"buffer":0,
			"byteLength":3968,
			"byteOffset":165020,
			"target":34962
		},
		{
			"buffer":0,
			"byteLength":960,
			"byteOffset":168988,
			"target":34963
		},
		{
			"buffer":0,
			"byteLength":5280,
			"byteOffset":169948,
			"target":34962
		},
		{
			"buffer":0,
			"byteLength":5280,
			"byteOffset":175228,
			"target":34962
		},
		{
			"buffer":0,
			"byteLength":3520,
			"byteOffset":180508,
			"target":34962
		},
		{
			"buffer":0,
			"byteLength":7040,
			"byteOffset":184028,
			"target":34962
		},
		{
			"buffer":0,
			"byteLength":3384,
			"byteOffset":191068,
			"target":34963
		},
		{
			"buffer":0,
			"byteLength":2592,
			"byteOffset":194452,
			"target":34962
		},
		{
			"buffer":0,
			"byteLength":2592,
			"byteOffset":197044,
			"target":34962
		},
		{
			"buffer":0,
			"byteLength":1728,
			"byteOffset":199636,
			"target":34962
		},
		{
			"buffer":0,
			"byteLength":3456,
			"byteOffset":201364,
			"target":34962
		},
		{
			"buffer":0,
			"byteLength":768,
			"byteOffset":204820,
			"target":34963
		},
		{
			"buffer":0,
			"byteLength":72,
			"byteOffset":205588,
			"target":34963
		}
	],
	"buffers":[
		{
			"byteLength":205660,
			"uri":"Ablewicza%2015.bin"
		}
	]
}
