{
	"asset":{
		"generator":"Khronos glTF Blender I/O v5.0.21",
		"version":"2.0"
	},
	"scene":0,
	"scenes":[
		{
			"name":"Scene",
			"nodes":[
				0,
				1,
				2,
				3,
				4
			]
		}
	],
	"nodes":[
		{
			"mesh":0,
			"name":"Plane"
		},
		{
			"mesh":1,
			"name":"Plane.001"
		},
		{
			"mesh":2,
			"name":"Plane.002"
		},
		{
			"mesh":3,
			"name":"Plane.003"
		},
		{
			"mesh":4,
			"name":"Plane.004"
		}
	],
	"materials":[
		{
			"doubleSided":true,
			"name":"Concrete",
			"pbrMetallicRoughness":{
				"baseColorFactor":[
					0.800000011920929,
					0.800000011920929,
					0.800000011920929,
					1
				],
				"metallicFactor":0,
				"roughnessFactor":0.5
			}
		},
		{
			"doubleSided":true,
			"name":"Concrete Black",
			"pbrMetallicRoughness":{
				"baseColorFactor":[
					0.800000011920929,
					0.800000011920929,
					0.800000011920929,
					1
				],
				"metallicFactor":0,
				"roughnessFactor":0.5
			}
		},
		{
			"doubleSided":true,
			"name":"Mirror",
			"pbrMetallicRoughness":{
				"baseColorFactor":[
					0.800000011920929,
					0.800000011920929,
					0.800000011920929,
					1
				],
				"metallicFactor":0,
				"roughnessFactor":0.5
			}
		},
		{
			"doubleSided":true,
			"name":"Inox",
			"pbrMetallicRoughness":{
				"baseColorFactor":[
					0.800000011920929,
					0.800000011920929,
					0.800000011920929,
					1
				],
				"metallicFactor":0,
				"roughnessFactor":0.5
			}
		},
		{
			"doubleSided":true,
			"name":"Glass",
			"pbrMetallicRoughness":{
				"baseColorFactor":[
					0.800000011920929,
					0.800000011920929,
					0.800000011920929,
					1
				],
				"metallicFactor":0,
				"roughnessFactor":0.5
			}
		},
		{
			"doubleSided":true,
			"name":"Red",
			"pbrMetallicRoughness":{
				"baseColorFactor":[
					1,
					0,
					0,
					1
				],
				"metallicFactor":0,
				"roughnessFactor":0.5
			}
		},
		{
			"doubleSided":true,
			"name":"Red_Matt",
			"pbrMetallicRoughness":{
				"baseColorFactor":[
					0.800000011920929,
					0.800000011920929,
					0.800000011920929,
					1
				],
				"metallicFactor":0,
				"roughnessFactor":0.5
			}
		}
	],
	"meshes":[
		{
			"name":"Plane",
			"primitives":[
				{
					"attributes":{
						"POSITION":0,
						"NORMAL":1,
						"TEXCOORD_0":2
					},
					"indices":3,
					"material":0
				},
				{
					"attributes":{
						"POSITION":4,
						"NORMAL":5,
						"TEXCOORD_0":6
					},
					"indices":7,
					"material":1
				}
			]
		},
		{
			"name":"Plane.003",
			"primitives":[
				{
					"attributes":{
						"POSITION":8,
						"NORMAL":9,
						"TEXCOORD_0":10
					},
					"indices":11,
					"material":2
				}
			]
		},
		{
			"name":"Plane.004",
			"primitives":[
				{
					"attributes":{
						"POSITION":12,
						"NORMAL":13,
						"TEXCOORD_0":14
					},
					"indices":15,
					"material":3
				},
				{
					"attributes":{
						"POSITION":16,
						"NORMAL":17,
						"TEXCOORD_0":18
					},
					"indices":19,
					"material":4
				}
			]
		},
		{
			"name":"Plane.006",
			"primitives":[
				{
					"attributes":{
						"POSITION":20,
						"NORMAL":21,
						"TEXCOORD_0":22
					},
					"indices":23,
					"material":5
				}
			]
		},
		{
			"name":"Plane.001",
			"primitives":[
				{
					"attributes":{
						"POSITION":24,
						"NORMAL":25,
						"TEXCOORD_0":26
					},
					"indices":27,
					"material":6
				}
			]
		}
	],
	"accessors":[
		{
			"bufferView":0,
			"componentType":5126,
			"count":52485,
			"max":[
				22.100000381469727,
				6.999999046325684,
				12.950006484985352
			],
			"min":[
				-22.10000228881836,
				-3.999999523162842,
				-12.950002670288086
			],
			"type":"VEC3"
		},
		{
			"bufferView":1,
			"componentType":5126,
			"count":52485,
			"type":"VEC3"
		},
		{
			"bufferView":2,
			"componentType":5126,
			"count":52485,
			"type":"VEC2"
		},
		{
			"bufferView":3,
			"componentType":5123,
			"count":103050,
			"type":"SCALAR"
		},
		{
			"bufferView":4,
			"componentType":5126,
			"count":2911,
			"max":[
				22.09707260131836,
				0.004226496908813715,
				12.947072982788086
			],
			"min":[
				-21.597074508666992,
				-0.0029289585072547197,
				-12.947070121765137
			],
			"type":"VEC3"
		},
		{
			"bufferView":5,
			"componentType":5126,
			"count":2911,
			"type":"VEC3"
		},
		{
			"bufferView":6,
			"componentType":5126,
			"count":2911,
			"type":"VEC2"
		},
		{
			"bufferView":7,
			"componentType":5123,
			"count":11148,
			"type":"SCALAR"
		},
		{
			"bufferView":8,
			"componentType":5126,
			"count":832,
			"max":[
				16.659997940063477,
				2.999999523162842,
				0.3600004017353058
			],
			"min":[
				-0.3100006580352783,
				0.009999998845160007,
				-0.3600003719329834
			],
			"type":"VEC3"
		},
		{
			"bufferView":9,
			"componentType":5126,
			"count":832,
			"type":"VEC3"
		},
		{
			"bufferView":10,
			"componentType":5126,
			"count":832,
			"type":"VEC2"
		},
		{
			"bufferView":11,
			"componentType":5123,
			"count":1152,
			"type":"SCALAR"
		},
		{
			"bufferView":12,
			"componentType":5126,
			"count":10402,
			"max":[
				22.099998474121094,
				5.199999809265137,
				12.950003623962402
			],
			"min":[
				-18.775001525878906,
				-4.76837158203125e-07,
				-12.950003623962402
			],
			"type":"VEC3"
		},
		{
			"bufferView":13,
			"componentType":5126,
			"count":10402,
			"type":"VEC3"
		},
		{
			"bufferView":14,
			"componentType":5126,
			"count":10402,
			"type":"VEC2"
		},
		{
			"bufferView":15,
			"componentType":5123,
			"count":16722,
			"type":"SCALAR"
		},
		{
			"bufferView":16,
			"componentType":5126,
			"count":6816,
			"max":[
				22.055004119873047,
				5.149999618530273,
				12.905004501342773
			],
			"min":[
				-18.725000381469727,
				0.04999947547912598,
				-12.905000686645508
			],
			"type":"VEC3"
		},
		{
			"bufferView":17,
			"componentType":5126,
			"count":6816,
			"type":"VEC3"
		},
		{
			"bufferView":18,
			"componentType":5126,
			"count":6816,
			"type":"VEC2"
		},
		{
			"bufferView":19,
			"componentType":5123,
			"count":9372,
			"type":"SCALAR"
		},
		{
			"bufferView":20,
			"componentType":5126,
			"count":2001,
			"max":[
				22.000001907348633,
				5.57512092590332,
				12.84999942779541
			],
			"min":[
				-0.32500362396240234,
				-1.430511474609375e-06,
				-12.850019454956055
			],
			"type":"VEC3"
		},
		{
			"bufferView":21,
			"componentType":5126,
			"count":2001,
			"type":"VEC3"
		},
		{
			"bufferView":22,
			"componentType":5126,
			"count":2001,
			"type":"VEC2"
		},
		{
			"bufferView":23,
			"componentType":5123,
			"count":7104,
			"type":"SCALAR"
		},
		{
			"bufferView":24,
			"componentType":5126,
			"count":432,
			"max":[
				21,
				0.010000000707805157,
				11.500000953674316
			],
			"min":[
				-11.200000762939453,
				0,
				-11.500001907348633
			],
			"type":"VEC3"
		},
		{
			"bufferView":25,
			"componentType":5126,
			"count":432,
			"type":"VEC3"
		},
		{
			"bufferView":26,
			"componentType":5126,
			"count":432,
			"type":"VEC2"
		},
		{
			"bufferView":27,
			"componentType":5123,
			"count":648,
			"type":"SCALAR"
		}
	],
	"bufferViews":[
		{
			"buffer":0,
			"byteLength":629820,
			"byteOffset":0,
			"target":34962
		},
		{
			"buffer":0,
			"byteLength":629820,
			"byteOffset":629820,
			"target":34962
		},
		{
			"buffer":0,
			"byteLength":419880,
			"byteOffset":1259640,
			"target":34962
		},
		{
			"buffer":0,
			"byteLength":206100,
			"byteOffset":1679520,
			"target":34963
		},
		{
			"buffer":0,
			"byteLength":34932,
			"byteOffset":1885620,
			"target":34962
		},
		{
			"buffer":0,
			"byteLength":34932,
			"byteOffset":1920552,
			"target":34962
		},
		{
			"buffer":0,
			"byteLength":23288,
			"byteOffset":1955484,
			"target":34962
		},
		{
			"buffer":0,
			"byteLength":22296,
			"byteOffset":1978772,
			"target":34963
		},
		{
			"buffer":0,
			"byteLength":9984,
			"byteOffset":2001068,
			"target":34962
		},
		{
			"buffer":0,
			"byteLength":9984,
			"byteOffset":2011052,
			"target":34962
		},
		{
			"buffer":0,
			"byteLength":6656,
			"byteOffset":2021036,
			"target":34962
		},
		{
			"buffer":0,
			"byteLength":2304,
			"byteOffset":2027692,
			"target":34963
		},
		{
			"buffer":0,
			"byteLength":124824,
			"byteOffset":2029996,
			"target":34962
		},
		{
			"buffer":0,
			"byteLength":124824,
			"byteOffset":2154820,
			"target":34962
		},
		{
			"buffer":0,
			"byteLength":83216,
			"byteOffset":2279644,
			"target":34962
		},
		{
			"buffer":0,
			"byteLength":33444,
			"byteOffset":2362860,
			"target":34963
		},
		{
			"buffer":0,
			"byteLength":81792,
			"byteOffset":2396304,
			"target":34962
		},
		{
			"buffer":0,
			"byteLength":81792,
			"byteOffset":2478096,
			"target":34962
		},
		{
			"buffer":0,
			"byteLength":54528,
			"byteOffset":2559888,
			"target":34962
		},
		{
			"buffer":0,
			"byteLength":18744,
			"byteOffset":2614416,
			"target":34963
		},
		{
			"buffer":0,
			"byteLength":24012,
			"byteOffset":2633160,
			"target":34962
		},
		{
			"buffer":0,
			"byteLength":24012,
			"byteOffset":2657172,
			"target":34962
		},
		{
			"buffer":0,
			"byteLength":16008,
			"byteOffset":2681184,
			"target":34962
		},
		{
			"buffer":0,
			"byteLength":14208,
			"byteOffset":2697192,
			"target":34963
		},
		{
			"buffer":0,
			"byteLength":5184,
			"byteOffset":2711400,
			"target":34962
		},
		{
			"buffer":0,
			"byteLength":5184,
			"byteOffset":2716584,
			"target":34962
		},
		{
			"buffer":0,
			"byteLength":3456,
			"byteOffset":2721768,
			"target":34962
		},
		{
			"buffer":0,
			"byteLength":1296,
			"byteOffset":2725224,
			"target":34963
		}
	],
	"buffers":[
		{
			"byteLength":2726520,
			"uri":"Dobek%20Racing.bin"
		}
	]
}
