{
	"asset":{
		"generator":"Khronos glTF Blender I/O v5.2.40",
		"version":"2.0"
	},
	"scene":0,
	"scenes":[
		{
			"name":"Scene",
			"nodes":[
				0,
				1,
				2,
				3,
				7,
				8,
				9,
				10,
				11,
				12,
				13,
				14,
				15,
				16,
				17,
				18,
				19,
				20,
				21,
				22,
				23,
				24,
				25,
				26,
				27,
				28,
				29,
				30,
				31,
				32,
				33
			]
		}
	],
	"nodes":[
		{
			"mesh":0,
			"name":"Blat"
		},
		{
			"mesh":1,
			"name":"Cokol kuchenka"
		},
		{
			"mesh":2,
			"name":"Cokol lodowka"
		},
		{
			"mesh":3,
			"name":"Cokol okno"
		},
		{
			"mesh":4,
			"name":"Szyba"
		},
		{
			"children":[
				4
			],
			"mesh":5,
			"name":"Okno"
		},
		{
			"mesh":6,
			"name":"Podloga"
		},
		{
			"children":[
				5,
				6
			],
			"mesh":7,
			"name":"Dom"
		},
		{
			"mesh":8,
			"name":"Innovo kuchenka"
		},
		{
			"mesh":9,
			"name":"Innovo okno"
		},
		{
			"mesh":10,
			"name":"Koluma lodowka"
		},
		{
			"mesh":11,
			"name":"Koluma lodowka.001"
		},
		{
			"mesh":12,
			"name":"Kolumna cargo"
		},
		{
			"mesh":13,
			"name":"Kolumna cargo.001"
		},
		{
			"mesh":14,
			"name":"Kolumna ekspres",
			"translation":[
				-0.00017085150466300547,
				0.0004787271027453244,
				-0.0009507037466391921
			]
		},
		{
			"mesh":15,
			"name":"Kolumna piekarnik",
			"translation":[
				9.242971282219514e-05,
				-0.000239480723394081,
				2.8611468223971315e-05
			]
		},
		{
			"mesh":16,
			"name":"Kolumna piekarnik.001",
			"translation":[
				9.242971282219514e-05,
				-0.000239480723394081,
				2.8611468223971315e-05
			]
		},
		{
			"mesh":17,
			"name":"Lodowka Lamele"
		},
		{
			"mesh":18,
			"name":"Meble Wej\u015bcie"
		},
		{
			"mesh":19,
			"name":"Meble Wej\u015bcie.002"
		},
		{
			"mesh":20,
			"name":"Obudowa blat"
		},
		{
			"mesh":21,
			"name":"Obudowa gara\u017c"
		},
		{
			"mesh":22,
			"name":"Obudowa lodowka"
		},
		{
			"mesh":23,
			"name":"Okap"
		},
		{
			"mesh":24,
			"name":"Polka"
		},
		{
			"mesh":25,
			"name":"Polka.001"
		},
		{
			"mesh":26,
			"name":"Polka.002"
		},
		{
			"mesh":27,
			"name":"Szafka 1"
		},
		{
			"mesh":28,
			"name":"Szafka 2"
		},
		{
			"mesh":29,
			"name":"Szafka 3"
		},
		{
			"mesh":30,
			"name":"Szafka kuchenka"
		},
		{
			"mesh":31,
			"name":"Szafka nerka lewa"
		},
		{
			"mesh":32,
			"name":"Szafka nerka prawa"
		},
		{
			"mesh":33,
			"name":"Szafka zmywarka"
		}
	],
	"materials":[
		{
			"doubleSided":true,
			"name":"Top",
			"pbrMetallicRoughness":{
				"metallicFactor":0,
				"roughnessFactor":0.5
			}
		},
		{
			"doubleSided":true,
			"name":"U702 ST9",
			"pbrMetallicRoughness":{
				"baseColorFactor":[
					0.973438560962677,
					0.9301118850708008,
					0.7758225798606873,
					1
				],
				"metallicFactor":0.10000000149011612
			}
		},
		{
			"doubleSided":true,
			"name":"Glass"
		},
		{
			"doubleSided":true,
			"name":"Plastic",
			"pbrMetallicRoughness":{
				"metallicFactor":0,
				"roughnessFactor":0.5
			}
		},
		{
			"doubleSided":true,
			"name":"Floor",
			"pbrMetallicRoughness":{
				"metallicFactor":0,
				"roughnessFactor":0.5
			}
		},
		{
			"doubleSided":true,
			"name":"Paint",
			"pbrMetallicRoughness":{
				"metallicFactor":0,
				"roughnessFactor":0.5
			}
		},
		{
			"doubleSided":true,
			"name":"Concrete",
			"pbrMetallicRoughness":{
				"metallicFactor":0,
				"roughnessFactor":0.5
			}
		},
		{
			"doubleSided":true,
			"name":"Gold",
			"pbrMetallicRoughness":{
				"baseColorFactor":[
					1,
					0.5,
					0,
					1
				],
				"metallicFactor":0
			}
		},
		{
			"doubleSided":true,
			"name":"U702 PM",
			"pbrMetallicRoughness":{
				"baseColorFactor":[
					0.6866807341575623,
					0.5906195044517517,
					0.5088815093040466,
					1
				],
				"metallicFactor":0.25,
				"roughnessFactor":0.25
			}
		},
		{
			"doubleSided":true,
			"name":"MDF",
			"pbrMetallicRoughness":{
				"baseColorFactor":[
					0.8000315427780151,
					0.4980124533176422,
					0.275954008102417,
					1
				],
				"metallicFactor":0
			}
		},
		{
			"doubleSided":true,
			"name":"H1386 ST40",
			"pbrMetallicRoughness":{
				"metallicFactor":0.10000000149011612,
				"roughnessFactor":0.5
			}
		},
		{
			"doubleSided":true,
			"name":"Black",
			"pbrMetallicRoughness":{
				"baseColorFactor":[
					0.800000011920929,
					0.800000011920929,
					0.800000011920929,
					1
				],
				"metallicFactor":0,
				"roughnessFactor":0.5
			}
		},
		{
			"doubleSided":true,
			"name":"Pine",
			"pbrMetallicRoughness":{
				"baseColorFactor":[
					0.800000011920929,
					0.800000011920929,
					0.800000011920929,
					1
				],
				"metallicFactor":0,
				"roughnessFactor":0.5
			}
		}
	],
	"meshes":[
		{
			"name":"Blat",
			"primitives":[
				{
					"attributes":{
						"POSITION":0,
						"NORMAL":1,
						"TEXCOORD_0":2,
						"TANGENT":3
					},
					"indices":4,
					"material":0
				}
			]
		},
		{
			"name":"Cokol kuchenka",
			"primitives":[
				{
					"attributes":{
						"POSITION":5,
						"NORMAL":6,
						"TEXCOORD_0":7,
						"TANGENT":8
					},
					"indices":9,
					"material":1
				}
			]
		},
		{
			"name":"Cokol lodowka",
			"primitives":[
				{
					"attributes":{
						"POSITION":10,
						"NORMAL":11,
						"TEXCOORD_0":12,
						"TANGENT":13
					},
					"indices":14,
					"material":1
				}
			]
		},
		{
			"name":"Cokol okno",
			"primitives":[
				{
					"attributes":{
						"POSITION":15,
						"NORMAL":16,
						"TEXCOORD_0":17,
						"TANGENT":18
					},
					"indices":19,
					"material":1
				}
			]
		},
		{
			"name":"Szyba",
			"primitives":[
				{
					"attributes":{
						"POSITION":20,
						"NORMAL":21,
						"TEXCOORD_0":22,
						"TANGENT":23
					},
					"indices":24,
					"material":2
				},
				{
					"attributes":{
						"POSITION":25,
						"NORMAL":26,
						"TEXCOORD_0":27,
						"TANGENT":28
					},
					"indices":29,
					"material":3
				}
			]
		},
		{
			"name":"Okno",
			"primitives":[
				{
					"attributes":{
						"POSITION":30,
						"NORMAL":31,
						"TEXCOORD_0":32,
						"TANGENT":33
					},
					"indices":34,
					"material":3
				}
			]
		},
		{
			"name":"Podloga",
			"primitives":[
				{
					"attributes":{
						"POSITION":35,
						"NORMAL":36,
						"TEXCOORD_0":37,
						"TANGENT":38
					},
					"indices":39,
					"material":4
				}
			]
		},
		{
			"name":"Dom",
			"primitives":[
				{
					"attributes":{
						"POSITION":40,
						"NORMAL":41,
						"TEXCOORD_0":42,
						"TANGENT":43
					},
					"indices":44,
					"material":5
				},
				{
					"attributes":{
						"POSITION":45,
						"NORMAL":46,
						"TEXCOORD_0":47,
						"TANGENT":48
					},
					"indices":49,
					"material":6
				}
			]
		},
		{
			"name":"Innovo kuchenka",
			"primitives":[
				{
					"attributes":{
						"POSITION":50,
						"NORMAL":51,
						"TEXCOORD_0":52,
						"TANGENT":53
					},
					"indices":54,
					"material":7
				}
			]
		},
		{
			"name":"Innovo okno",
			"primitives":[
				{
					"attributes":{
						"POSITION":55,
						"NORMAL":56,
						"TEXCOORD_0":57,
						"TANGENT":58
					},
					"indices":59,
					"material":7
				}
			]
		},
		{
			"name":"Koluma lodowka",
			"primitives":[
				{
					"attributes":{
						"POSITION":60,
						"NORMAL":61,
						"TEXCOORD_0":62,
						"TANGENT":63
					},
					"indices":64,
					"material":1
				},
				{
					"attributes":{
						"POSITION":65,
						"NORMAL":66,
						"TEXCOORD_0":67,
						"TANGENT":68
					},
					"indices":69,
					"material":8
				}
			]
		},
		{
			"name":"Koluma lodowka.001",
			"primitives":[
				{
					"attributes":{
						"POSITION":70,
						"NORMAL":71,
						"TEXCOORD_0":72,
						"TANGENT":73
					},
					"indices":74,
					"material":1
				},
				{
					"attributes":{
						"POSITION":75,
						"NORMAL":76,
						"TEXCOORD_0":77,
						"TANGENT":78
					},
					"indices":79,
					"material":8
				},
				{
					"attributes":{
						"POSITION":80,
						"NORMAL":81,
						"TEXCOORD_0":82,
						"TANGENT":83
					},
					"indices":84,
					"material":9
				}
			]
		},
		{
			"name":"Kolumna cargo",
			"primitives":[
				{
					"attributes":{
						"POSITION":85,
						"NORMAL":86,
						"TEXCOORD_0":87,
						"TANGENT":88
					},
					"indices":89,
					"material":1
				},
				{
					"attributes":{
						"POSITION":90,
						"NORMAL":91,
						"TEXCOORD_0":92,
						"TANGENT":93
					},
					"indices":94,
					"material":8
				},
				{
					"attributes":{
						"POSITION":95,
						"NORMAL":96,
						"TEXCOORD_0":97,
						"TANGENT":98
					},
					"indices":99,
					"material":9
				}
			]
		},
		{
			"name":"Kolumna cargo.001",
			"primitives":[
				{
					"attributes":{
						"POSITION":100,
						"NORMAL":101,
						"TEXCOORD_0":102,
						"TANGENT":103
					},
					"indices":104,
					"material":1
				},
				{
					"attributes":{
						"POSITION":105,
						"NORMAL":106,
						"TEXCOORD_0":107,
						"TANGENT":108
					},
					"indices":109,
					"material":8
				},
				{
					"attributes":{
						"POSITION":110,
						"NORMAL":111,
						"TEXCOORD_0":112,
						"TANGENT":113
					},
					"indices":114,
					"material":9
				}
			]
		},
		{
			"name":"Kolumna ekspres",
			"primitives":[
				{
					"attributes":{
						"POSITION":115,
						"NORMAL":116,
						"TEXCOORD_0":117,
						"TANGENT":118
					},
					"indices":119,
					"material":1
				},
				{
					"attributes":{
						"POSITION":120,
						"NORMAL":121,
						"TEXCOORD_0":122,
						"TANGENT":123
					},
					"indices":124,
					"material":8
				},
				{
					"attributes":{
						"POSITION":125,
						"NORMAL":126,
						"TEXCOORD_0":127,
						"TANGENT":128
					},
					"indices":129,
					"material":9
				}
			]
		},
		{
			"name":"Kolumna piekarnik",
			"primitives":[
				{
					"attributes":{
						"POSITION":130,
						"NORMAL":131,
						"TEXCOORD_0":132,
						"TANGENT":133
					},
					"indices":134,
					"material":1
				},
				{
					"attributes":{
						"POSITION":135,
						"NORMAL":136,
						"TEXCOORD_0":137,
						"TANGENT":138
					},
					"indices":139,
					"material":8
				},
				{
					"attributes":{
						"POSITION":140,
						"NORMAL":141,
						"TEXCOORD_0":142,
						"TANGENT":143
					},
					"indices":144,
					"material":9
				}
			]
		},
		{
			"name":"Kolumna piekarnik.001",
			"primitives":[
				{
					"attributes":{
						"POSITION":145,
						"NORMAL":146,
						"TEXCOORD_0":147,
						"TANGENT":148
					},
					"indices":149,
					"material":1
				},
				{
					"attributes":{
						"POSITION":150,
						"NORMAL":151,
						"TEXCOORD_0":152,
						"TANGENT":153
					},
					"indices":154,
					"material":8
				},
				{
					"attributes":{
						"POSITION":155,
						"NORMAL":156,
						"TEXCOORD_0":157,
						"TANGENT":158
					},
					"indices":159,
					"material":9
				}
			]
		},
		{
			"name":"Obudowa lodowka.001",
			"primitives":[
				{
					"attributes":{
						"POSITION":160,
						"NORMAL":161,
						"TEXCOORD_0":162,
						"TANGENT":163
					},
					"indices":164,
					"material":10
				}
			]
		},
		{
			"name":"Meble Wej\u015bcie",
			"primitives":[
				{
					"attributes":{
						"POSITION":165,
						"NORMAL":166,
						"TEXCOORD_0":167,
						"TANGENT":168
					},
					"indices":169,
					"material":1
				},
				{
					"attributes":{
						"POSITION":170,
						"NORMAL":171,
						"TEXCOORD_0":172,
						"TANGENT":173
					},
					"indices":174,
					"material":9
				}
			]
		},
		{
			"name":"Meble Wej\u015bcie.002",
			"primitives":[
				{
					"attributes":{
						"POSITION":175,
						"NORMAL":176,
						"TEXCOORD_0":177,
						"TANGENT":178
					},
					"indices":179,
					"material":7
				}
			]
		},
		{
			"name":"Obudowa blat",
			"primitives":[
				{
					"attributes":{
						"POSITION":180,
						"NORMAL":181,
						"TEXCOORD_0":182,
						"TANGENT":183
					},
					"indices":184,
					"material":8
				}
			]
		},
		{
			"name":"Obudowa gara\u017c",
			"primitives":[
				{
					"attributes":{
						"POSITION":185,
						"NORMAL":186,
						"TEXCOORD_0":187,
						"TANGENT":188
					},
					"indices":189,
					"material":4
				}
			]
		},
		{
			"name":"Obudowa lodowka",
			"primitives":[
				{
					"attributes":{
						"POSITION":190,
						"NORMAL":191,
						"TEXCOORD_0":192,
						"TANGENT":193
					},
					"indices":194,
					"material":1
				}
			]
		},
		{
			"name":"Okap",
			"primitives":[
				{
					"attributes":{
						"POSITION":195,
						"NORMAL":196,
						"TEXCOORD_0":197,
						"TANGENT":198
					},
					"indices":199,
					"material":7
				}
			]
		},
		{
			"name":"Polka",
			"primitives":[
				{
					"attributes":{
						"POSITION":200,
						"NORMAL":201,
						"TEXCOORD_0":202,
						"TANGENT":203
					},
					"indices":204,
					"material":1
				},
				{
					"attributes":{
						"POSITION":205,
						"NORMAL":206,
						"TEXCOORD_0":207,
						"TANGENT":208
					},
					"indices":209,
					"material":11
				}
			]
		},
		{
			"name":"Polka.001",
			"primitives":[
				{
					"attributes":{
						"POSITION":210,
						"NORMAL":211,
						"TEXCOORD_0":212,
						"TANGENT":213
					},
					"indices":214,
					"material":1
				},
				{
					"attributes":{
						"POSITION":215,
						"NORMAL":216,
						"TEXCOORD_0":217,
						"TANGENT":218
					},
					"indices":219,
					"material":11
				}
			]
		},
		{
			"name":"Polka.002",
			"primitives":[
				{
					"attributes":{
						"POSITION":220,
						"NORMAL":221,
						"TEXCOORD_0":222,
						"TANGENT":223
					},
					"indices":224,
					"material":12
				}
			]
		},
		{
			"name":"Szafka 1",
			"primitives":[
				{
					"attributes":{
						"POSITION":225,
						"NORMAL":226,
						"TEXCOORD_0":227,
						"TANGENT":228
					},
					"indices":229,
					"material":1
				},
				{
					"attributes":{
						"POSITION":230,
						"NORMAL":231,
						"TEXCOORD_0":232,
						"TANGENT":233
					},
					"indices":234,
					"material":8
				},
				{
					"attributes":{
						"POSITION":235,
						"NORMAL":236,
						"TEXCOORD_0":237,
						"TANGENT":238
					},
					"indices":239,
					"material":9
				}
			]
		},
		{
			"name":"Szafka 2",
			"primitives":[
				{
					"attributes":{
						"POSITION":240,
						"NORMAL":241,
						"TEXCOORD_0":242,
						"TANGENT":243
					},
					"indices":244,
					"material":1
				},
				{
					"attributes":{
						"POSITION":245,
						"NORMAL":246,
						"TEXCOORD_0":247,
						"TANGENT":248
					},
					"indices":249,
					"material":8
				},
				{
					"attributes":{
						"POSITION":250,
						"NORMAL":251,
						"TEXCOORD_0":252,
						"TANGENT":253
					},
					"indices":254,
					"material":9
				}
			]
		},
		{
			"name":"Szafka 3",
			"primitives":[
				{
					"attributes":{
						"POSITION":255,
						"NORMAL":256,
						"TEXCOORD_0":257,
						"TANGENT":258
					},
					"indices":259,
					"material":1
				},
				{
					"attributes":{
						"POSITION":260,
						"NORMAL":261,
						"TEXCOORD_0":262,
						"TANGENT":263
					},
					"indices":264,
					"material":8
				}
			]
		},
		{
			"name":"Szafka kuchenka",
			"primitives":[
				{
					"attributes":{
						"POSITION":265,
						"NORMAL":266,
						"TEXCOORD_0":267,
						"TANGENT":268
					},
					"indices":269,
					"material":1
				},
				{
					"attributes":{
						"POSITION":270,
						"NORMAL":271,
						"TEXCOORD_0":272,
						"TANGENT":273
					},
					"indices":274,
					"material":8
				},
				{
					"attributes":{
						"POSITION":275,
						"NORMAL":276,
						"TEXCOORD_0":277,
						"TANGENT":278
					},
					"indices":279,
					"material":9
				}
			]
		},
		{
			"name":"Plane.011",
			"primitives":[
				{
					"attributes":{
						"POSITION":280,
						"NORMAL":281,
						"TEXCOORD_0":282,
						"TANGENT":283
					},
					"indices":284,
					"material":1
				},
				{
					"attributes":{
						"POSITION":285,
						"NORMAL":286,
						"TEXCOORD_0":287,
						"TANGENT":288
					},
					"indices":289,
					"material":8
				},
				{
					"attributes":{
						"POSITION":290,
						"NORMAL":291,
						"TEXCOORD_0":292,
						"TANGENT":293
					},
					"indices":294,
					"material":9
				}
			]
		},
		{
			"name":"Szafka nerka prawa",
			"primitives":[
				{
					"attributes":{
						"POSITION":295,
						"NORMAL":296,
						"TEXCOORD_0":297,
						"TANGENT":298
					},
					"indices":299,
					"material":1
				},
				{
					"attributes":{
						"POSITION":300,
						"NORMAL":301,
						"TEXCOORD_0":302,
						"TANGENT":303
					},
					"indices":304,
					"material":8
				},
				{
					"attributes":{
						"POSITION":305,
						"NORMAL":306,
						"TEXCOORD_0":307,
						"TANGENT":308
					},
					"indices":309,
					"material":9
				}
			]
		},
		{
			"name":"Szafka zmywarka",
			"primitives":[
				{
					"attributes":{
						"POSITION":310,
						"NORMAL":311,
						"TEXCOORD_0":312,
						"TANGENT":313
					},
					"indices":314,
					"material":8
				}
			]
		}
	],
	"accessors":[
		{
			"bufferView":0,
			"componentType":5126,
			"count":1332,
			"max":[
				2.760000228881836,
				0.9200000166893005,
				-1.7484558245683957e-10
			],
			"min":[
				-0.18500030040740967,
				0.9000000357627869,
				-3.317999839782715
			],
			"type":"VEC3"
		},
		{
			"bufferView":1,
			"componentType":5126,
			"count":1332,
			"type":"VEC3"
		},
		{
			"bufferView":2,
			"componentType":5126,
			"count":1332,
			"type":"VEC2"
		},
		{
			"bufferView":3,
			"componentType":5126,
			"count":1332,
			"type":"VEC4"
		},
		{
			"bufferView":4,
			"componentType":5123,
			"count":1848,
			"type":"SCALAR"
		},
		{
			"bufferView":5,
			"componentType":5126,
			"count":284,
			"max":[
				2.258000135421753,
				0.10000000149011612,
				-0.5020001530647278
			],
			"min":[
				0.5019999146461487,
				0,
				-0.520000159740448
			],
			"type":"VEC3"
		},
		{
			"bufferView":6,
			"componentType":5126,
			"count":284,
			"type":"VEC3"
		},
		{
			"bufferView":7,
			"componentType":5126,
			"count":284,
			"type":"VEC2"
		},
		{
			"bufferView":8,
			"componentType":5126,
			"count":284,
			"type":"VEC4"
		},
		{
			"bufferView":9,
			"componentType":5123,
			"count":324,
			"type":"SCALAR"
		},
		{
			"bufferView":10,
			"componentType":5126,
			"count":288,
			"max":[
				2.257999897003174,
				0.10000000149011612,
				-0.5200000405311584
			],
			"min":[
				2.239999532699585,
				0,
				-2.2750000953674316
			],
			"type":"VEC3"
		},
		{
			"bufferView":11,
			"componentType":5126,
			"count":288,
			"type":"VEC3"
		},
		{
			"bufferView":12,
			"componentType":5126,
			"count":288,
			"type":"VEC2"
		},
		{
			"bufferView":13,
			"componentType":5126,
			"count":288,
			"type":"VEC4"
		},
		{
			"bufferView":14,
			"componentType":5123,
			"count":324,
			"type":"SCALAR"
		},
		{
			"bufferView":15,
			"componentType":5126,
			"count":580,
			"max":[
				0.5199999213218689,
				0.10000000149011612,
				-0.520000159740448
			],
			"min":[
				0.5019996762275696,
				0,
				-3.3000001907348633
			],
			"type":"VEC3"
		},
		{
			"bufferView":16,
			"componentType":5126,
			"count":580,
			"type":"VEC3"
		},
		{
			"bufferView":17,
			"componentType":5126,
			"count":580,
			"type":"VEC2"
		},
		{
			"bufferView":18,
			"componentType":5126,
			"count":580,
			"type":"VEC4"
		},
		{
			"bufferView":19,
			"componentType":5123,
			"count":648,
			"type":"SCALAR"
		},
		{
			"bufferView":20,
			"componentType":5126,
			"count":84,
			"max":[
				6.870001316070557,
				2.242999315261841,
				-1.9080036878585815
			],
			"min":[
				-0.21000106632709503,
				0.10000023245811462,
				-8.161666870117188
			],
			"type":"VEC3"
		},
		{
			"bufferView":21,
			"componentType":5126,
			"count":84,
			"type":"VEC3"
		},
		{
			"bufferView":22,
			"componentType":5126,
			"count":84,
			"type":"VEC2"
		},
		{
			"bufferView":23,
			"componentType":5126,
			"count":84,
			"type":"VEC4"
		},
		{
			"bufferView":24,
			"componentType":5123,
			"count":126,
			"type":"SCALAR"
		},
		{
			"bufferView":25,
			"componentType":5126,
			"count":26,
			"max":[
				1.2599984407424927,
				2.0099997520446777,
				2.3628573417663574
			],
			"min":[
				0.4399954378604889,
				0.08000028133392334,
				2.3428571224212646
			],
			"type":"VEC3"
		},
		{
			"bufferView":26,
			"componentType":5126,
			"count":26,
			"type":"VEC3"
		},
		{
			"bufferView":27,
			"componentType":5126,
			"count":26,
			"type":"VEC2"
		},
		{
			"bufferView":28,
			"componentType":5126,
			"count":26,
			"type":"VEC4"
		},
		{
			"bufferView":29,
			"componentType":5123,
			"count":36,
			"type":"SCALAR"
		},
		{
			"bufferView":30,
			"componentType":5126,
			"count":17193,
			"max":[
				6.9600019454956055,
				2.3329992294311523,
				2.4078574180603027
			],
			"min":[
				-0.25500115752220154,
				-0.009999513626098633,
				-8.18666934967041
			],
			"type":"VEC3"
		},
		{
			"bufferView":31,
			"componentType":5126,
			"count":17193,
			"type":"VEC3"
		},
		{
			"bufferView":32,
			"componentType":5126,
			"count":17193,
			"type":"VEC2"
		},
		{
			"bufferView":33,
			"componentType":5126,
			"count":17193,
			"type":"VEC4"
		},
		{
			"bufferView":34,
			"componentType":5123,
			"count":19572,
			"type":"SCALAR"
		},
		{
			"bufferView":35,
			"componentType":5126,
			"count":3731,
			"max":[
				8.954996109008789,
				1.50948975541354e-11,
				2.337860345840454
			],
			"min":[
				-0.3950037658214569,
				-0.010000000707805157,
				-8.340028762817383
			],
			"type":"VEC3"
		},
		{
			"bufferView":36,
			"componentType":5126,
			"count":3731,
			"type":"VEC3"
		},
		{
			"bufferView":37,
			"componentType":5126,
			"count":3731,
			"type":"VEC2"
		},
		{
			"bufferView":38,
			"componentType":5126,
			"count":3731,
			"type":"VEC4"
		},
		{
			"bufferView":39,
			"componentType":5123,
			"count":5400,
			"type":"SCALAR"
		},
		{
			"bufferView":40,
			"componentType":5126,
			"count":8719,
			"max":[
				10,
				2.9900002479553223,
				2.4600000381469727
			],
			"min":[
				-0.40000081062316895,
				-1.0099999904632568,
				-8.344999313354492
			],
			"type":"VEC3"
		},
		{
			"bufferView":41,
			"componentType":5126,
			"count":8719,
			"type":"VEC3"
		},
		{
			"bufferView":42,
			"componentType":5126,
			"count":8719,
			"type":"VEC2"
		},
		{
			"bufferView":43,
			"componentType":5126,
			"count":8719,
			"type":"VEC4"
		},
		{
			"bufferView":44,
			"componentType":5123,
			"count":15060,
			"type":"SCALAR"
		},
		{
			"bufferView":45,
			"componentType":5126,
			"count":815,
			"max":[
				8.9594144821167,
				-0.009154700674116611,
				2.459414005279541
			],
			"min":[
				-0.3994142711162567,
				-0.010585800744593143,
				-8.344414710998535
			],
			"type":"VEC3"
		},
		{
			"bufferView":46,
			"componentType":5126,
			"count":815,
			"type":"VEC3"
		},
		{
			"bufferView":47,
			"componentType":5126,
			"count":815,
			"type":"VEC2"
		},
		{
			"bufferView":48,
			"componentType":5126,
			"count":815,
			"type":"VEC4"
		},
		{
			"bufferView":49,
			"componentType":5123,
			"count":1734,
			"type":"SCALAR"
		},
		{
			"bufferView":50,
			"componentType":5126,
			"count":228,
			"max":[
				2.1599998474121094,
				0.8999999761581421,
				-0.554000198841095
			],
			"min":[
				0.5559999346733093,
				0.46299996972084045,
				-0.5800002813339233
			],
			"type":"VEC3"
		},
		{
			"bufferView":51,
			"componentType":5126,
			"count":228,
			"type":"VEC3"
		},
		{
			"bufferView":52,
			"componentType":5126,
			"count":228,
			"type":"VEC2"
		},
		{
			"bufferView":53,
			"componentType":5126,
			"count":228,
			"type":"VEC4"
		},
		{
			"bufferView":54,
			"componentType":5123,
			"count":384,
			"type":"SCALAR"
		},
		{
			"bufferView":55,
			"componentType":5126,
			"count":389,
			"max":[
				2.2059998512268066,
				0.8999999761581421,
				-0.5559999942779541
			],
			"min":[
				0.5539999008178711,
				0.46299993991851807,
				-3.3000004291534424
			],
			"type":"VEC3"
		},
		{
			"bufferView":56,
			"componentType":5126,
			"count":389,
			"type":"VEC3"
		},
		{
			"bufferView":57,
			"componentType":5126,
			"count":389,
			"type":"VEC2"
		},
		{
			"bufferView":58,
			"componentType":5126,
			"count":389,
			"type":"VEC4"
		},
		{
			"bufferView":59,
			"componentType":5123,
			"count":636,
			"type":"SCALAR"
		},
		{
			"bufferView":60,
			"componentType":5126,
			"count":1983,
			"max":[
				2.760000467300415,
				2.1000003814697266,
				-1.5250002145767212
			],
			"min":[
				2.179999589920044,
				0.10000000149011612,
				-2.2750003337860107
			],
			"type":"VEC3"
		},
		{
			"bufferView":61,
			"componentType":5126,
			"count":1983,
			"type":"VEC3"
		},
		{
			"bufferView":62,
			"componentType":5126,
			"count":1983,
			"type":"VEC2"
		},
		{
			"bufferView":63,
			"componentType":5126,
			"count":1983,
			"type":"VEC4"
		},
		{
			"bufferView":64,
			"componentType":5123,
			"count":2256,
			"type":"SCALAR"
		},
		{
			"bufferView":65,
			"componentType":5126,
			"count":586,
			"max":[
				2.177999973297119,
				2.0980000495910645,
				-1.5270001888275146
			],
			"min":[
				2.1599996089935303,
				0.10200000554323196,
				-2.2729997634887695
			],
			"type":"VEC3"
		},
		{
			"bufferView":66,
			"componentType":5126,
			"count":586,
			"type":"VEC3"
		},
		{
			"bufferView":67,
			"componentType":5126,
			"count":586,
			"type":"VEC2"
		},
		{
			"bufferView":68,
			"componentType":5126,
			"count":586,
			"type":"VEC4"
		},
		{
			"bufferView":69,
			"componentType":5123,
			"count":648,
			"type":"SCALAR"
		},
		{
			"bufferView":70,
			"componentType":5126,
			"count":1514,
			"max":[
				2.757000684738159,
				2.700000286102295,
				-1.5250002145767212
			],
			"min":[
				2.179999589920044,
				2.1000001430511475,
				-2.2749996185302734
			],
			"type":"VEC3"
		},
		{
			"bufferView":71,
			"componentType":5126,
			"count":1514,
			"type":"VEC3"
		},
		{
			"bufferView":72,
			"componentType":5126,
			"count":1514,
			"type":"VEC2"
		},
		{
			"bufferView":73,
			"componentType":5126,
			"count":1514,
			"type":"VEC4"
		},
		{
			"bufferView":74,
			"componentType":5123,
			"count":1620,
			"type":"SCALAR"
		},
		{
			"bufferView":75,
			"componentType":5126,
			"count":608,
			"max":[
				2.177999973297119,
				2.697999954223633,
				-1.5270001888275146
			],
			"min":[
				2.1599996089935303,
				2.1020002365112305,
				-2.2730000019073486
			],
			"type":"VEC3"
		},
		{
			"bufferView":76,
			"componentType":5126,
			"count":608,
			"type":"VEC3"
		},
		{
			"bufferView":77,
			"componentType":5126,
			"count":608,
			"type":"VEC2"
		},
		{
			"bufferView":78,
			"componentType":5126,
			"count":608,
			"type":"VEC4"
		},
		{
			"bufferView":79,
			"componentType":5123,
			"count":648,
			"type":"SCALAR"
		},
		{
			"bufferView":80,
			"componentType":5126,
			"count":297,
			"max":[
				2.7330007553100586,
				2.6999998092651367,
				-1.5250002145767212
			],
			"min":[
				2.7300002574920654,
				2.1000003814697266,
				-2.2749996185302734
			],
			"type":"VEC3"
		},
		{
			"bufferView":81,
			"componentType":5126,
			"count":297,
			"type":"VEC3"
		},
		{
			"bufferView":82,
			"componentType":5126,
			"count":297,
			"type":"VEC2"
		},
		{
			"bufferView":83,
			"componentType":5126,
			"count":297,
			"type":"VEC4"
		},
		{
			"bufferView":84,
			"componentType":5123,
			"count":324,
			"type":"SCALAR"
		},
		{
			"bufferView":85,
			"componentType":5126,
			"count":3777,
			"max":[
				2.5799999237060547,
				2.1000003814697266,
				-1.2090001106262207
			],
			"min":[
				2.179999589920044,
				0.10000000149011612,
				-1.5250002145767212
			],
			"type":"VEC3"
		},
		{
			"bufferView":86,
			"componentType":5126,
			"count":3777,
			"type":"VEC3"
		},
		{
			"bufferView":87,
			"componentType":5126,
			"count":3777,
			"type":"VEC2"
		},
		{
			"bufferView":88,
			"componentType":5126,
			"count":3777,
			"type":"VEC4"
		},
		{
			"bufferView":89,
			"componentType":5123,
			"count":4200,
			"type":"SCALAR"
		},
		{
			"bufferView":90,
			"componentType":5126,
			"count":294,
			"max":[
				2.177999973297119,
				0.8420000672340393,
				-1.2110000848770142
			],
			"min":[
				2.1599996089935303,
				0.10199999809265137,
				-1.5230002403259277
			],
			"type":"VEC3"
		},
		{
			"bufferView":91,
			"componentType":5126,
			"count":294,
			"type":"VEC3"
		},
		{
			"bufferView":92,
			"componentType":5126,
			"count":294,
			"type":"VEC2"
		},
		{
			"bufferView":93,
			"componentType":5126,
			"count":294,
			"type":"VEC4"
		},
		{
			"bufferView":94,
			"componentType":5123,
			"count":324,
			"type":"SCALAR"
		},
		{
			"bufferView":95,
			"componentType":5126,
			"count":306,
			"max":[
				2.5329999923706055,
				2.1000003814697266,
				-1.2000001668930054
			],
			"min":[
				2.5299994945526123,
				0.10000000149011612,
				-1.5250002145767212
			],
			"type":"VEC3"
		},
		{
			"bufferView":96,
			"componentType":5126,
			"count":306,
			"type":"VEC3"
		},
		{
			"bufferView":97,
			"componentType":5126,
			"count":306,
			"type":"VEC2"
		},
		{
			"bufferView":98,
			"componentType":5126,
			"count":306,
			"type":"VEC4"
		},
		{
			"bufferView":99,
			"componentType":5123,
			"count":324,
			"type":"SCALAR"
		},
		{
			"bufferView":100,
			"componentType":5126,
			"count":1500,
			"max":[
				2.5799999237060547,
				2.5199999809265137,
				-1.2090001106262207
			],
			"min":[
				2.179999589920044,
				2.1000001430511475,
				-1.5250002145767212
			],
			"type":"VEC3"
		},
		{
			"bufferView":101,
			"componentType":5126,
			"count":1500,
			"type":"VEC3"
		},
		{
			"bufferView":102,
			"componentType":5126,
			"count":1500,
			"type":"VEC2"
		},
		{
			"bufferView":103,
			"componentType":5126,
			"count":1500,
			"type":"VEC4"
		},
		{
			"bufferView":104,
			"componentType":5123,
			"count":1620,
			"type":"SCALAR"
		},
		{
			"bufferView":105,
			"componentType":5126,
			"count":799,
			"max":[
				2.177999973297119,
				2.700000047683716,
				-1.2020001411437988
			],
			"min":[
				2.1599996089935303,
				2.1019997596740723,
				-1.5230003595352173
			],
			"type":"VEC3"
		},
		{
			"bufferView":106,
			"componentType":5126,
			"count":799,
			"type":"VEC3"
		},
		{
			"bufferView":107,
			"componentType":5126,
			"count":799,
			"type":"VEC2"
		},
		{
			"bufferView":108,
			"componentType":5126,
			"count":799,
			"type":"VEC4"
		},
		{
			"bufferView":109,
			"componentType":5123,
			"count":888,
			"type":"SCALAR"
		},
		{
			"bufferView":110,
			"componentType":5126,
			"count":298,
			"max":[
				2.5329999923706055,
				2.5250000953674316,
				-1.2000001668930054
			],
			"min":[
				2.5299994945526123,
				2.1000003814697266,
				-1.5250002145767212
			],
			"type":"VEC3"
		},
		{
			"bufferView":111,
			"componentType":5126,
			"count":298,
			"type":"VEC3"
		},
		{
			"bufferView":112,
			"componentType":5126,
			"count":298,
			"type":"VEC2"
		},
		{
			"bufferView":113,
			"componentType":5126,
			"count":298,
			"type":"VEC4"
		},
		{
			"bufferView":114,
			"componentType":5123,
			"count":324,
			"type":"SCALAR"
		},
		{
			"bufferView":115,
			"componentType":5126,
			"count":1100,
			"max":[
				2.75700044631958,
				2.700000286102295,
				0.0019011793192476034
			],
			"min":[
				2.159999370574951,
				1.5,
				-0.5980989933013916
			],
			"type":"VEC3"
		},
		{
			"bufferView":116,
			"componentType":5126,
			"count":1100,
			"type":"VEC3"
		},
		{
			"bufferView":117,
			"componentType":5126,
			"count":1100,
			"type":"VEC2"
		},
		{
			"bufferView":118,
			"componentType":5126,
			"count":1100,
			"type":"VEC4"
		},
		{
			"bufferView":119,
			"componentType":5123,
			"count":1320,
			"type":"SCALAR"
		},
		{
			"bufferView":120,
			"componentType":5126,
			"count":322,
			"max":[
				2.178341865539551,
				2.697997808456421,
				-9.876125841401517e-05
			],
			"min":[
				2.16034197807312,
				1.7020000219345093,
				-0.5960988998413086
			],
			"type":"VEC3"
		},
		{
			"bufferView":121,
			"componentType":5126,
			"count":322,
			"type":"VEC3"
		},
		{
			"bufferView":122,
			"componentType":5126,
			"count":322,
			"type":"VEC2"
		},
		{
			"bufferView":123,
			"componentType":5126,
			"count":322,
			"type":"VEC4"
		},
		{
			"bufferView":124,
			"componentType":5123,
			"count":396,
			"type":"SCALAR"
		},
		{
			"bufferView":125,
			"componentType":5126,
			"count":340,
			"max":[
				2.760000228881836,
				2.700000286102295,
				0.0019011662807315588
			],
			"min":[
				2.757000207901001,
				1.5,
				-0.598098874092102
			],
			"type":"VEC3"
		},
		{
			"bufferView":126,
			"componentType":5126,
			"count":340,
			"type":"VEC3"
		},
		{
			"bufferView":127,
			"componentType":5126,
			"count":340,
			"type":"VEC2"
		},
		{
			"bufferView":128,
			"componentType":5126,
			"count":340,
			"type":"VEC4"
		},
		{
			"bufferView":129,
			"componentType":5123,
			"count":396,
			"type":"SCALAR"
		},
		{
			"bufferView":130,
			"componentType":5126,
			"count":1780,
			"max":[
				2.760000228881836,
				2.1000003814697266,
				-0.6000574827194214
			],
			"min":[
				2.1798150539398193,
				0.10000000149011612,
				-1.2000575065612793
			],
			"type":"VEC3"
		},
		{
			"bufferView":131,
			"componentType":5126,
			"count":1780,
			"type":"VEC3"
		},
		{
			"bufferView":132,
			"componentType":5126,
			"count":1780,
			"type":"VEC2"
		},
		{
			"bufferView":133,
			"componentType":5126,
			"count":1780,
			"type":"VEC4"
		},
		{
			"bufferView":134,
			"componentType":5123,
			"count":1944,
			"type":"SCALAR"
		},
		{
			"bufferView":135,
			"componentType":5126,
			"count":868,
			"max":[
				2.1778149604797363,
				2.0980002880096436,
				-0.6020574569702148
			],
			"min":[
				2.1598150730133057,
				0.10199999809265137,
				-1.1980575323104858
			],
			"type":"VEC3"
		},
		{
			"bufferView":136,
			"componentType":5126,
			"count":868,
			"type":"VEC3"
		},
		{
			"bufferView":137,
			"componentType":5126,
			"count":868,
			"type":"VEC2"
		},
		{
			"bufferView":138,
			"componentType":5126,
			"count":868,
			"type":"VEC4"
		},
		{
			"bufferView":139,
			"componentType":5123,
			"count":972,
			"type":"SCALAR"
		},
		{
			"bufferView":140,
			"componentType":5126,
			"count":304,
			"max":[
				2.7328176498413086,
				2.1000001430511475,
				-0.6000574827194214
			],
			"min":[
				2.7298176288604736,
				0.10000003129243851,
				-1.2000575065612793
			],
			"type":"VEC3"
		},
		{
			"bufferView":141,
			"componentType":5126,
			"count":304,
			"type":"VEC3"
		},
		{
			"bufferView":142,
			"componentType":5126,
			"count":304,
			"type":"VEC2"
		},
		{
			"bufferView":143,
			"componentType":5126,
			"count":304,
			"type":"VEC4"
		},
		{
			"bufferView":144,
			"componentType":5123,
			"count":324,
			"type":"SCALAR"
		},
		{
			"bufferView":145,
			"componentType":5126,
			"count":1510,
			"max":[
				2.75700044631958,
				2.6999998092651367,
				-0.6000574827194214
			],
			"min":[
				2.1798150539398193,
				2.1000001430511475,
				-1.2000575065612793
			],
			"type":"VEC3"
		},
		{
			"bufferView":146,
			"componentType":5126,
			"count":1510,
			"type":"VEC3"
		},
		{
			"bufferView":147,
			"componentType":5126,
			"count":1510,
			"type":"VEC2"
		},
		{
			"bufferView":148,
			"componentType":5126,
			"count":1510,
			"type":"VEC4"
		},
		{
			"bufferView":149,
			"componentType":5123,
			"count":1620,
			"type":"SCALAR"
		},
		{
			"bufferView":150,
			"componentType":5126,
			"count":580,
			"max":[
				2.1778149604797363,
				2.697997808456421,
				-0.6020574569702148
			],
			"min":[
				2.1598150730133057,
				2.1020002365112305,
				-1.1980575323104858
			],
			"type":"VEC3"
		},
		{
			"bufferView":151,
			"componentType":5126,
			"count":580,
			"type":"VEC3"
		},
		{
			"bufferView":152,
			"componentType":5126,
			"count":580,
			"type":"VEC2"
		},
		{
			"bufferView":153,
			"componentType":5126,
			"count":580,
			"type":"VEC4"
		},
		{
			"bufferView":154,
			"componentType":5123,
			"count":648,
			"type":"SCALAR"
		},
		{
			"bufferView":155,
			"componentType":5126,
			"count":302,
			"max":[
				2.7328176498413086,
				2.6999998092651367,
				-0.6000574827194214
			],
			"min":[
				2.7298176288604736,
				2.1000001430511475,
				-1.2000575065612793
			],
			"type":"VEC3"
		},
		{
			"bufferView":156,
			"componentType":5126,
			"count":302,
			"type":"VEC3"
		},
		{
			"bufferView":157,
			"componentType":5126,
			"count":302,
			"type":"VEC2"
		},
		{
			"bufferView":158,
			"componentType":5126,
			"count":302,
			"type":"VEC4"
		},
		{
			"bufferView":159,
			"componentType":5123,
			"count":324,
			"type":"SCALAR"
		},
		{
			"bufferView":160,
			"componentType":5126,
			"count":1768,
			"max":[
				2.7549991607666016,
				2.7200000286102295,
				-2.2929999828338623
			],
			"min":[
				2.1599996089935303,
				0,
				-2.315000057220459
			],
			"type":"VEC3"
		},
		{
			"bufferView":161,
			"componentType":5126,
			"count":1768,
			"type":"VEC3"
		},
		{
			"bufferView":162,
			"componentType":5126,
			"count":1768,
			"type":"VEC2"
		},
		{
			"bufferView":163,
			"componentType":5126,
			"count":1768,
			"type":"VEC4"
		},
		{
			"bufferView":164,
			"componentType":5123,
			"count":1944,
			"type":"SCALAR"
		},
		{
			"bufferView":165,
			"componentType":5126,
			"count":11107,
			"max":[
				2.750000238418579,
				2.7200002670288086,
				0.7400001287460327
			],
			"min":[
				1.682029804328522e-08,
				0,
				0.20000004768371582
			],
			"type":"VEC3"
		},
		{
			"bufferView":166,
			"componentType":5126,
			"count":11107,
			"type":"VEC3"
		},
		{
			"bufferView":167,
			"componentType":5126,
			"count":11107,
			"type":"VEC2"
		},
		{
			"bufferView":168,
			"componentType":5126,
			"count":11107,
			"type":"VEC4"
		},
		{
			"bufferView":169,
			"componentType":5123,
			"count":12360,
			"type":"SCALAR"
		},
		{
			"bufferView":170,
			"componentType":5126,
			"count":1049,
			"max":[
				2.75,
				2.702000379562378,
				0.7200000882148743
			],
			"min":[
				0.01800001785159111,
				0.10000000149011612,
				0.20000004768371582
			],
			"type":"VEC3"
		},
		{
			"bufferView":171,
			"componentType":5126,
			"count":1049,
			"type":"VEC3"
		},
		{
			"bufferView":172,
			"componentType":5126,
			"count":1049,
			"type":"VEC2"
		},
		{
			"bufferView":173,
			"componentType":5126,
			"count":1049,
			"type":"VEC4"
		},
		{
			"bufferView":174,
			"componentType":5123,
			"count":1188,
			"type":"SCALAR"
		},
		{
			"bufferView":175,
			"componentType":5126,
			"count":482,
			"max":[
				2.75,
				0.48600003123283386,
				0.6000000238418579
			],
			"min":[
				1.8360000848770142,
				0.42600002884864807,
				0.20000004768371582
			],
			"type":"VEC3"
		},
		{
			"bufferView":176,
			"componentType":5126,
			"count":482,
			"type":"VEC3"
		},
		{
			"bufferView":177,
			"componentType":5126,
			"count":482,
			"type":"VEC2"
		},
		{
			"bufferView":178,
			"componentType":5126,
			"count":482,
			"type":"VEC4"
		},
		{
			"bufferView":179,
			"componentType":5123,
			"count":564,
			"type":"SCALAR"
		},
		{
			"bufferView":180,
			"componentType":5126,
			"count":278,
			"max":[
				0.5999997854232788,
				0.9000000357627869,
				-3.299999952316284
			],
			"min":[
				-2.898939044371218e-07,
				0,
				-3.317999839782715
			],
			"type":"VEC3"
		},
		{
			"bufferView":181,
			"componentType":5126,
			"count":278,
			"type":"VEC3"
		},
		{
			"bufferView":182,
			"componentType":5126,
			"count":278,
			"type":"VEC2"
		},
		{
			"bufferView":183,
			"componentType":5126,
			"count":278,
			"type":"VEC4"
		},
		{
			"bufferView":184,
			"componentType":5123,
			"count":324,
			"type":"SCALAR"
		},
		{
			"bufferView":185,
			"componentType":5126,
			"count":3473,
			"max":[
				4.954996109008789,
				0.7580000758171082,
				1.7999703884124756
			],
			"min":[
				4.784996032714844,
				0,
				0.599970281124115
			],
			"type":"VEC3"
		},
		{
			"bufferView":186,
			"componentType":5126,
			"count":3473,
			"type":"VEC3"
		},
		{
			"bufferView":187,
			"componentType":5126,
			"count":3473,
			"type":"VEC2"
		},
		{
			"bufferView":188,
			"componentType":5126,
			"count":3473,
			"type":"VEC4"
		},
		{
			"bufferView":189,
			"componentType":5123,
			"count":3888,
			"type":"SCALAR"
		},
		{
			"bufferView":190,
			"componentType":5126,
			"count":896,
			"max":[
				2.759999990463257,
				2.7179999351501465,
				-1.8900804832355789e-07
			],
			"min":[
				2.1599996089935303,
				0,
				-2.2929999828338623
			],
			"type":"VEC3"
		},
		{
			"bufferView":191,
			"componentType":5126,
			"count":896,
			"type":"VEC3"
		},
		{
			"bufferView":192,
			"componentType":5126,
			"count":896,
			"type":"VEC2"
		},
		{
			"bufferView":193,
			"componentType":5126,
			"count":896,
			"type":"VEC4"
		},
		{
			"bufferView":194,
			"componentType":5123,
			"count":972,
			"type":"SCALAR"
		},
		{
			"bufferView":195,
			"componentType":5126,
			"count":846,
			"max":[
				1.5399998426437378,
				2.2900004386901855,
				-0.010000109672546387
			],
			"min":[
				1.159999966621399,
				1.5000001192092896,
				-0.3900001645088196
			],
			"type":"VEC3"
		},
		{
			"bufferView":196,
			"componentType":5126,
			"count":846,
			"type":"VEC3"
		},
		{
			"bufferView":197,
			"componentType":5126,
			"count":846,
			"type":"VEC2"
		},
		{
			"bufferView":198,
			"componentType":5126,
			"count":846,
			"type":"VEC4"
		},
		{
			"bufferView":199,
			"componentType":5123,
			"count":1140,
			"type":"SCALAR"
		},
		{
			"bufferView":200,
			"componentType":5126,
			"count":1592,
			"max":[
				0.8500000834465027,
				1.5240000486373901,
				-1.7484556857905176e-10
			],
			"min":[
				-1.587597608931901e-07,
				1.4739999771118164,
				-1.818000078201294
			],
			"type":"VEC3"
		},
		{
			"bufferView":201,
			"componentType":5126,
			"count":1592,
			"type":"VEC3"
		},
		{
			"bufferView":202,
			"componentType":5126,
			"count":1592,
			"type":"VEC2"
		},
		{
			"bufferView":203,
			"componentType":5126,
			"count":1592,
			"type":"VEC4"
		},
		{
			"bufferView":204,
			"componentType":5123,
			"count":1836,
			"type":"SCALAR"
		},
		{
			"bufferView":205,
			"componentType":5126,
			"count":98,
			"max":[
				0.8314143419265747,
				1.4908455610275269,
				-0.0005857847863808274
			],
			"min":[
				0.0005856291390955448,
				1.4900001287460327,
				-1.7984142303466797
			],
			"type":"VEC3"
		},
		{
			"bufferView":206,
			"componentType":5126,
			"count":98,
			"type":"VEC3"
		},
		{
			"bufferView":207,
			"componentType":5126,
			"count":98,
			"type":"VEC2"
		},
		{
			"bufferView":208,
			"componentType":5126,
			"count":98,
			"type":"VEC4"
		},
		{
			"bufferView":209,
			"componentType":5123,
			"count":108,
			"type":"SCALAR"
		},
		{
			"bufferView":210,
			"componentType":5126,
			"count":1056,
			"max":[
				0.8520000576972961,
				1.5500000715255737,
				-1.7484556857905176e-10
			],
			"min":[
				-1.5709863987467543e-07,
				1.4500000476837158,
				-1.818000078201294
			],
			"type":"VEC3"
		},
		{
			"bufferView":211,
			"componentType":5126,
			"count":1056,
			"type":"VEC3"
		},
		{
			"bufferView":212,
			"componentType":5126,
			"count":1056,
			"type":"VEC2"
		},
		{
			"bufferView":213,
			"componentType":5126,
			"count":1056,
			"type":"VEC4"
		},
		{
			"bufferView":214,
			"componentType":5123,
			"count":1188,
			"type":"SCALAR"
		},
		{
			"bufferView":215,
			"componentType":5126,
			"count":98,
			"max":[
				0.8314143419265747,
				1.470845341682434,
				-0.0005857933429069817
			],
			"min":[
				0.0005856291390955448,
				1.4700000286102295,
				-1.7974143028259277
			],
			"type":"VEC3"
		},
		{
			"bufferView":216,
			"componentType":5126,
			"count":98,
			"type":"VEC3"
		},
		{
			"bufferView":217,
			"componentType":5126,
			"count":98,
			"type":"VEC2"
		},
		{
			"bufferView":218,
			"componentType":5126,
			"count":98,
			"type":"VEC4"
		},
		{
			"bufferView":219,
			"componentType":5123,
			"count":108,
			"type":"SCALAR"
		},
		{
			"bufferView":220,
			"componentType":5126,
			"count":548,
			"max":[
				0.8500000834465027,
				1.5260001420974731,
				-2.0319729232554096e-10
			],
			"min":[
				1.1175870895385742e-08,
				1.4820001125335693,
				-1.818000078201294
			],
			"type":"VEC3"
		},
		{
			"bufferView":221,
			"componentType":5126,
			"count":548,
			"type":"VEC3"
		},
		{
			"bufferView":222,
			"componentType":5126,
			"count":548,
			"type":"VEC2"
		},
		{
			"bufferView":223,
			"componentType":5126,
			"count":548,
			"type":"VEC4"
		},
		{
			"bufferView":224,
			"componentType":5123,
			"count":648,
			"type":"SCALAR"
		},
		{
			"bufferView":225,
			"componentType":5126,
			"count":2492,
			"max":[
				0.5799999237060547,
				0.8999999761581421,
				-1.3000001907348633
			],
			"min":[
				0.029999805614352226,
				0.10000000149011612,
				-1.9000003337860107
			],
			"type":"VEC3"
		},
		{
			"bufferView":226,
			"componentType":5126,
			"count":2492,
			"type":"VEC3"
		},
		{
			"bufferView":227,
			"componentType":5126,
			"count":2492,
			"type":"VEC2"
		},
		{
			"bufferView":228,
			"componentType":5126,
			"count":2492,
			"type":"VEC4"
		},
		{
			"bufferView":229,
			"componentType":5123,
			"count":2916,
			"type":"SCALAR"
		},
		{
			"bufferView":230,
			"componentType":5126,
			"count":296,
			"max":[
				0.5999999046325684,
				0.8600000143051147,
				-1.3020001649856567
			],
			"min":[
				0.5819997787475586,
				0.10199999809265137,
				-1.8980003595352173
			],
			"type":"VEC3"
		},
		{
			"bufferView":231,
			"componentType":5126,
			"count":296,
			"type":"VEC3"
		},
		{
			"bufferView":232,
			"componentType":5126,
			"count":296,
			"type":"VEC2"
		},
		{
			"bufferView":233,
			"componentType":5126,
			"count":296,
			"type":"VEC4"
		},
		{
			"bufferView":234,
			"componentType":5123,
			"count":324,
			"type":"SCALAR"
		},
		{
			"bufferView":235,
			"componentType":5126,
			"count":387,
			"max":[
				0.029999883845448494,
				0.8999999761581421,
				-1.3000001907348633
			],
			"min":[
				0.026999834924936295,
				0.10000000149011612,
				-1.9000003337860107
			],
			"type":"VEC3"
		},
		{
			"bufferView":236,
			"componentType":5126,
			"count":387,
			"type":"VEC3"
		},
		{
			"bufferView":237,
			"componentType":5126,
			"count":387,
			"type":"VEC2"
		},
		{
			"bufferView":238,
			"componentType":5126,
			"count":387,
			"type":"VEC4"
		},
		{
			"bufferView":239,
			"componentType":5123,
			"count":540,
			"type":"SCALAR"
		},
		{
			"bufferView":240,
			"componentType":5126,
			"count":2472,
			"max":[
				0.5799998044967651,
				0.8999999761581421,
				-1.9000003337860107
			],
			"min":[
				0.029999753460288048,
				0.10000000149011612,
				-2.500000238418579
			],
			"type":"VEC3"
		},
		{
			"bufferView":241,
			"componentType":5126,
			"count":2472,
			"type":"VEC3"
		},
		{
			"bufferView":242,
			"componentType":5126,
			"count":2472,
			"type":"VEC2"
		},
		{
			"bufferView":243,
			"componentType":5126,
			"count":2472,
			"type":"VEC4"
		},
		{
			"bufferView":244,
			"componentType":5123,
			"count":2916,
			"type":"SCALAR"
		},
		{
			"bufferView":245,
			"componentType":5126,
			"count":594,
			"max":[
				0.5999997854232788,
				0.8600000143051147,
				-1.9020003080368042
			],
			"min":[
				0.5819997787475586,
				0.10199999809265137,
				-2.498000144958496
			],
			"type":"VEC3"
		},
		{
			"bufferView":246,
			"componentType":5126,
			"count":594,
			"type":"VEC3"
		},
		{
			"bufferView":247,
			"componentType":5126,
			"count":594,
			"type":"VEC2"
		},
		{
			"bufferView":248,
			"componentType":5126,
			"count":594,
			"type":"VEC4"
		},
		{
			"bufferView":249,
			"componentType":5123,
			"count":648,
			"type":"SCALAR"
		},
		{
			"bufferView":250,
			"componentType":5126,
			"count":284,
			"max":[
				0.029999831691384315,
				0.8999999761581421,
				-1.9000003337860107
			],
			"min":[
				0.026999782770872116,
				0.10000000149011612,
				-2.500000238418579
			],
			"type":"VEC3"
		},
		{
			"bufferView":251,
			"componentType":5126,
			"count":284,
			"type":"VEC3"
		},
		{
			"bufferView":252,
			"componentType":5126,
			"count":284,
			"type":"VEC2"
		},
		{
			"bufferView":253,
			"componentType":5126,
			"count":284,
			"type":"VEC4"
		},
		{
			"bufferView":254,
			"componentType":5123,
			"count":324,
			"type":"SCALAR"
		},
		{
			"bufferView":255,
			"componentType":5126,
			"count":2440,
			"max":[
				0.5799998044967651,
				0.8999999165534973,
				-2.500000238418579
			],
			"min":[
				0.02999970130622387,
				0.10000000149011612,
				-3.3000001907348633
			],
			"type":"VEC3"
		},
		{
			"bufferView":256,
			"componentType":5126,
			"count":2440,
			"type":"VEC3"
		},
		{
			"bufferView":257,
			"componentType":5126,
			"count":2440,
			"type":"VEC2"
		},
		{
			"bufferView":258,
			"componentType":5126,
			"count":2440,
			"type":"VEC4"
		},
		{
			"bufferView":259,
			"componentType":5123,
			"count":2916,
			"type":"SCALAR"
		},
		{
			"bufferView":260,
			"componentType":5126,
			"count":568,
			"max":[
				0.5999997854232788,
				0.8600000143051147,
				-2.502000331878662
			],
			"min":[
				0.5819997787475586,
				0.10199999809265137,
				-3.2980000972747803
			],
			"type":"VEC3"
		},
		{
			"bufferView":261,
			"componentType":5126,
			"count":568,
			"type":"VEC3"
		},
		{
			"bufferView":262,
			"componentType":5126,
			"count":568,
			"type":"VEC2"
		},
		{
			"bufferView":263,
			"componentType":5126,
			"count":568,
			"type":"VEC4"
		},
		{
			"bufferView":264,
			"componentType":5123,
			"count":648,
			"type":"SCALAR"
		},
		{
			"bufferView":265,
			"componentType":5126,
			"count":3182,
			"max":[
				1.6500000953674316,
				0.8999999761581421,
				-0.03000009059906006
			],
			"min":[
				1.0500000715255737,
				0.10000000149011612,
				-0.5800001621246338
			],
			"type":"VEC3"
		},
		{
			"bufferView":266,
			"componentType":5126,
			"count":3182,
			"type":"VEC3"
		},
		{
			"bufferView":267,
			"componentType":5126,
			"count":3182,
			"type":"VEC2"
		},
		{
			"bufferView":268,
			"componentType":5126,
			"count":3182,
			"type":"VEC4"
		},
		{
			"bufferView":269,
			"componentType":5123,
			"count":3732,
			"type":"SCALAR"
		},
		{
			"bufferView":270,
			"componentType":5126,
			"count":570,
			"max":[
				1.6480001211166382,
				0.8600000143051147,
				-0.5820001363754272
			],
			"min":[
				1.0520000457763672,
				0.10199999809265137,
				-0.6000001430511475
			],
			"type":"VEC3"
		},
		{
			"bufferView":271,
			"componentType":5126,
			"count":570,
			"type":"VEC3"
		},
		{
			"bufferView":272,
			"componentType":5126,
			"count":570,
			"type":"VEC2"
		},
		{
			"bufferView":273,
			"componentType":5126,
			"count":570,
			"type":"VEC4"
		},
		{
			"bufferView":274,
			"componentType":5123,
			"count":648,
			"type":"SCALAR"
		},
		{
			"bufferView":275,
			"componentType":5126,
			"count":291,
			"max":[
				1.6500000953674316,
				0.8999999761581421,
				-0.02700008824467659
			],
			"min":[
				1.0500000715255737,
				0.10000000149011612,
				-0.030000144615769386
			],
			"type":"VEC3"
		},
		{
			"bufferView":276,
			"componentType":5126,
			"count":291,
			"type":"VEC3"
		},
		{
			"bufferView":277,
			"componentType":5126,
			"count":291,
			"type":"VEC2"
		},
		{
			"bufferView":278,
			"componentType":5126,
			"count":291,
			"type":"VEC4"
		},
		{
			"bufferView":279,
			"componentType":5123,
			"count":324,
			"type":"SCALAR"
		},
		{
			"bufferView":280,
			"componentType":5126,
			"count":1937,
			"max":[
				2.7300000190734863,
				0.8999999761581421,
				-0.030000142753124237
			],
			"min":[
				1.6500000953674316,
				0.10000000149011612,
				-0.600000262260437
			],
			"type":"VEC3"
		},
		{
			"bufferView":281,
			"componentType":5126,
			"count":1937,
			"type":"VEC3"
		},
		{
			"bufferView":282,
			"componentType":5126,
			"count":1937,
			"type":"VEC2"
		},
		{
			"bufferView":283,
			"componentType":5126,
			"count":1937,
			"type":"VEC4"
		},
		{
			"bufferView":284,
			"componentType":5123,
			"count":2184,
			"type":"SCALAR"
		},
		{
			"bufferView":285,
			"componentType":5126,
			"count":286,
			"max":[
				2.1579997539520264,
				0.8600000143051147,
				-0.5820000767707825
			],
			"min":[
				1.652000069618225,
				0.10199999809265137,
				-0.600000262260437
			],
			"type":"VEC3"
		},
		{
			"bufferView":286,
			"componentType":5126,
			"count":286,
			"type":"VEC3"
		},
		{
			"bufferView":287,
			"componentType":5126,
			"count":286,
			"type":"VEC2"
		},
		{
			"bufferView":288,
			"componentType":5126,
			"count":286,
			"type":"VEC4"
		},
		{
			"bufferView":289,
			"componentType":5123,
			"count":324,
			"type":"SCALAR"
		},
		{
			"bufferView":290,
			"componentType":5126,
			"count":284,
			"max":[
				2.7300000190734863,
				0.8999999761581421,
				-0.02700014039874077
			],
			"min":[
				1.6500000953674316,
				0.10000000149011612,
				-0.030000237748026848
			],
			"type":"VEC3"
		},
		{
			"bufferView":291,
			"componentType":5126,
			"count":284,
			"type":"VEC3"
		},
		{
			"bufferView":292,
			"componentType":5126,
			"count":284,
			"type":"VEC2"
		},
		{
			"bufferView":293,
			"componentType":5126,
			"count":284,
			"type":"VEC4"
		},
		{
			"bufferView":294,
			"componentType":5123,
			"count":324,
			"type":"SCALAR"
		},
		{
			"bufferView":295,
			"componentType":5126,
			"count":2269,
			"max":[
				1.0500000715255737,
				0.8999999761581421,
				-0.030000003054738045
			],
			"min":[
				0.029999911785125732,
				0.10000000149011612,
				-0.7000003457069397
			],
			"type":"VEC3"
		},
		{
			"bufferView":296,
			"componentType":5126,
			"count":2269,
			"type":"VEC3"
		},
		{
			"bufferView":297,
			"componentType":5126,
			"count":2269,
			"type":"VEC2"
		},
		{
			"bufferView":298,
			"componentType":5126,
			"count":2269,
			"type":"VEC4"
		},
		{
			"bufferView":299,
			"componentType":5123,
			"count":2664,
			"type":"SCALAR"
		},
		{
			"bufferView":300,
			"componentType":5126,
			"count":578,
			"max":[
				1.0480000972747803,
				0.85999995470047,
				-0.5810109376907349
			],
			"min":[
				0.5820000171661377,
				0.10199999809265137,
				-0.6980003714561462
			],
			"type":"VEC3"
		},
		{
			"bufferView":301,
			"componentType":5126,
			"count":578,
			"type":"VEC3"
		},
		{
			"bufferView":302,
			"componentType":5126,
			"count":578,
			"type":"VEC2"
		},
		{
			"bufferView":303,
			"componentType":5126,
			"count":578,
			"type":"VEC4"
		},
		{
			"bufferView":304,
			"componentType":5123,
			"count":648,
			"type":"SCALAR"
		},
		{
			"bufferView":305,
			"componentType":5126,
			"count":291,
			"max":[
				1.0500000715255737,
				0.8999999761581421,
				-0.026999998837709427
			],
			"min":[
				0.029999995604157448,
				0.10000000149011612,
				-0.030000092461705208
			],
			"type":"VEC3"
		},
		{
			"bufferView":306,
			"componentType":5126,
			"count":291,
			"type":"VEC3"
		},
		{
			"bufferView":307,
			"componentType":5126,
			"count":291,
			"type":"VEC2"
		},
		{
			"bufferView":308,
			"componentType":5126,
			"count":291,
			"type":"VEC4"
		},
		{
			"bufferView":309,
			"componentType":5123,
			"count":324,
			"type":"SCALAR"
		},
		{
			"bufferView":310,
			"componentType":5126,
			"count":290,
			"max":[
				0.6000000238418579,
				0.8600000143051147,
				-0.7020003199577332
			],
			"min":[
				0.5819998979568481,
				0.10199999809265137,
				-1.2980002164840698
			],
			"type":"VEC3"
		},
		{
			"bufferView":311,
			"componentType":5126,
			"count":290,
			"type":"VEC3"
		},
		{
			"bufferView":312,
			"componentType":5126,
			"count":290,
			"type":"VEC2"
		},
		{
			"bufferView":313,
			"componentType":5126,
			"count":290,
			"type":"VEC4"
		},
		{
			"bufferView":314,
			"componentType":5123,
			"count":324,
			"type":"SCALAR"
		}
	],
	"bufferViews":[
		{
			"buffer":0,
			"byteLength":15984,
			"byteOffset":0,
			"target":34962
		},
		{
			"buffer":0,
			"byteLength":15984,
			"byteOffset":15984,
			"target":34962
		},
		{
			"buffer":0,
			"byteLength":10656,
			"byteOffset":31968,
			"target":34962
		},
		{
			"buffer":0,
			"byteLength":21312,
			"byteOffset":42624,
			"target":34962
		},
		{
			"buffer":0,
			"byteLength":3696,
			"byteOffset":63936,
			"target":34963
		},
		{
			"buffer":0,
			"byteLength":3408,
			"byteOffset":67632,
			"target":34962
		},
		{
			"buffer":0,
			"byteLength":3408,
			"byteOffset":71040,
			"target":34962
		},
		{
			"buffer":0,
			"byteLength":2272,
			"byteOffset":74448,
			"target":34962
		},
		{
			"buffer":0,
			"byteLength":4544,
			"byteOffset":76720,
			"target":34962
		},
		{
			"buffer":0,
			"byteLength":648,
			"byteOffset":81264,
			"target":34963
		},
		{
			"buffer":0,
			"byteLength":3456,
			"byteOffset":81912,
			"target":34962
		},
		{
			"buffer":0,
			"byteLength":3456,
			"byteOffset":85368,
			"target":34962
		},
		{
			"buffer":0,
			"byteLength":2304,
			"byteOffset":88824,
			"target":34962
		},
		{
			"buffer":0,
			"byteLength":4608,
			"byteOffset":91128,
			"target":34962
		},
		{
			"buffer":0,
			"byteLength":648,
			"byteOffset":95736,
			"target":34963
		},
		{
			"buffer":0,
			"byteLength":6960,
			"byteOffset":96384,
			"target":34962
		},
		{
			"buffer":0,
			"byteLength":6960,
			"byteOffset":103344,
			"target":34962
		},
		{
			"buffer":0,
			"byteLength":4640,
			"byteOffset":110304,
			"target":34962
		},
		{
			"buffer":0,
			"byteLength":9280,
			"byteOffset":114944,
			"target":34962
		},
		{
			"buffer":0,
			"byteLength":1296,
			"byteOffset":124224,
			"target":34963
		},
		{
			"buffer":0,
			"byteLength":1008,
			"byteOffset":125520,
			"target":34962
		},
		{
			"buffer":0,
			"byteLength":1008,
			"byteOffset":126528,
			"target":34962
		},
		{
			"buffer":0,
			"byteLength":672,
			"byteOffset":127536,
			"target":34962
		},
		{
			"buffer":0,
			"byteLength":1344,
			"byteOffset":128208,
			"target":34962
		},
		{
			"buffer":0,
			"byteLength":252,
			"byteOffset":129552,
			"target":34963
		},
		{
			"buffer":0,
			"byteLength":312,
			"byteOffset":129804,
			"target":34962
		},
		{
			"buffer":0,
			"byteLength":312,
			"byteOffset":130116,
			"target":34962
		},
		{
			"buffer":0,
			"byteLength":208,
			"byteOffset":130428,
			"target":34962
		},
		{
			"buffer":0,
			"byteLength":416,
			"byteOffset":130636,
			"target":34962
		},
		{
			"buffer":0,
			"byteLength":72,
			"byteOffset":131052,
			"target":34963
		},
		{
			"buffer":0,
			"byteLength":206316,
			"byteOffset":131124,
			"target":34962
		},
		{
			"buffer":0,
			"byteLength":206316,
			"byteOffset":337440,
			"target":34962
		},
		{
			"buffer":0,
			"byteLength":137544,
			"byteOffset":543756,
			"target":34962
		},
		{
			"buffer":0,
			"byteLength":275088,
			"byteOffset":681300,
			"target":34962
		},
		{
			"buffer":0,
			"byteLength":39144,
			"byteOffset":956388,
			"target":34963
		},
		{
			"buffer":0,
			"byteLength":44772,
			"byteOffset":995532,
			"target":34962
		},
		{
			"buffer":0,
			"byteLength":44772,
			"byteOffset":1040304,
			"target":34962
		},
		{
			"buffer":0,
			"byteLength":29848,
			"byteOffset":1085076,
			"target":34962
		},
		{
			"buffer":0,
			"byteLength":59696,
			"byteOffset":1114924,
			"target":34962
		},
		{
			"buffer":0,
			"byteLength":10800,
			"byteOffset":1174620,
			"target":34963
		},
		{
			"buffer":0,
			"byteLength":104628,
			"byteOffset":1185420,
			"target":34962
		},
		{
			"buffer":0,
			"byteLength":104628,
			"byteOffset":1290048,
			"target":34962
		},
		{
			"buffer":0,
			"byteLength":69752,
			"byteOffset":1394676,
			"target":34962
		},
		{
			"buffer":0,
			"byteLength":139504,
			"byteOffset":1464428,
			"target":34962
		},
		{
			"buffer":0,
			"byteLength":30120,
			"byteOffset":1603932,
			"target":34963
		},
		{
			"buffer":0,
			"byteLength":9780,
			"byteOffset":1634052,
			"target":34962
		},
		{
			"buffer":0,
			"byteLength":9780,
			"byteOffset":1643832,
			"target":34962
		},
		{
			"buffer":0,
			"byteLength":6520,
			"byteOffset":1653612,
			"target":34962
		},
		{
			"buffer":0,
			"byteLength":13040,
			"byteOffset":1660132,
			"target":34962
		},
		{
			"buffer":0,
			"byteLength":3468,
			"byteOffset":1673172,
			"target":34963
		},
		{
			"buffer":0,
			"byteLength":2736,
			"byteOffset":1676640,
			"target":34962
		},
		{
			"buffer":0,
			"byteLength":2736,
			"byteOffset":1679376,
			"target":34962
		},
		{
			"buffer":0,
			"byteLength":1824,
			"byteOffset":1682112,
			"target":34962
		},
		{
			"buffer":0,
			"byteLength":3648,
			"byteOffset":1683936,
			"target":34962
		},
		{
			"buffer":0,
			"byteLength":768,
			"byteOffset":1687584,
			"target":34963
		},
		{
			"buffer":0,
			"byteLength":4668,
			"byteOffset":1688352,
			"target":34962
		},
		{
			"buffer":0,
			"byteLength":4668,
			"byteOffset":1693020,
			"target":34962
		},
		{
			"buffer":0,
			"byteLength":3112,
			"byteOffset":1697688,
			"target":34962
		},
		{
			"buffer":0,
			"byteLength":6224,
			"byteOffset":1700800,
			"target":34962
		},
		{
			"buffer":0,
			"byteLength":1272,
			"byteOffset":1707024,
			"target":34963
		},
		{
			"buffer":0,
			"byteLength":23796,
			"byteOffset":1708296,
			"target":34962
		},
		{
			"buffer":0,
			"byteLength":23796,
			"byteOffset":1732092,
			"target":34962
		},
		{
			"buffer":0,
			"byteLength":15864,
			"byteOffset":1755888,
			"target":34962
		},
		{
			"buffer":0,
			"byteLength":31728,
			"byteOffset":1771752,
			"target":34962
		},
		{
			"buffer":0,
			"byteLength":4512,
			"byteOffset":1803480,
			"target":34963
		},
		{
			"buffer":0,
			"byteLength":7032,
			"byteOffset":1807992,
			"target":34962
		},
		{
			"buffer":0,
			"byteLength":7032,
			"byteOffset":1815024,
			"target":34962
		},
		{
			"buffer":0,
			"byteLength":4688,
			"byteOffset":1822056,
			"target":34962
		},
		{
			"buffer":0,
			"byteLength":9376,
			"byteOffset":1826744,
			"target":34962
		},
		{
			"buffer":0,
			"byteLength":1296,
			"byteOffset":1836120,
			"target":34963
		},
		{
			"buffer":0,
			"byteLength":18168,
			"byteOffset":1837416,
			"target":34962
		},
		{
			"buffer":0,
			"byteLength":18168,
			"byteOffset":1855584,
			"target":34962
		},
		{
			"buffer":0,
			"byteLength":12112,
			"byteOffset":1873752,
			"target":34962
		},
		{
			"buffer":0,
			"byteLength":24224,
			"byteOffset":1885864,
			"target":34962
		},
		{
			"buffer":0,
			"byteLength":3240,
			"byteOffset":1910088,
			"target":34963
		},
		{
			"buffer":0,
			"byteLength":7296,
			"byteOffset":1913328,
			"target":34962
		},
		{
			"buffer":0,
			"byteLength":7296,
			"byteOffset":1920624,
			"target":34962
		},
		{
			"buffer":0,
			"byteLength":4864,
			"byteOffset":1927920,
			"target":34962
		},
		{
			"buffer":0,
			"byteLength":9728,
			"byteOffset":1932784,
			"target":34962
		},
		{
			"buffer":0,
			"byteLength":1296,
			"byteOffset":1942512,
			"target":34963
		},
		{
			"buffer":0,
			"byteLength":3564,
			"byteOffset":1943808,
			"target":34962
		},
		{
			"buffer":0,
			"byteLength":3564,
			"byteOffset":1947372,
			"target":34962
		},
		{
			"buffer":0,
			"byteLength":2376,
			"byteOffset":1950936,
			"target":34962
		},
		{
			"buffer":0,
			"byteLength":4752,
			"byteOffset":1953312,
			"target":34962
		},
		{
			"buffer":0,
			"byteLength":648,
			"byteOffset":1958064,
			"target":34963
		},
		{
			"buffer":0,
			"byteLength":45324,
			"byteOffset":1958712,
			"target":34962
		},
		{
			"buffer":0,
			"byteLength":45324,
			"byteOffset":2004036,
			"target":34962
		},
		{
			"buffer":0,
			"byteLength":30216,
			"byteOffset":2049360,
			"target":34962
		},
		{
			"buffer":0,
			"byteLength":60432,
			"byteOffset":2079576,
			"target":34962
		},
		{
			"buffer":0,
			"byteLength":8400,
			"byteOffset":2140008,
			"target":34963
		},
		{
			"buffer":0,
			"byteLength":3528,
			"byteOffset":2148408,
			"target":34962
		},
		{
			"buffer":0,
			"byteLength":3528,
			"byteOffset":2151936,
			"target":34962
		},
		{
			"buffer":0,
			"byteLength":2352,
			"byteOffset":2155464,
			"target":34962
		},
		{
			"buffer":0,
			"byteLength":4704,
			"byteOffset":2157816,
			"target":34962
		},
		{
			"buffer":0,
			"byteLength":648,
			"byteOffset":2162520,
			"target":34963
		},
		{
			"buffer":0,
			"byteLength":3672,
			"byteOffset":2163168,
			"target":34962
		},
		{
			"buffer":0,
			"byteLength":3672,
			"byteOffset":2166840,
			"target":34962
		},
		{
			"buffer":0,
			"byteLength":2448,
			"byteOffset":2170512,
			"target":34962
		},
		{
			"buffer":0,
			"byteLength":4896,
			"byteOffset":2172960,
			"target":34962
		},
		{
			"buffer":0,
			"byteLength":648,
			"byteOffset":2177856,
			"target":34963
		},
		{
			"buffer":0,
			"byteLength":18000,
			"byteOffset":2178504,
			"target":34962
		},
		{
			"buffer":0,
			"byteLength":18000,
			"byteOffset":2196504,
			"target":34962
		},
		{
			"buffer":0,
			"byteLength":12000,
			"byteOffset":2214504,
			"target":34962
		},
		{
			"buffer":0,
			"byteLength":24000,
			"byteOffset":2226504,
			"target":34962
		},
		{
			"buffer":0,
			"byteLength":3240,
			"byteOffset":2250504,
			"target":34963
		},
		{
			"buffer":0,
			"byteLength":9588,
			"byteOffset":2253744,
			"target":34962
		},
		{
			"buffer":0,
			"byteLength":9588,
			"byteOffset":2263332,
			"target":34962
		},
		{
			"buffer":0,
			"byteLength":6392,
			"byteOffset":2272920,
			"target":34962
		},
		{
			"buffer":0,
			"byteLength":12784,
			"byteOffset":2279312,
			"target":34962
		},
		{
			"buffer":0,
			"byteLength":1776,
			"byteOffset":2292096,
			"target":34963
		},
		{
			"buffer":0,
			"byteLength":3576,
			"byteOffset":2293872,
			"target":34962
		},
		{
			"buffer":0,
			"byteLength":3576,
			"byteOffset":2297448,
			"target":34962
		},
		{
			"buffer":0,
			"byteLength":2384,
			"byteOffset":2301024,
			"target":34962
		},
		{
			"buffer":0,
			"byteLength":4768,
			"byteOffset":2303408,
			"target":34962
		},
		{
			"buffer":0,
			"byteLength":648,
			"byteOffset":2308176,
			"target":34963
		},
		{
			"buffer":0,
			"byteLength":13200,
			"byteOffset":2308824,
			"target":34962
		},
		{
			"buffer":0,
			"byteLength":13200,
			"byteOffset":2322024,
			"target":34962
		},
		{
			"buffer":0,
			"byteLength":8800,
			"byteOffset":2335224,
			"target":34962
		},
		{
			"buffer":0,
			"byteLength":17600,
			"byteOffset":2344024,
			"target":34962
		},
		{
			"buffer":0,
			"byteLength":2640,
			"byteOffset":2361624,
			"target":34963
		},
		{
			"buffer":0,
			"byteLength":3864,
			"byteOffset":2364264,
			"target":34962
		},
		{
			"buffer":0,
			"byteLength":3864,
			"byteOffset":2368128,
			"target":34962
		},
		{
			"buffer":0,
			"byteLength":2576,
			"byteOffset":2371992,
			"target":34962
		},
		{
			"buffer":0,
			"byteLength":5152,
			"byteOffset":2374568,
			"target":34962
		},
		{
			"buffer":0,
			"byteLength":792,
			"byteOffset":2379720,
			"target":34963
		},
		{
			"buffer":0,
			"byteLength":4080,
			"byteOffset":2380512,
			"target":34962
		},
		{
			"buffer":0,
			"byteLength":4080,
			"byteOffset":2384592,
			"target":34962
		},
		{
			"buffer":0,
			"byteLength":2720,
			"byteOffset":2388672,
			"target":34962
		},
		{
			"buffer":0,
			"byteLength":5440,
			"byteOffset":2391392,
			"target":34962
		},
		{
			"buffer":0,
			"byteLength":792,
			"byteOffset":2396832,
			"target":34963
		},
		{
			"buffer":0,
			"byteLength":21360,
			"byteOffset":2397624,
			"target":34962
		},
		{
			"buffer":0,
			"byteLength":21360,
			"byteOffset":2418984,
			"target":34962
		},
		{
			"buffer":0,
			"byteLength":14240,
			"byteOffset":2440344,
			"target":34962
		},
		{
			"buffer":0,
			"byteLength":28480,
			"byteOffset":2454584,
			"target":34962
		},
		{
			"buffer":0,
			"byteLength":3888,
			"byteOffset":2483064,
			"target":34963
		},
		{
			"buffer":0,
			"byteLength":10416,
			"byteOffset":2486952,
			"target":34962
		},
		{
			"buffer":0,
			"byteLength":10416,
			"byteOffset":2497368,
			"target":34962
		},
		{
			"buffer":0,
			"byteLength":6944,
			"byteOffset":2507784,
			"target":34962
		},
		{
			"buffer":0,
			"byteLength":13888,
			"byteOffset":2514728,
			"target":34962
		},
		{
			"buffer":0,
			"byteLength":1944,
			"byteOffset":2528616,
			"target":34963
		},
		{
			"buffer":0,
			"byteLength":3648,
			"byteOffset":2530560,
			"target":34962
		},
		{
			"buffer":0,
			"byteLength":3648,
			"byteOffset":2534208,
			"target":34962
		},
		{
			"buffer":0,
			"byteLength":2432,
			"byteOffset":2537856,
			"target":34962
		},
		{
			"buffer":0,
			"byteLength":4864,
			"byteOffset":2540288,
			"target":34962
		},
		{
			"buffer":0,
			"byteLength":648,
			"byteOffset":2545152,
			"target":34963
		},
		{
			"buffer":0,
			"byteLength":18120,
			"byteOffset":2545800,
			"target":34962
		},
		{
			"buffer":0,
			"byteLength":18120,
			"byteOffset":2563920,
			"target":34962
		},
		{
			"buffer":0,
			"byteLength":12080,
			"byteOffset":2582040,
			"target":34962
		},
		{
			"buffer":0,
			"byteLength":24160,
			"byteOffset":2594120,
			"target":34962
		},
		{
			"buffer":0,
			"byteLength":3240,
			"byteOffset":2618280,
			"target":34963
		},
		{
			"buffer":0,
			"byteLength":6960,
			"byteOffset":2621520,
			"target":34962
		},
		{
			"buffer":0,
			"byteLength":6960,
			"byteOffset":2628480,
			"target":34962
		},
		{
			"buffer":0,
			"byteLength":4640,
			"byteOffset":2635440,
			"target":34962
		},
		{
			"buffer":0,
			"byteLength":9280,
			"byteOffset":2640080,
			"target":34962
		},
		{
			"buffer":0,
			"byteLength":1296,
			"byteOffset":2649360,
			"target":34963
		},
		{
			"buffer":0,
			"byteLength":3624,
			"byteOffset":2650656,
			"target":34962
		},
		{
			"buffer":0,
			"byteLength":3624,
			"byteOffset":2654280,
			"target":34962
		},
		{
			"buffer":0,
			"byteLength":2416,
			"byteOffset":2657904,
			"target":34962
		},
		{
			"buffer":0,
			"byteLength":4832,
			"byteOffset":2660320,
			"target":34962
		},
		{
			"buffer":0,
			"byteLength":648,
			"byteOffset":2665152,
			"target":34963
		},
		{
			"buffer":0,
			"byteLength":21216,
			"byteOffset":2665800,
			"target":34962
		},
		{
			"buffer":0,
			"byteLength":21216,
			"byteOffset":2687016,
			"target":34962
		},
		{
			"buffer":0,
			"byteLength":14144,
			"byteOffset":2708232,
			"target":34962
		},
		{
			"buffer":0,
			"byteLength":28288,
			"byteOffset":2722376,
			"target":34962
		},
		{
			"buffer":0,
			"byteLength":3888,
			"byteOffset":2750664,
			"target":34963
		},
		{
			"buffer":0,
			"byteLength":133284,
			"byteOffset":2754552,
			"target":34962
		},
		{
			"buffer":0,
			"byteLength":133284,
			"byteOffset":2887836,
			"target":34962
		},
		{
			"buffer":0,
			"byteLength":88856,
			"byteOffset":3021120,
			"target":34962
		},
		{
			"buffer":0,
			"byteLength":177712,
			"byteOffset":3109976,
			"target":34962
		},
		{
			"buffer":0,
			"byteLength":24720,
			"byteOffset":3287688,
			"target":34963
		},
		{
			"buffer":0,
			"byteLength":12588,
			"byteOffset":3312408,
			"target":34962
		},
		{
			"buffer":0,
			"byteLength":12588,
			"byteOffset":3324996,
			"target":34962
		},
		{
			"buffer":0,
			"byteLength":8392,
			"byteOffset":3337584,
			"target":34962
		},
		{
			"buffer":0,
			"byteLength":16784,
			"byteOffset":3345976,
			"target":34962
		},
		{
			"buffer":0,
			"byteLength":2376,
			"byteOffset":3362760,
			"target":34963
		},
		{
			"buffer":0,
			"byteLength":5784,
			"byteOffset":3365136,
			"target":34962
		},
		{
			"buffer":0,
			"byteLength":5784,
			"byteOffset":3370920,
			"target":34962
		},
		{
			"buffer":0,
			"byteLength":3856,
			"byteOffset":3376704,
			"target":34962
		},
		{
			"buffer":0,
			"byteLength":7712,
			"byteOffset":3380560,
			"target":34962
		},
		{
			"buffer":0,
			"byteLength":1128,
			"byteOffset":3388272,
			"target":34963
		},
		{
			"buffer":0,
			"byteLength":3336,
			"byteOffset":3389400,
			"target":34962
		},
		{
			"buffer":0,
			"byteLength":3336,
			"byteOffset":3392736,
			"target":34962
		},
		{
			"buffer":0,
			"byteLength":2224,
			"byteOffset":3396072,
			"target":34962
		},
		{
			"buffer":0,
			"byteLength":4448,
			"byteOffset":3398296,
			"target":34962
		},
		{
			"buffer":0,
			"byteLength":648,
			"byteOffset":3402744,
			"target":34963
		},
		{
			"buffer":0,
			"byteLength":41676,
			"byteOffset":3403392,
			"target":34962
		},
		{
			"buffer":0,
			"byteLength":41676,
			"byteOffset":3445068,
			"target":34962
		},
		{
			"buffer":0,
			"byteLength":27784,
			"byteOffset":3486744,
			"target":34962
		},
		{
			"buffer":0,
			"byteLength":55568,
			"byteOffset":3514528,
			"target":34962
		},
		{
			"buffer":0,
			"byteLength":7776,
			"byteOffset":3570096,
			"target":34963
		},
		{
			"buffer":0,
			"byteLength":10752,
			"byteOffset":3577872,
			"target":34962
		},
		{
			"buffer":0,
			"byteLength":10752,
			"byteOffset":3588624,
			"target":34962
		},
		{
			"buffer":0,
			"byteLength":7168,
			"byteOffset":3599376,
			"target":34962
		},
		{
			"buffer":0,
			"byteLength":14336,
			"byteOffset":3606544,
			"target":34962
		},
		{
			"buffer":0,
			"byteLength":1944,
			"byteOffset":3620880,
			"target":34963
		},
		{
			"buffer":0,
			"byteLength":10152,
			"byteOffset":3622824,
			"target":34962
		},
		{
			"buffer":0,
			"byteLength":10152,
			"byteOffset":3632976,
			"target":34962
		},
		{
			"buffer":0,
			"byteLength":6768,
			"byteOffset":3643128,
			"target":34962
		},
		{
			"buffer":0,
			"byteLength":13536,
			"byteOffset":3649896,
			"target":34962
		},
		{
			"buffer":0,
			"byteLength":2280,
			"byteOffset":3663432,
			"target":34963
		},
		{
			"buffer":0,
			"byteLength":19104,
			"byteOffset":3665712,
			"target":34962
		},
		{
			"buffer":0,
			"byteLength":19104,
			"byteOffset":3684816,
			"target":34962
		},
		{
			"buffer":0,
			"byteLength":12736,
			"byteOffset":3703920,
			"target":34962
		},
		{
			"buffer":0,
			"byteLength":25472,
			"byteOffset":3716656,
			"target":34962
		},
		{
			"buffer":0,
			"byteLength":3672,
			"byteOffset":3742128,
			"target":34963
		},
		{
			"buffer":0,
			"byteLength":1176,
			"byteOffset":3745800,
			"target":34962
		},
		{
			"buffer":0,
			"byteLength":1176,
			"byteOffset":3746976,
			"target":34962
		},
		{
			"buffer":0,
			"byteLength":784,
			"byteOffset":3748152,
			"target":34962
		},
		{
			"buffer":0,
			"byteLength":1568,
			"byteOffset":3748936,
			"target":34962
		},
		{
			"buffer":0,
			"byteLength":216,
			"byteOffset":3750504,
			"target":34963
		},
		{
			"buffer":0,
			"byteLength":12672,
			"byteOffset":3750720,
			"target":34962
		},
		{
			"buffer":0,
			"byteLength":12672,
			"byteOffset":3763392,
			"target":34962
		},
		{
			"buffer":0,
			"byteLength":8448,
			"byteOffset":3776064,
			"target":34962
		},
		{
			"buffer":0,
			"byteLength":16896,
			"byteOffset":3784512,
			"target":34962
		},
		{
			"buffer":0,
			"byteLength":2376,
			"byteOffset":3801408,
			"target":34963
		},
		{
			"buffer":0,
			"byteLength":1176,
			"byteOffset":3803784,
			"target":34962
		},
		{
			"buffer":0,
			"byteLength":1176,
			"byteOffset":3804960,
			"target":34962
		},
		{
			"buffer":0,
			"byteLength":784,
			"byteOffset":3806136,
			"target":34962
		},
		{
			"buffer":0,
			"byteLength":1568,
			"byteOffset":3806920,
			"target":34962
		},
		{
			"buffer":0,
			"byteLength":216,
			"byteOffset":3808488,
			"target":34963
		},
		{
			"buffer":0,
			"byteLength":6576,
			"byteOffset":3808704,
			"target":34962
		},
		{
			"buffer":0,
			"byteLength":6576,
			"byteOffset":3815280,
			"target":34962
		},
		{
			"buffer":0,
			"byteLength":4384,
			"byteOffset":3821856,
			"target":34962
		},
		{
			"buffer":0,
			"byteLength":8768,
			"byteOffset":3826240,
			"target":34962
		},
		{
			"buffer":0,
			"byteLength":1296,
			"byteOffset":3835008,
			"target":34963
		},
		{
			"buffer":0,
			"byteLength":29904,
			"byteOffset":3836304,
			"target":34962
		},
		{
			"buffer":0,
			"byteLength":29904,
			"byteOffset":3866208,
			"target":34962
		},
		{
			"buffer":0,
			"byteLength":19936,
			"byteOffset":3896112,
			"target":34962
		},
		{
			"buffer":0,
			"byteLength":39872,
			"byteOffset":3916048,
			"target":34962
		},
		{
			"buffer":0,
			"byteLength":5832,
			"byteOffset":3955920,
			"target":34963
		},
		{
			"buffer":0,
			"byteLength":3552,
			"byteOffset":3961752,
			"target":34962
		},
		{
			"buffer":0,
			"byteLength":3552,
			"byteOffset":3965304,
			"target":34962
		},
		{
			"buffer":0,
			"byteLength":2368,
			"byteOffset":3968856,
			"target":34962
		},
		{
			"buffer":0,
			"byteLength":4736,
			"byteOffset":3971224,
			"target":34962
		},
		{
			"buffer":0,
			"byteLength":648,
			"byteOffset":3975960,
			"target":34963
		},
		{
			"buffer":0,
			"byteLength":4644,
			"byteOffset":3976608,
			"target":34962
		},
		{
			"buffer":0,
			"byteLength":4644,
			"byteOffset":3981252,
			"target":34962
		},
		{
			"buffer":0,
			"byteLength":3096,
			"byteOffset":3985896,
			"target":34962
		},
		{
			"buffer":0,
			"byteLength":6192,
			"byteOffset":3988992,
			"target":34962
		},
		{
			"buffer":0,
			"byteLength":1080,
			"byteOffset":3995184,
			"target":34963
		},
		{
			"buffer":0,
			"byteLength":29664,
			"byteOffset":3996264,
			"target":34962
		},
		{
			"buffer":0,
			"byteLength":29664,
			"byteOffset":4025928,
			"target":34962
		},
		{
			"buffer":0,
			"byteLength":19776,
			"byteOffset":4055592,
			"target":34962
		},
		{
			"buffer":0,
			"byteLength":39552,
			"byteOffset":4075368,
			"target":34962
		},
		{
			"buffer":0,
			"byteLength":5832,
			"byteOffset":4114920,
			"target":34963
		},
		{
			"buffer":0,
			"byteLength":7128,
			"byteOffset":4120752,
			"target":34962
		},
		{
			"buffer":0,
			"byteLength":7128,
			"byteOffset":4127880,
			"target":34962
		},
		{
			"buffer":0,
			"byteLength":4752,
			"byteOffset":4135008,
			"target":34962
		},
		{
			"buffer":0,
			"byteLength":9504,
			"byteOffset":4139760,
			"target":34962
		},
		{
			"buffer":0,
			"byteLength":1296,
			"byteOffset":4149264,
			"target":34963
		},
		{
			"buffer":0,
			"byteLength":3408,
			"byteOffset":4150560,
			"target":34962
		},
		{
			"buffer":0,
			"byteLength":3408,
			"byteOffset":4153968,
			"target":34962
		},
		{
			"buffer":0,
			"byteLength":2272,
			"byteOffset":4157376,
			"target":34962
		},
		{
			"buffer":0,
			"byteLength":4544,
			"byteOffset":4159648,
			"target":34962
		},
		{
			"buffer":0,
			"byteLength":648,
			"byteOffset":4164192,
			"target":34963
		},
		{
			"buffer":0,
			"byteLength":29280,
			"byteOffset":4164840,
			"target":34962
		},
		{
			"buffer":0,
			"byteLength":29280,
			"byteOffset":4194120,
			"target":34962
		},
		{
			"buffer":0,
			"byteLength":19520,
			"byteOffset":4223400,
			"target":34962
		},
		{
			"buffer":0,
			"byteLength":39040,
			"byteOffset":4242920,
			"target":34962
		},
		{
			"buffer":0,
			"byteLength":5832,
			"byteOffset":4281960,
			"target":34963
		},
		{
			"buffer":0,
			"byteLength":6816,
			"byteOffset":4287792,
			"target":34962
		},
		{
			"buffer":0,
			"byteLength":6816,
			"byteOffset":4294608,
			"target":34962
		},
		{
			"buffer":0,
			"byteLength":4544,
			"byteOffset":4301424,
			"target":34962
		},
		{
			"buffer":0,
			"byteLength":9088,
			"byteOffset":4305968,
			"target":34962
		},
		{
			"buffer":0,
			"byteLength":1296,
			"byteOffset":4315056,
			"target":34963
		},
		{
			"buffer":0,
			"byteLength":38184,
			"byteOffset":4316352,
			"target":34962
		},
		{
			"buffer":0,
			"byteLength":38184,
			"byteOffset":4354536,
			"target":34962
		},
		{
			"buffer":0,
			"byteLength":25456,
			"byteOffset":4392720,
			"target":34962
		},
		{
			"buffer":0,
			"byteLength":50912,
			"byteOffset":4418176,
			"target":34962
		},
		{
			"buffer":0,
			"byteLength":7464,
			"byteOffset":4469088,
			"target":34963
		},
		{
			"buffer":0,
			"byteLength":6840,
			"byteOffset":4476552,
			"target":34962
		},
		{
			"buffer":0,
			"byteLength":6840,
			"byteOffset":4483392,
			"target":34962
		},
		{
			"buffer":0,
			"byteLength":4560,
			"byteOffset":4490232,
			"target":34962
		},
		{
			"buffer":0,
			"byteLength":9120,
			"byteOffset":4494792,
			"target":34962
		},
		{
			"buffer":0,
			"byteLength":1296,
			"byteOffset":4503912,
			"target":34963
		},
		{
			"buffer":0,
			"byteLength":3492,
			"byteOffset":4505208,
			"target":34962
		},
		{
			"buffer":0,
			"byteLength":3492,
			"byteOffset":4508700,
			"target":34962
		},
		{
			"buffer":0,
			"byteLength":2328,
			"byteOffset":4512192,
			"target":34962
		},
		{
			"buffer":0,
			"byteLength":4656,
			"byteOffset":4514520,
			"target":34962
		},
		{
			"buffer":0,
			"byteLength":648,
			"byteOffset":4519176,
			"target":34963
		},
		{
			"buffer":0,
			"byteLength":23244,
			"byteOffset":4519824,
			"target":34962
		},
		{
			"buffer":0,
			"byteLength":23244,
			"byteOffset":4543068,
			"target":34962
		},
		{
			"buffer":0,
			"byteLength":15496,
			"byteOffset":4566312,
			"target":34962
		},
		{
			"buffer":0,
			"byteLength":30992,
			"byteOffset":4581808,
			"target":34962
		},
		{
			"buffer":0,
			"byteLength":4368,
			"byteOffset":4612800,
			"target":34963
		},
		{
			"buffer":0,
			"byteLength":3432,
			"byteOffset":4617168,
			"target":34962
		},
		{
			"buffer":0,
			"byteLength":3432,
			"byteOffset":4620600,
			"target":34962
		},
		{
			"buffer":0,
			"byteLength":2288,
			"byteOffset":4624032,
			"target":34962
		},
		{
			"buffer":0,
			"byteLength":4576,
			"byteOffset":4626320,
			"target":34962
		},
		{
			"buffer":0,
			"byteLength":648,
			"byteOffset":4630896,
			"target":34963
		},
		{
			"buffer":0,
			"byteLength":3408,
			"byteOffset":4631544,
			"target":34962
		},
		{
			"buffer":0,
			"byteLength":3408,
			"byteOffset":4634952,
			"target":34962
		},
		{
			"buffer":0,
			"byteLength":2272,
			"byteOffset":4638360,
			"target":34962
		},
		{
			"buffer":0,
			"byteLength":4544,
			"byteOffset":4640632,
			"target":34962
		},
		{
			"buffer":0,
			"byteLength":648,
			"byteOffset":4645176,
			"target":34963
		},
		{
			"buffer":0,
			"byteLength":27228,
			"byteOffset":4645824,
			"target":34962
		},
		{
			"buffer":0,
			"byteLength":27228,
			"byteOffset":4673052,
			"target":34962
		},
		{
			"buffer":0,
			"byteLength":18152,
			"byteOffset":4700280,
			"target":34962
		},
		{
			"buffer":0,
			"byteLength":36304,
			"byteOffset":4718432,
			"target":34962
		},
		{
			"buffer":0,
			"byteLength":5328,
			"byteOffset":4754736,
			"target":34963
		},
		{
			"buffer":0,
			"byteLength":6936,
			"byteOffset":4760064,
			"target":34962
		},
		{
			"buffer":0,
			"byteLength":6936,
			"byteOffset":4767000,
			"target":34962
		},
		{
			"buffer":0,
			"byteLength":4624,
			"byteOffset":4773936,
			"target":34962
		},
		{
			"buffer":0,
			"byteLength":9248,
			"byteOffset":4778560,
			"target":34962
		},
		{
			"buffer":0,
			"byteLength":1296,
			"byteOffset":4787808,
			"target":34963
		},
		{
			"buffer":0,
			"byteLength":3492,
			"byteOffset":4789104,
			"target":34962
		},
		{
			"buffer":0,
			"byteLength":3492,
			"byteOffset":4792596,
			"target":34962
		},
		{
			"buffer":0,
			"byteLength":2328,
			"byteOffset":4796088,
			"target":34962
		},
		{
			"buffer":0,
			"byteLength":4656,
			"byteOffset":4798416,
			"target":34962
		},
		{
			"buffer":0,
			"byteLength":648,
			"byteOffset":4803072,
			"target":34963
		},
		{
			"buffer":0,
			"byteLength":3480,
			"byteOffset":4803720,
			"target":34962
		},
		{
			"buffer":0,
			"byteLength":3480,
			"byteOffset":4807200,
			"target":34962
		},
		{
			"buffer":0,
			"byteLength":2320,
			"byteOffset":4810680,
			"target":34962
		},
		{
			"buffer":0,
			"byteLength":4640,
			"byteOffset":4813000,
			"target":34962
		},
		{
			"buffer":0,
			"byteLength":648,
			"byteOffset":4817640,
			"target":34963
		}
	],
	"buffers":[
		{
			"byteLength":4818288,
			"uri":"Krakow.bin"
		}
	]
}
