{
	"asset":{
		"generator":"Khronos glTF Blender I/O v4.5.48",
		"version":"2.0"
	},
	"extensionsUsed":[
		"KHR_materials_specular",
		"KHR_materials_ior"
	],
	"scene":0,
	"scenes":[
		{
			"name":"Scene",
			"nodes":[
				0,
				1,
				2,
				3,
				4,
				5,
				6,
				7,
				8
			]
		}
	],
	"nodes":[
		{
			"mesh":0,
			"name":"Tobiasz"
		},
		{
			"mesh":1,
			"name":"Window"
		},
		{
			"mesh":2,
			"name":"Parapet"
		},
		{
			"mesh":3,
			"name":"Wardrobe"
		},
		{
			"mesh":4,
			"name":"Desk"
		},
		{
			"mesh":5,
			"name":"Tobiasz.001"
		},
		{
			"mesh":6,
			"name":"Tobiasz.002"
		},
		{
			"mesh":7,
			"name":"Lamele"
		},
		{
			"mesh":8,
			"name":"Tobiasz.003"
		}
	],
	"materials":[
		{
			"doubleSided":true,
			"name":"Elevation",
			"pbrMetallicRoughness":{
				"baseColorFactor":[
					0.800000011920929,
					0.800000011920929,
					0.800000011920929,
					1
				],
				"metallicFactor":0,
				"roughnessFactor":0.5
			}
		},
		{
			"doubleSided":true,
			"name":"Floor",
			"pbrMetallicRoughness":{
				"baseColorFactor":[
					0.800000011920929,
					0.800000011920929,
					0.800000011920929,
					1
				],
				"metallicFactor":0,
				"roughnessFactor":0.5
			}
		},
		{
			"doubleSided":true,
			"name":"Wall",
			"pbrMetallicRoughness":{
				"baseColorFactor":[
					0.800000011920929,
					0.800000011920929,
					0.800000011920929,
					1
				],
				"metallicFactor":0,
				"roughnessFactor":0.5
			}
		},
		{
			"doubleSided":true,
			"name":"Ceil",
			"pbrMetallicRoughness":{
				"baseColorFactor":[
					0.800000011920929,
					0.800000011920929,
					0.800000011920929,
					1
				],
				"metallicFactor":0,
				"roughnessFactor":0.5
			}
		},
		{
			"doubleSided":true,
			"name":"Wall N",
			"pbrMetallicRoughness":{
				"baseColorFactor":[
					0.800000011920929,
					0.800000011920929,
					0.800000011920929,
					1
				],
				"metallicFactor":0,
				"roughnessFactor":0.5
			}
		},
		{
			"doubleSided":true,
			"name":"Wall S",
			"pbrMetallicRoughness":{
				"baseColorFactor":[
					0.800000011920929,
					0.800000011920929,
					0.800000011920929,
					1
				],
				"metallicFactor":0,
				"roughnessFactor":0.5
			}
		},
		{
			"doubleSided":true,
			"name":"Wall E",
			"pbrMetallicRoughness":{
				"baseColorFactor":[
					0.800000011920929,
					0.800000011920929,
					0.800000011920929,
					1
				],
				"metallicFactor":0,
				"roughnessFactor":0.5
			}
		},
		{
			"doubleSided":true,
			"name":"Wall W",
			"pbrMetallicRoughness":{
				"baseColorFactor":[
					0.800000011920929,
					0.800000011920929,
					0.800000011920929,
					1
				],
				"metallicFactor":0,
				"roughnessFactor":0.5
			}
		},
		{
			"doubleSided":true,
			"name":"Plastic",
			"pbrMetallicRoughness":{
				"metallicFactor":0,
				"roughnessFactor":0.5
			}
		},
		{
			"alphaMode":"BLEND",
			"doubleSided":true,
			"extensions":{
				"KHR_materials_specular":{
					"specularFactor":0
				},
				"KHR_materials_ior":{
					"ior":1.4500000476837158
				}
			},
			"name":"Glass",
			"pbrMetallicRoughness":{
				"baseColorFactor":[
					1,
					1,
					1,
					0.10000000149011612
				],
				"metallicFactor":0,
				"roughnessFactor":0
			}
		},
		{
			"doubleSided":true,
			"name":"Wardrobe",
			"pbrMetallicRoughness":{
				"baseColorTexture":{
					"index":0
				},
				"metallicFactor":0,
				"roughnessFactor":0.5
			}
		},
		{
			"doubleSided":true,
			"name":"White",
			"pbrMetallicRoughness":{
				"metallicFactor":0,
				"roughnessFactor":0.5
			}
		},
		{
			"doubleSided":true,
			"name":"Black",
			"pbrMetallicRoughness":{
				"baseColorFactor":[
					0,
					0,
					0,
					1
				],
				"metallicFactor":0,
				"roughnessFactor":0.5
			}
		}
	],
	"meshes":[
		{
			"name":"Tobiasz",
			"primitives":[
				{
					"attributes":{
						"POSITION":0,
						"NORMAL":1,
						"TEXCOORD_0":2,
						"TANGENT":3
					},
					"indices":4,
					"material":0
				},
				{
					"attributes":{
						"POSITION":5,
						"NORMAL":6,
						"TEXCOORD_0":7,
						"TANGENT":8
					},
					"indices":9,
					"material":1
				},
				{
					"attributes":{
						"POSITION":10,
						"NORMAL":11,
						"TEXCOORD_0":12,
						"TANGENT":13
					},
					"indices":14,
					"material":2
				},
				{
					"attributes":{
						"POSITION":15,
						"NORMAL":16,
						"TEXCOORD_0":17,
						"TANGENT":18
					},
					"indices":19,
					"material":3
				},
				{
					"attributes":{
						"POSITION":20,
						"NORMAL":21,
						"TEXCOORD_0":22,
						"TANGENT":23
					},
					"indices":24,
					"material":4
				},
				{
					"attributes":{
						"POSITION":25,
						"NORMAL":26,
						"TEXCOORD_0":27,
						"TANGENT":28
					},
					"indices":29,
					"material":5
				},
				{
					"attributes":{
						"POSITION":30,
						"NORMAL":31,
						"TEXCOORD_0":32,
						"TANGENT":33
					},
					"indices":34,
					"material":6
				},
				{
					"attributes":{
						"POSITION":35,
						"NORMAL":36,
						"TEXCOORD_0":37,
						"TANGENT":38
					},
					"indices":39,
					"material":7
				}
			]
		},
		{
			"name":"Window",
			"primitives":[
				{
					"attributes":{
						"POSITION":40,
						"NORMAL":41,
						"TEXCOORD_0":42,
						"TANGENT":43
					},
					"indices":44,
					"material":8
				},
				{
					"attributes":{
						"POSITION":45,
						"NORMAL":46,
						"TEXCOORD_0":47,
						"TANGENT":48
					},
					"indices":49,
					"material":9
				}
			]
		},
		{
			"name":"Parapet",
			"primitives":[
				{
					"attributes":{
						"POSITION":50,
						"NORMAL":51,
						"TEXCOORD_0":52,
						"TANGENT":53
					},
					"indices":54,
					"material":10
				}
			]
		},
		{
			"name":"Wardrobe",
			"primitives":[
				{
					"attributes":{
						"POSITION":55,
						"NORMAL":56,
						"TEXCOORD_0":57,
						"TANGENT":58
					},
					"indices":59,
					"material":10
				},
				{
					"attributes":{
						"POSITION":60,
						"NORMAL":61,
						"TEXCOORD_0":62,
						"TANGENT":63
					},
					"indices":64,
					"material":11
				}
			]
		},
		{
			"name":"Desk",
			"primitives":[
				{
					"attributes":{
						"POSITION":65,
						"NORMAL":66,
						"TEXCOORD_0":67,
						"TANGENT":68
					},
					"indices":69,
					"material":10
				},
				{
					"attributes":{
						"POSITION":70,
						"NORMAL":71,
						"TEXCOORD_0":72,
						"TANGENT":73
					},
					"indices":74,
					"material":12
				}
			]
		},
		{
			"name":"Tobiasz.001",
			"primitives":[
				{
					"attributes":{
						"POSITION":75,
						"NORMAL":76,
						"TEXCOORD_0":77,
						"TANGENT":78
					},
					"indices":79,
					"material":2
				}
			]
		},
		{
			"name":"Tobiasz.002",
			"primitives":[
				{
					"attributes":{
						"POSITION":80,
						"NORMAL":81,
						"TEXCOORD_0":82,
						"TANGENT":83
					},
					"indices":84,
					"material":10
				}
			]
		},
		{
			"name":"Lamele",
			"primitives":[
				{
					"attributes":{
						"POSITION":85,
						"NORMAL":86,
						"TEXCOORD_0":87,
						"TANGENT":88
					},
					"indices":89,
					"material":10
				}
			]
		},
		{
			"name":"Tobiasz.003",
			"primitives":[
				{
					"attributes":{
						"POSITION":90,
						"NORMAL":91,
						"TEXCOORD_0":92,
						"TANGENT":93
					},
					"indices":94,
					"material":11
				}
			]
		}
	],
	"textures":[
		{
			"sampler":0,
			"source":0
		}
	],
	"images":[
		{
			"mimeType":"image/jpeg",
			"name":"D3025 OW DAB SONOMA",
			"uri":"D3025%20OW%20DAB%20SONOMA.jpg"
		}
	],
	"accessors":[
		{
			"bufferView":0,
			"componentType":5126,
			"count":869,
			"max":[
				3,
				2.6700000762939453,
				2.31000018119812
			],
			"min":[
				-0.9200000166893005,
				-0.20000000298023224,
				-2.3249998092651367
			],
			"type":"VEC3"
		},
		{
			"bufferView":1,
			"componentType":5126,
			"count":869,
			"type":"VEC3"
		},
		{
			"bufferView":2,
			"componentType":5126,
			"count":869,
			"type":"VEC2"
		},
		{
			"bufferView":3,
			"componentType":5126,
			"count":869,
			"type":"VEC4"
		},
		{
			"bufferView":4,
			"componentType":5123,
			"count":1686,
			"type":"SCALAR"
		},
		{
			"bufferView":5,
			"componentType":5126,
			"count":63,
			"max":[
				2.7990002632141113,
				0.0010000000474974513,
				2.109999895095825
			],
			"min":[
				-0.7200000286102295,
				0,
				-2.0190000534057617
			],
			"type":"VEC3"
		},
		{
			"bufferView":6,
			"componentType":5126,
			"count":63,
			"type":"VEC3"
		},
		{
			"bufferView":7,
			"componentType":5126,
			"count":63,
			"type":"VEC2"
		},
		{
			"bufferView":8,
			"componentType":5126,
			"count":63,
			"type":"VEC4"
		},
		{
			"bufferView":9,
			"componentType":5123,
			"count":150,
			"type":"SCALAR"
		},
		{
			"bufferView":10,
			"componentType":5126,
			"count":189,
			"max":[
				1.100000023841858,
				2,
				2.109999895095825
			],
			"min":[
				-0.7200000286102295,
				0,
				0.009000000543892384
			],
			"type":"VEC3"
		},
		{
			"bufferView":11,
			"componentType":5126,
			"count":189,
			"type":"VEC3"
		},
		{
			"bufferView":12,
			"componentType":5126,
			"count":189,
			"type":"VEC2"
		},
		{
			"bufferView":13,
			"componentType":5126,
			"count":189,
			"type":"VEC4"
		},
		{
			"bufferView":14,
			"componentType":5123,
			"count":402,
			"type":"SCALAR"
		},
		{
			"bufferView":15,
			"componentType":5126,
			"count":132,
			"max":[
				2.8000001907348633,
				2.4699997901916504,
				0.010000000707805157
			],
			"min":[
				0,
				2.440000057220459,
				-1.8899999856948853
			],
			"type":"VEC3"
		},
		{
			"bufferView":16,
			"componentType":5126,
			"count":132,
			"type":"VEC3"
		},
		{
			"bufferView":17,
			"componentType":5126,
			"count":132,
			"type":"VEC2"
		},
		{
			"bufferView":18,
			"componentType":5126,
			"count":132,
			"type":"VEC4"
		},
		{
			"bufferView":19,
			"componentType":5123,
			"count":240,
			"type":"SCALAR"
		},
		{
			"bufferView":20,
			"componentType":5126,
			"count":66,
			"max":[
				0.0010000001639127731,
				2.440000057220459,
				0.009000000543892384
			],
			"min":[
				0,
				0,
				-2.065000057220459
			],
			"type":"VEC3"
		},
		{
			"bufferView":21,
			"componentType":5126,
			"count":66,
			"type":"VEC3"
		},
		{
			"bufferView":22,
			"componentType":5126,
			"count":66,
			"type":"VEC2"
		},
		{
			"bufferView":23,
			"componentType":5126,
			"count":66,
			"type":"VEC4"
		},
		{
			"bufferView":24,
			"componentType":5123,
			"count":135,
			"type":"SCALAR"
		},
		{
			"bufferView":25,
			"componentType":5126,
			"count":73,
			"max":[
				2.8000001907348633,
				2.440000057220459,
				0.009000000543892384
			],
			"min":[
				2.7990002632141113,
				0,
				-2.065000057220459
			],
			"type":"VEC3"
		},
		{
			"bufferView":26,
			"componentType":5126,
			"count":73,
			"type":"VEC3"
		},
		{
			"bufferView":27,
			"componentType":5126,
			"count":73,
			"type":"VEC2"
		},
		{
			"bufferView":28,
			"componentType":5126,
			"count":73,
			"type":"VEC4"
		},
		{
			"bufferView":29,
			"componentType":5123,
			"count":135,
			"type":"SCALAR"
		},
		{
			"bufferView":30,
			"componentType":5126,
			"count":135,
			"max":[
				2.8000001907348633,
				2.440000057220459,
				0.01100000087171793
			],
			"min":[
				0,
				0,
				0.009000000543892384
			],
			"type":"VEC3"
		},
		{
			"bufferView":31,
			"componentType":5126,
			"count":135,
			"type":"VEC3"
		},
		{
			"bufferView":32,
			"componentType":5126,
			"count":135,
			"type":"VEC2"
		},
		{
			"bufferView":33,
			"componentType":5126,
			"count":135,
			"type":"VEC4"
		},
		{
			"bufferView":34,
			"componentType":5123,
			"count":294,
			"type":"SCALAR"
		},
		{
			"bufferView":35,
			"componentType":5126,
			"count":308,
			"max":[
				2.8000001907348633,
				2.440000057220459,
				-1.8889999389648438
			],
			"min":[
				0,
				0,
				-2.125
			],
			"type":"VEC3"
		},
		{
			"bufferView":36,
			"componentType":5126,
			"count":308,
			"type":"VEC3"
		},
		{
			"bufferView":37,
			"componentType":5126,
			"count":308,
			"type":"VEC2"
		},
		{
			"bufferView":38,
			"componentType":5126,
			"count":308,
			"type":"VEC4"
		},
		{
			"bufferView":39,
			"componentType":5123,
			"count":546,
			"type":"SCALAR"
		},
		{
			"bufferView":40,
			"componentType":5126,
			"count":525,
			"max":[
				2.020000457763672,
				2.2100000381469727,
				-2.1050000190734863
			],
			"min":[
				0.5100003480911255,
				0.7299998998641968,
				-2.195000171661377
			],
			"type":"VEC3"
		},
		{
			"bufferView":41,
			"componentType":5126,
			"count":525,
			"type":"VEC3"
		},
		{
			"bufferView":42,
			"componentType":5126,
			"count":525,
			"type":"VEC2"
		},
		{
			"bufferView":43,
			"componentType":5126,
			"count":525,
			"type":"VEC4"
		},
		{
			"bufferView":44,
			"componentType":5123,
			"count":768,
			"type":"SCALAR"
		},
		{
			"bufferView":45,
			"componentType":5126,
			"count":48,
			"max":[
				1.9300003051757812,
				2.120000123977661,
				-2.130000114440918
			],
			"min":[
				0.600000262260437,
				0.8899999260902405,
				-2.1500000953674316
			],
			"type":"VEC3"
		},
		{
			"bufferView":46,
			"componentType":5126,
			"count":48,
			"type":"VEC3"
		},
		{
			"bufferView":47,
			"componentType":5126,
			"count":48,
			"type":"VEC2"
		},
		{
			"bufferView":48,
			"componentType":5126,
			"count":48,
			"type":"VEC4"
		},
		{
			"bufferView":49,
			"componentType":5123,
			"count":72,
			"type":"SCALAR"
		},
		{
			"bufferView":50,
			"componentType":5126,
			"count":562,
			"max":[
				2.8000001907348633,
				0.800000011920929,
				-2.001999855041504
			],
			"min":[
				0,
				0.6499999761581421,
				-2.125
			],
			"type":"VEC3"
		},
		{
			"bufferView":51,
			"componentType":5126,
			"count":562,
			"type":"VEC3"
		},
		{
			"bufferView":52,
			"componentType":5126,
			"count":562,
			"type":"VEC2"
		},
		{
			"bufferView":53,
			"componentType":5126,
			"count":562,
			"type":"VEC4"
		},
		{
			"bufferView":54,
			"componentType":5123,
			"count":864,
			"type":"SCALAR"
		},
		{
			"bufferView":55,
			"componentType":5126,
			"count":3134,
			"max":[
				0.2900000810623169,
				2.450000047683716,
				0.010000001639127731
			],
			"min":[
				0,
				0,
				-0.8260000348091125
			],
			"type":"VEC3"
		},
		{
			"bufferView":56,
			"componentType":5126,
			"count":3134,
			"type":"VEC3"
		},
		{
			"bufferView":57,
			"componentType":5126,
			"count":3134,
			"type":"VEC2"
		},
		{
			"bufferView":58,
			"componentType":5126,
			"count":3134,
			"type":"VEC4"
		},
		{
			"bufferView":59,
			"componentType":5123,
			"count":3960,
			"type":"SCALAR"
		},
		{
			"bufferView":60,
			"componentType":5126,
			"count":418,
			"max":[
				0.003000020980834961,
				2.4499998092651367,
				-0.007999999448657036
			],
			"min":[
				0,
				0.10000002384185791,
				-0.8080000281333923
			],
			"type":"VEC3"
		},
		{
			"bufferView":61,
			"componentType":5126,
			"count":418,
			"type":"VEC3"
		},
		{
			"bufferView":62,
			"componentType":5126,
			"count":418,
			"type":"VEC2"
		},
		{
			"bufferView":63,
			"componentType":5126,
			"count":418,
			"type":"VEC4"
		},
		{
			"bufferView":64,
			"componentType":5123,
			"count":528,
			"type":"SCALAR"
		},
		{
			"bufferView":65,
			"componentType":5126,
			"count":206,
			"max":[
				0.5180000066757202,
				0.8200000524520874,
				-0.9019999504089355
			],
			"min":[
				0,
				0.7200000286102295,
				-2.002000093460083
			],
			"type":"VEC3"
		},
		{
			"bufferView":66,
			"componentType":5126,
			"count":206,
			"type":"VEC3"
		},
		{
			"bufferView":67,
			"componentType":5126,
			"count":206,
			"type":"VEC2"
		},
		{
			"bufferView":68,
			"componentType":5126,
			"count":206,
			"type":"VEC4"
		},
		{
			"bufferView":69,
			"componentType":5123,
			"count":264,
			"type":"SCALAR"
		},
		{
			"bufferView":70,
			"componentType":5126,
			"count":434,
			"max":[
				0.5180000066757202,
				0.7199999690055847,
				-0.9519999623298645
			],
			"min":[
				0.018000001087784767,
				0,
				-1.9519999027252197
			],
			"type":"VEC3"
		},
		{
			"bufferView":71,
			"componentType":5126,
			"count":434,
			"type":"VEC3"
		},
		{
			"bufferView":72,
			"componentType":5126,
			"count":434,
			"type":"VEC2"
		},
		{
			"bufferView":73,
			"componentType":5126,
			"count":434,
			"type":"VEC4"
		},
		{
			"bufferView":74,
			"componentType":5123,
			"count":576,
			"type":"SCALAR"
		},
		{
			"bufferView":75,
			"componentType":5126,
			"count":191,
			"max":[
				2.8000001907348633,
				0.06000000983476639,
				0.010000000707805157
			],
			"min":[
				0,
				0,
				-2.0199999809265137
			],
			"type":"VEC3"
		},
		{
			"bufferView":76,
			"componentType":5126,
			"count":191,
			"type":"VEC3"
		},
		{
			"bufferView":77,
			"componentType":5126,
			"count":191,
			"type":"VEC2"
		},
		{
			"bufferView":78,
			"componentType":5126,
			"count":191,
			"type":"VEC4"
		},
		{
			"bufferView":79,
			"componentType":5123,
			"count":258,
			"type":"SCALAR"
		},
		{
			"bufferView":80,
			"componentType":5126,
			"count":336,
			"max":[
				2.8000001907348633,
				2.227999687194824,
				0
			],
			"min":[
				2.6200003623962402,
				1.609999656677246,
				-2
			],
			"type":"VEC3"
		},
		{
			"bufferView":81,
			"componentType":5126,
			"count":336,
			"type":"VEC3"
		},
		{
			"bufferView":82,
			"componentType":5126,
			"count":336,
			"type":"VEC2"
		},
		{
			"bufferView":83,
			"componentType":5126,
			"count":336,
			"type":"VEC4"
		},
		{
			"bufferView":84,
			"componentType":5123,
			"count":396,
			"type":"SCALAR"
		},
		{
			"bufferView":85,
			"componentType":5126,
			"count":1162,
			"max":[
				2.8000001907348633,
				1,
				0.010000239126384258
			],
			"min":[
				1.6000001430511475,
				0.2499999701976776,
				-2.06499981880188
			],
			"type":"VEC3"
		},
		{
			"bufferView":86,
			"componentType":5126,
			"count":1162,
			"type":"VEC3"
		},
		{
			"bufferView":87,
			"componentType":5126,
			"count":1162,
			"type":"VEC2"
		},
		{
			"bufferView":88,
			"componentType":5126,
			"count":1162,
			"type":"VEC4"
		},
		{
			"bufferView":89,
			"componentType":5123,
			"count":1452,
			"type":"SCALAR"
		},
		{
			"bufferView":90,
			"componentType":5126,
			"count":110,
			"max":[
				1.399999976158142,
				0.7000000476837158,
				-1.8899999856948853
			],
			"min":[
				0.699999988079071,
				0.10000000149011612,
				-1.9900000095367432
			],
			"type":"VEC3"
		},
		{
			"bufferView":91,
			"componentType":5126,
			"count":110,
			"type":"VEC3"
		},
		{
			"bufferView":92,
			"componentType":5126,
			"count":110,
			"type":"VEC2"
		},
		{
			"bufferView":93,
			"componentType":5126,
			"count":110,
			"type":"VEC4"
		},
		{
			"bufferView":94,
			"componentType":5123,
			"count":132,
			"type":"SCALAR"
		}
	],
	"bufferViews":[
		{
			"buffer":0,
			"byteLength":10428,
			"byteOffset":0,
			"target":34962
		},
		{
			"buffer":0,
			"byteLength":10428,
			"byteOffset":10428,
			"target":34962
		},
		{
			"buffer":0,
			"byteLength":6952,
			"byteOffset":20856,
			"target":34962
		},
		{
			"buffer":0,
			"byteLength":13904,
			"byteOffset":27808,
			"target":34962
		},
		{
			"buffer":0,
			"byteLength":3372,
			"byteOffset":41712,
			"target":34963
		},
		{
			"buffer":0,
			"byteLength":756,
			"byteOffset":45084,
			"target":34962
		},
		{
			"buffer":0,
			"byteLength":756,
			"byteOffset":45840,
			"target":34962
		},
		{
			"buffer":0,
			"byteLength":504,
			"byteOffset":46596,
			"target":34962
		},
		{
			"buffer":0,
			"byteLength":1008,
			"byteOffset":47100,
			"target":34962
		},
		{
			"buffer":0,
			"byteLength":300,
			"byteOffset":48108,
			"target":34963
		},
		{
			"buffer":0,
			"byteLength":2268,
			"byteOffset":48408,
			"target":34962
		},
		{
			"buffer":0,
			"byteLength":2268,
			"byteOffset":50676,
			"target":34962
		},
		{
			"buffer":0,
			"byteLength":1512,
			"byteOffset":52944,
			"target":34962
		},
		{
			"buffer":0,
			"byteLength":3024,
			"byteOffset":54456,
			"target":34962
		},
		{
			"buffer":0,
			"byteLength":804,
			"byteOffset":57480,
			"target":34963
		},
		{
			"buffer":0,
			"byteLength":1584,
			"byteOffset":58284,
			"target":34962
		},
		{
			"buffer":0,
			"byteLength":1584,
			"byteOffset":59868,
			"target":34962
		},
		{
			"buffer":0,
			"byteLength":1056,
			"byteOffset":61452,
			"target":34962
		},
		{
			"buffer":0,
			"byteLength":2112,
			"byteOffset":62508,
			"target":34962
		},
		{
			"buffer":0,
			"byteLength":480,
			"byteOffset":64620,
			"target":34963
		},
		{
			"buffer":0,
			"byteLength":792,
			"byteOffset":65100,
			"target":34962
		},
		{
			"buffer":0,
			"byteLength":792,
			"byteOffset":65892,
			"target":34962
		},
		{
			"buffer":0,
			"byteLength":528,
			"byteOffset":66684,
			"target":34962
		},
		{
			"buffer":0,
			"byteLength":1056,
			"byteOffset":67212,
			"target":34962
		},
		{
			"buffer":0,
			"byteLength":270,
			"byteOffset":68268,
			"target":34963
		},
		{
			"buffer":0,
			"byteLength":876,
			"byteOffset":68540,
			"target":34962
		},
		{
			"buffer":0,
			"byteLength":876,
			"byteOffset":69416,
			"target":34962
		},
		{
			"buffer":0,
			"byteLength":584,
			"byteOffset":70292,
			"target":34962
		},
		{
			"buffer":0,
			"byteLength":1168,
			"byteOffset":70876,
			"target":34962
		},
		{
			"buffer":0,
			"byteLength":270,
			"byteOffset":72044,
			"target":34963
		},
		{
			"buffer":0,
			"byteLength":1620,
			"byteOffset":72316,
			"target":34962
		},
		{
			"buffer":0,
			"byteLength":1620,
			"byteOffset":73936,
			"target":34962
		},
		{
			"buffer":0,
			"byteLength":1080,
			"byteOffset":75556,
			"target":34962
		},
		{
			"buffer":0,
			"byteLength":2160,
			"byteOffset":76636,
			"target":34962
		},
		{
			"buffer":0,
			"byteLength":588,
			"byteOffset":78796,
			"target":34963
		},
		{
			"buffer":0,
			"byteLength":3696,
			"byteOffset":79384,
			"target":34962
		},
		{
			"buffer":0,
			"byteLength":3696,
			"byteOffset":83080,
			"target":34962
		},
		{
			"buffer":0,
			"byteLength":2464,
			"byteOffset":86776,
			"target":34962
		},
		{
			"buffer":0,
			"byteLength":4928,
			"byteOffset":89240,
			"target":34962
		},
		{
			"buffer":0,
			"byteLength":1092,
			"byteOffset":94168,
			"target":34963
		},
		{
			"buffer":0,
			"byteLength":6300,
			"byteOffset":95260,
			"target":34962
		},
		{
			"buffer":0,
			"byteLength":6300,
			"byteOffset":101560,
			"target":34962
		},
		{
			"buffer":0,
			"byteLength":4200,
			"byteOffset":107860,
			"target":34962
		},
		{
			"buffer":0,
			"byteLength":8400,
			"byteOffset":112060,
			"target":34962
		},
		{
			"buffer":0,
			"byteLength":1536,
			"byteOffset":120460,
			"target":34963
		},
		{
			"buffer":0,
			"byteLength":576,
			"byteOffset":121996,
			"target":34962
		},
		{
			"buffer":0,
			"byteLength":576,
			"byteOffset":122572,
			"target":34962
		},
		{
			"buffer":0,
			"byteLength":384,
			"byteOffset":123148,
			"target":34962
		},
		{
			"buffer":0,
			"byteLength":768,
			"byteOffset":123532,
			"target":34962
		},
		{
			"buffer":0,
			"byteLength":144,
			"byteOffset":124300,
			"target":34963
		},
		{
			"buffer":0,
			"byteLength":6744,
			"byteOffset":124444,
			"target":34962
		},
		{
			"buffer":0,
			"byteLength":6744,
			"byteOffset":131188,
			"target":34962
		},
		{
			"buffer":0,
			"byteLength":4496,
			"byteOffset":137932,
			"target":34962
		},
		{
			"buffer":0,
			"byteLength":8992,
			"byteOffset":142428,
			"target":34962
		},
		{
			"buffer":0,
			"byteLength":1728,
			"byteOffset":151420,
			"target":34963
		},
		{
			"buffer":0,
			"byteLength":37608,
			"byteOffset":153148,
			"target":34962
		},
		{
			"buffer":0,
			"byteLength":37608,
			"byteOffset":190756,
			"target":34962
		},
		{
			"buffer":0,
			"byteLength":25072,
			"byteOffset":228364,
			"target":34962
		},
		{
			"buffer":0,
			"byteLength":50144,
			"byteOffset":253436,
			"target":34962
		},
		{
			"buffer":0,
			"byteLength":7920,
			"byteOffset":303580,
			"target":34963
		},
		{
			"buffer":0,
			"byteLength":5016,
			"byteOffset":311500,
			"target":34962
		},
		{
			"buffer":0,
			"byteLength":5016,
			"byteOffset":316516,
			"target":34962
		},
		{
			"buffer":0,
			"byteLength":3344,
			"byteOffset":321532,
			"target":34962
		},
		{
			"buffer":0,
			"byteLength":6688,
			"byteOffset":324876,
			"target":34962
		},
		{
			"buffer":0,
			"byteLength":1056,
			"byteOffset":331564,
			"target":34963
		},
		{
			"buffer":0,
			"byteLength":2472,
			"byteOffset":332620,
			"target":34962
		},
		{
			"buffer":0,
			"byteLength":2472,
			"byteOffset":335092,
			"target":34962
		},
		{
			"buffer":0,
			"byteLength":1648,
			"byteOffset":337564,
			"target":34962
		},
		{
			"buffer":0,
			"byteLength":3296,
			"byteOffset":339212,
			"target":34962
		},
		{
			"buffer":0,
			"byteLength":528,
			"byteOffset":342508,
			"target":34963
		},
		{
			"buffer":0,
			"byteLength":5208,
			"byteOffset":343036,
			"target":34962
		},
		{
			"buffer":0,
			"byteLength":5208,
			"byteOffset":348244,
			"target":34962
		},
		{
			"buffer":0,
			"byteLength":3472,
			"byteOffset":353452,
			"target":34962
		},
		{
			"buffer":0,
			"byteLength":6944,
			"byteOffset":356924,
			"target":34962
		},
		{
			"buffer":0,
			"byteLength":1152,
			"byteOffset":363868,
			"target":34963
		},
		{
			"buffer":0,
			"byteLength":2292,
			"byteOffset":365020,
			"target":34962
		},
		{
			"buffer":0,
			"byteLength":2292,
			"byteOffset":367312,
			"target":34962
		},
		{
			"buffer":0,
			"byteLength":1528,
			"byteOffset":369604,
			"target":34962
		},
		{
			"buffer":0,
			"byteLength":3056,
			"byteOffset":371132,
			"target":34962
		},
		{
			"buffer":0,
			"byteLength":516,
			"byteOffset":374188,
			"target":34963
		},
		{
			"buffer":0,
			"byteLength":4032,
			"byteOffset":374704,
			"target":34962
		},
		{
			"buffer":0,
			"byteLength":4032,
			"byteOffset":378736,
			"target":34962
		},
		{
			"buffer":0,
			"byteLength":2688,
			"byteOffset":382768,
			"target":34962
		},
		{
			"buffer":0,
			"byteLength":5376,
			"byteOffset":385456,
			"target":34962
		},
		{
			"buffer":0,
			"byteLength":792,
			"byteOffset":390832,
			"target":34963
		},
		{
			"buffer":0,
			"byteLength":13944,
			"byteOffset":391624,
			"target":34962
		},
		{
			"buffer":0,
			"byteLength":13944,
			"byteOffset":405568,
			"target":34962
		},
		{
			"buffer":0,
			"byteLength":9296,
			"byteOffset":419512,
			"target":34962
		},
		{
			"buffer":0,
			"byteLength":18592,
			"byteOffset":428808,
			"target":34962
		},
		{
			"buffer":0,
			"byteLength":2904,
			"byteOffset":447400,
			"target":34963
		},
		{
			"buffer":0,
			"byteLength":1320,
			"byteOffset":450304,
			"target":34962
		},
		{
			"buffer":0,
			"byteLength":1320,
			"byteOffset":451624,
			"target":34962
		},
		{
			"buffer":0,
			"byteLength":880,
			"byteOffset":452944,
			"target":34962
		},
		{
			"buffer":0,
			"byteLength":1760,
			"byteOffset":453824,
			"target":34962
		},
		{
			"buffer":0,
			"byteLength":264,
			"byteOffset":455584,
			"target":34963
		}
	],
	"samplers":[
		{
			"magFilter":9729,
			"minFilter":9987
		}
	],
	"buffers":[
		{
			"byteLength":455848,
			"uri":"Odlegla.bin"
		}
	]
}
