{
	"asset":{
		"generator":"Khronos glTF Blender I/O v4.5.48",
		"version":"2.0"
	},
	"scene":0,
	"scenes":[
		{
			"name":"Scene",
			"nodes":[
				0
			]
		}
	],
	"nodes":[
		{
			"mesh":0,
			"name":"Stack of Bricks"
		}
	],
	"materials":[
		{
			"doubleSided":true,
			"name":"Stack of Bricks",
			"pbrMetallicRoughness":{
				"baseColorTexture":{
					"index":0
				},
				"metallicFactor":0,
				"roughnessFactor":0.5
			}
		}
	],
	"meshes":[
		{
			"name":"Model_material1_0.002",
			"primitives":[
				{
					"attributes":{
						"POSITION":0,
						"NORMAL":1,
						"TEXCOORD_0":2,
						"TEXCOORD_1":3,
						"TANGENT":4
					},
					"indices":5,
					"material":0
				}
			]
		}
	],
	"textures":[
		{
			"sampler":0,
			"source":0
		}
	],
	"images":[
		{
			"mimeType":"image/jpeg",
			"name":"Albedo",
			"uri":"Albedo.jpg"
		}
	],
	"accessors":[
		{
			"bufferView":0,
			"componentType":5126,
			"count":10038,
			"max":[
				1.7198221683502197,
				1.9082064628601074,
				0.912289023399353
			],
			"min":[
				-1.6909841299057007,
				-0.006195947527885437,
				-1.1007131338119507
			],
			"type":"VEC3"
		},
		{
			"bufferView":1,
			"componentType":5126,
			"count":10038,
			"type":"VEC3"
		},
		{
			"bufferView":2,
			"componentType":5126,
			"count":10038,
			"type":"VEC2"
		},
		{
			"bufferView":3,
			"componentType":5126,
			"count":10038,
			"type":"VEC2"
		},
		{
			"bufferView":4,
			"componentType":5126,
			"count":10038,
			"type":"VEC4"
		},
		{
			"bufferView":5,
			"componentType":5123,
			"count":10038,
			"type":"SCALAR"
		}
	],
	"bufferViews":[
		{
			"buffer":0,
			"byteLength":120456,
			"byteOffset":0,
			"target":34962
		},
		{
			"buffer":0,
			"byteLength":120456,
			"byteOffset":120456,
			"target":34962
		},
		{
			"buffer":0,
			"byteLength":80304,
			"byteOffset":240912,
			"target":34962
		},
		{
			"buffer":0,
			"byteLength":80304,
			"byteOffset":321216,
			"target":34962
		},
		{
			"buffer":0,
			"byteLength":160608,
			"byteOffset":401520,
			"target":34962
		},
		{
			"buffer":0,
			"byteLength":20076,
			"byteOffset":562128,
			"target":34963
		}
	],
	"samplers":[
		{
			"magFilter":9729,
			"minFilter":9987
		}
	],
	"buffers":[
		{
			"byteLength":582204,
			"uri":"Stack%20of%20Bricks.bin"
		}
	]
}
