{
	"asset":{
		"generator":"Khronos glTF Blender I/O v4.5.48",
		"version":"2.0"
	},
	"extensionsUsed":[
		"KHR_materials_specular"
	],
	"scene":0,
	"scenes":[
		{
			"name":"Scene",
			"nodes":[
				0
			]
		}
	],
	"nodes":[
		{
			"mesh":0,
			"name":"SubstanceSphere"
		}
	],
	"materials":[
		{
			"doubleSided":true,
			"extensions":{
				"KHR_materials_specular":{
					"specularColorFactor":[
						2.0,
						2.0,
						2.0
					]
				}
			},
			"name":"sphere.001",
			"pbrMetallicRoughness":{
				"baseColorFactor":[
					0.5,
					0.5,
					0.5,
					1
				],
				"roughnessFactor":0.858578622341156
			}
		}
	],
	"meshes":[
		{
			"name":"Mesh.001",
			"primitives":[
				{
					"attributes":{
						"POSITION":0,
						"NORMAL":1,
						"TEXCOORD_0":2,
						"TEXCOORD_1":3,
						"TANGENT":4
					},
					"indices":5,
					"material":0
				}
			]
		}
	],
	"accessors":[
		{
			"bufferView":0,
			"componentType":5126,
			"count":105678,
			"max":[
				0.5576719045639038,
				0.4950903654098511,
				0.4182741940021515
			],
			"min":[
				-0.4373345673084259,
				-0.49810266494750977,
				-0.5212920308113098
			],
			"type":"VEC3"
		},
		{
			"bufferView":1,
			"componentType":5126,
			"count":105678,
			"type":"VEC3"
		},
		{
			"bufferView":2,
			"componentType":5126,
			"count":105678,
			"type":"VEC2"
		},
		{
			"bufferView":3,
			"componentType":5126,
			"count":105678,
			"type":"VEC2"
		},
		{
			"bufferView":4,
			"componentType":5126,
			"count":105678,
			"type":"VEC4"
		},
		{
			"bufferView":5,
			"componentType":5125,
			"count":167226,
			"type":"SCALAR"
		}
	],
	"bufferViews":[
		{
			"buffer":0,
			"byteLength":1268136,
			"byteOffset":0,
			"target":34962
		},
		{
			"buffer":0,
			"byteLength":1268136,
			"byteOffset":1268136,
			"target":34962
		},
		{
			"buffer":0,
			"byteLength":845424,
			"byteOffset":2536272,
			"target":34962
		},
		{
			"buffer":0,
			"byteLength":845424,
			"byteOffset":3381696,
			"target":34962
		},
		{
			"buffer":0,
			"byteLength":1690848,
			"byteOffset":4227120,
			"target":34962
		},
		{
			"buffer":0,
			"byteLength":668904,
			"byteOffset":5917968,
			"target":34963
		}
	],
	"buffers":[
		{
			"byteLength":6586872,
			"uri":"SubstanceSphere.bin"
		}
	]
}
