{
	"asset":{
		"generator":"Khronos glTF Blender I/O v5.0.21",
		"version":"2.0"
	},
	"scene":0,
	"scenes":[
		{
			"name":"Scene",
			"nodes":[
				0
			]
		}
	],
	"nodes":[
		{
			"mesh":0,
			"name":"Terrain"
		}
	],
	"meshes":[
		{
			"name":"Terrain",
			"primitives":[
				{
					"attributes":{
						"POSITION":0,
						"NORMAL":1,
						"TEXCOORD_0":2,
						"TANGENT":3
					},
					"indices":4
				}
			]
		}
	],
	"accessors":[
		{
			"bufferView":0,
			"componentType":5126,
			"count":40000,
			"max":[
				50,
				3.831336498260498,
				50
			],
			"min":[
				-50,
				-3.4705746173858643,
				-50
			],
			"type":"VEC3"
		},
		{
			"bufferView":1,
			"componentType":5126,
			"count":40000,
			"type":"VEC3"
		},
		{
			"bufferView":2,
			"componentType":5126,
			"count":40000,
			"type":"VEC2"
		},
		{
			"bufferView":3,
			"componentType":5126,
			"count":40000,
			"type":"VEC4"
		},
		{
			"bufferView":4,
			"componentType":5123,
			"count":60000,
			"type":"SCALAR"
		}
	],
	"bufferViews":[
		{
			"buffer":0,
			"byteLength":480000,
			"byteOffset":0,
			"target":34962
		},
		{
			"buffer":0,
			"byteLength":480000,
			"byteOffset":480000,
			"target":34962
		},
		{
			"buffer":0,
			"byteLength":320000,
			"byteOffset":960000,
			"target":34962
		},
		{
			"buffer":0,
			"byteLength":640000,
			"byteOffset":1280000,
			"target":34962
		},
		{
			"buffer":0,
			"byteLength":120000,
			"byteOffset":1920000,
			"target":34963
		}
	],
	"buffers":[
		{
			"byteLength":2040000,
			"uri":"Terrain.bin"
		}
	]
}
